G04 #@! TF.GenerationSoftware,KiCad,Pcbnew,(5.1.4)-1*
G04 #@! TF.CreationDate,2019-11-16T22:40:45+09:00*
G04 #@! TF.ProjectId,yurei,79757265-692e-46b6-9963-61645f706362,1.0*
G04 #@! TF.SameCoordinates,Original*
G04 #@! TF.FileFunction,Legend,Top*
G04 #@! TF.FilePolarity,Positive*
%FSLAX46Y46*%
G04 Gerber Fmt 4.6, Leading zero omitted, Abs format (unit mm)*
G04 Created by KiCad (PCBNEW (5.1.4)-1) date 2019-11-16 22:40:45*
%MOMM*%
%LPD*%
G04 APERTURE LIST*
%ADD10C,0.120000*%
%ADD11C,0.150000*%
G04 APERTURE END LIST*
D10*
X367224000Y-193113000D02*
X367224000Y-179143000D01*
X381194000Y-193113000D02*
X367224000Y-193113000D01*
X381194000Y-179143000D02*
X381194000Y-193113000D01*
X367224000Y-179143000D02*
X381194000Y-179143000D01*
X348174000Y-193113000D02*
X348174000Y-179143000D01*
X362144000Y-193113000D02*
X348174000Y-193113000D01*
X362144000Y-179143000D02*
X362144000Y-193113000D01*
X348174000Y-179143000D02*
X362144000Y-179143000D01*
X329124000Y-193113000D02*
X329124000Y-179143000D01*
X343094000Y-193113000D02*
X329124000Y-193113000D01*
X343094000Y-179143000D02*
X343094000Y-193113000D01*
X329124000Y-179143000D02*
X343094000Y-179143000D01*
X302740000Y-193113000D02*
X302740000Y-179143000D01*
X316710000Y-193113000D02*
X302740000Y-193113000D01*
X316710000Y-179143000D02*
X316710000Y-193113000D01*
X302740000Y-179143000D02*
X316710000Y-179143000D01*
X278927000Y-193113000D02*
X278927000Y-179143000D01*
X292897000Y-193113000D02*
X278927000Y-193113000D01*
X292897000Y-179143000D02*
X292897000Y-193113000D01*
X278927000Y-179143000D02*
X292897000Y-179143000D01*
X255115000Y-193113000D02*
X255115000Y-179143000D01*
X269085000Y-193113000D02*
X255115000Y-193113000D01*
X269085000Y-179143000D02*
X269085000Y-193113000D01*
X255115000Y-179143000D02*
X269085000Y-179143000D01*
X231302000Y-193113000D02*
X231302000Y-179143000D01*
X245272000Y-193113000D02*
X231302000Y-193113000D01*
X245272000Y-179143000D02*
X245272000Y-193113000D01*
X231302000Y-179143000D02*
X245272000Y-179143000D01*
X159865000Y-193113000D02*
X159865000Y-179143000D01*
X173835000Y-193113000D02*
X159865000Y-193113000D01*
X173835000Y-179143000D02*
X173835000Y-193113000D01*
X159865000Y-179143000D02*
X173835000Y-179143000D01*
X88427200Y-193113000D02*
X88427200Y-179143000D01*
X102397200Y-193113000D02*
X88427200Y-193113000D01*
X102397200Y-179143000D02*
X102397200Y-193113000D01*
X88427200Y-179143000D02*
X102397200Y-179143000D01*
X64614800Y-193113000D02*
X64614800Y-179143000D01*
X78584800Y-193113000D02*
X64614800Y-193113000D01*
X78584800Y-179143000D02*
X78584800Y-193113000D01*
X64614800Y-179143000D02*
X78584800Y-179143000D01*
X40802200Y-193113000D02*
X40802200Y-179143000D01*
X54772200Y-193113000D02*
X40802200Y-193113000D01*
X54772200Y-179143000D02*
X54772200Y-193113000D01*
X40802200Y-179143000D02*
X54772200Y-179143000D01*
X348174000Y-174063000D02*
X348174000Y-160093000D01*
X362144000Y-174063000D02*
X348174000Y-174063000D01*
X362144000Y-160093000D02*
X362144000Y-174063000D01*
X348174000Y-160093000D02*
X362144000Y-160093000D01*
X288453000Y-174063000D02*
X288453000Y-160093000D01*
X302423000Y-174063000D02*
X288453000Y-174063000D01*
X302423000Y-160093000D02*
X302423000Y-174063000D01*
X288453000Y-160093000D02*
X302423000Y-160093000D01*
X252734000Y-174063000D02*
X252734000Y-160093000D01*
X266704000Y-174063000D02*
X252734000Y-174063000D01*
X266704000Y-160093000D02*
X266704000Y-174063000D01*
X252734000Y-160093000D02*
X266704000Y-160093000D01*
X233684000Y-174063000D02*
X233684000Y-160093000D01*
X247654000Y-174063000D02*
X233684000Y-174063000D01*
X247654000Y-160093000D02*
X247654000Y-174063000D01*
X233684000Y-160093000D02*
X247654000Y-160093000D01*
X214634000Y-174063000D02*
X214634000Y-160093000D01*
X228604000Y-174063000D02*
X214634000Y-174063000D01*
X228604000Y-160093000D02*
X228604000Y-174063000D01*
X214634000Y-160093000D02*
X228604000Y-160093000D01*
X195584000Y-174063000D02*
X195584000Y-160093000D01*
X209554000Y-174063000D02*
X195584000Y-174063000D01*
X209554000Y-160093000D02*
X209554000Y-174063000D01*
X195584000Y-160093000D02*
X209554000Y-160093000D01*
X176534000Y-174063000D02*
X176534000Y-160093000D01*
X190504000Y-174063000D02*
X176534000Y-174063000D01*
X190504000Y-160093000D02*
X190504000Y-174063000D01*
X176534000Y-160093000D02*
X190504000Y-160093000D01*
X157484000Y-174063000D02*
X157484000Y-160093000D01*
X171454000Y-174063000D02*
X157484000Y-174063000D01*
X171454000Y-160093000D02*
X171454000Y-174063000D01*
X157484000Y-160093000D02*
X171454000Y-160093000D01*
X138434000Y-174063000D02*
X138434000Y-160093000D01*
X152404000Y-174063000D02*
X138434000Y-174063000D01*
X152404000Y-160093000D02*
X152404000Y-174063000D01*
X138434000Y-160093000D02*
X152404000Y-160093000D01*
X119384000Y-174063000D02*
X119384000Y-160093000D01*
X133354000Y-174063000D02*
X119384000Y-174063000D01*
X133354000Y-160093000D02*
X133354000Y-174063000D01*
X119384000Y-160093000D02*
X133354000Y-160093000D01*
X100334000Y-174063000D02*
X100334000Y-160093000D01*
X114304000Y-174063000D02*
X100334000Y-174063000D01*
X114304000Y-160093000D02*
X114304000Y-174063000D01*
X100334000Y-160093000D02*
X114304000Y-160093000D01*
X81283800Y-174063000D02*
X81283800Y-160093000D01*
X95253800Y-174063000D02*
X81283800Y-174063000D01*
X95253800Y-160093000D02*
X95253800Y-174063000D01*
X81283800Y-160093000D02*
X95253800Y-160093000D01*
X50401800Y-174063000D02*
X50401800Y-160093000D01*
X64371800Y-174063000D02*
X50401800Y-174063000D01*
X64371800Y-160093000D02*
X64371800Y-174063000D01*
X50401800Y-160093000D02*
X64371800Y-160093000D01*
X293289000Y-155013000D02*
X293289000Y-141043000D01*
X307259000Y-155013000D02*
X293289000Y-155013000D01*
X307259000Y-141043000D02*
X307259000Y-155013000D01*
X293289000Y-141043000D02*
X307259000Y-141043000D01*
X262259000Y-155013000D02*
X262259000Y-141043000D01*
X276229000Y-155013000D02*
X262259000Y-155013000D01*
X276229000Y-141043000D02*
X276229000Y-155013000D01*
X262259000Y-141043000D02*
X276229000Y-141043000D01*
X243209000Y-155013000D02*
X243209000Y-141043000D01*
X257179000Y-155013000D02*
X243209000Y-155013000D01*
X257179000Y-141043000D02*
X257179000Y-155013000D01*
X243209000Y-141043000D02*
X257179000Y-141043000D01*
X224159000Y-155013000D02*
X224159000Y-141043000D01*
X238129000Y-155013000D02*
X224159000Y-155013000D01*
X238129000Y-141043000D02*
X238129000Y-155013000D01*
X224159000Y-141043000D02*
X238129000Y-141043000D01*
X205109000Y-155013000D02*
X205109000Y-141043000D01*
X219079000Y-155013000D02*
X205109000Y-155013000D01*
X219079000Y-141043000D02*
X219079000Y-155013000D01*
X205109000Y-141043000D02*
X219079000Y-141043000D01*
X186059000Y-155013000D02*
X186059000Y-141043000D01*
X200029000Y-155013000D02*
X186059000Y-155013000D01*
X200029000Y-141043000D02*
X200029000Y-155013000D01*
X186059000Y-141043000D02*
X200029000Y-141043000D01*
X167009000Y-155013000D02*
X167009000Y-141043000D01*
X180979000Y-155013000D02*
X167009000Y-155013000D01*
X180979000Y-141043000D02*
X180979000Y-155013000D01*
X167009000Y-141043000D02*
X180979000Y-141043000D01*
X147959000Y-155013000D02*
X147959000Y-141043000D01*
X161929000Y-155013000D02*
X147959000Y-155013000D01*
X161929000Y-141043000D02*
X161929000Y-155013000D01*
X147959000Y-141043000D02*
X161929000Y-141043000D01*
X128909000Y-155013000D02*
X128909000Y-141043000D01*
X142879000Y-155013000D02*
X128909000Y-155013000D01*
X142879000Y-141043000D02*
X142879000Y-155013000D01*
X128909000Y-141043000D02*
X142879000Y-141043000D01*
X109859000Y-155013000D02*
X109859000Y-141043000D01*
X123829000Y-155013000D02*
X109859000Y-155013000D01*
X123829000Y-141043000D02*
X123829000Y-155013000D01*
X109859000Y-141043000D02*
X123829000Y-141043000D01*
X90809000Y-155013000D02*
X90809000Y-141043000D01*
X104779000Y-155013000D02*
X90809000Y-155013000D01*
X104779000Y-141043000D02*
X104779000Y-155013000D01*
X90809000Y-141043000D02*
X104779000Y-141043000D01*
X71758800Y-155013000D02*
X71758800Y-141043000D01*
X85728800Y-155013000D02*
X71758800Y-155013000D01*
X85728800Y-141043000D02*
X85728800Y-155013000D01*
X71758800Y-141043000D02*
X85728800Y-141043000D01*
X45565200Y-155013000D02*
X45565200Y-141043000D01*
X59535200Y-155013000D02*
X45565200Y-155013000D01*
X59535200Y-141043000D02*
X59535200Y-155013000D01*
X45565200Y-141043000D02*
X59535200Y-141043000D01*
X367224000Y-135963000D02*
X367224000Y-121993000D01*
X381194000Y-135963000D02*
X367224000Y-135963000D01*
X381194000Y-121993000D02*
X381194000Y-135963000D01*
X367224000Y-121993000D02*
X381194000Y-121993000D01*
X348174000Y-135963000D02*
X348174000Y-121993000D01*
X362144000Y-135963000D02*
X348174000Y-135963000D01*
X362144000Y-121993000D02*
X362144000Y-135963000D01*
X348174000Y-121993000D02*
X362144000Y-121993000D01*
X329124000Y-135963000D02*
X329124000Y-121993000D01*
X343094000Y-135963000D02*
X329124000Y-135963000D01*
X343094000Y-121993000D02*
X343094000Y-135963000D01*
X329124000Y-121993000D02*
X343094000Y-121993000D01*
X300359000Y-135963000D02*
X300359000Y-121993000D01*
X314329000Y-135963000D02*
X300359000Y-135963000D01*
X314329000Y-121993000D02*
X314329000Y-135963000D01*
X300359000Y-121993000D02*
X314329000Y-121993000D01*
X276546000Y-135963000D02*
X276546000Y-121993000D01*
X290516000Y-135963000D02*
X276546000Y-135963000D01*
X290516000Y-121993000D02*
X290516000Y-135963000D01*
X276546000Y-121993000D02*
X290516000Y-121993000D01*
X257496000Y-135963000D02*
X257496000Y-121993000D01*
X271466000Y-135963000D02*
X257496000Y-135963000D01*
X271466000Y-121993000D02*
X271466000Y-135963000D01*
X257496000Y-121993000D02*
X271466000Y-121993000D01*
X238446000Y-135963000D02*
X238446000Y-121993000D01*
X252416000Y-135963000D02*
X238446000Y-135963000D01*
X252416000Y-121993000D02*
X252416000Y-135963000D01*
X238446000Y-121993000D02*
X252416000Y-121993000D01*
X219396000Y-135963000D02*
X219396000Y-121993000D01*
X233366000Y-135963000D02*
X219396000Y-135963000D01*
X233366000Y-121993000D02*
X233366000Y-135963000D01*
X219396000Y-121993000D02*
X233366000Y-121993000D01*
X200346000Y-135963000D02*
X200346000Y-121993000D01*
X214316000Y-135963000D02*
X200346000Y-135963000D01*
X214316000Y-121993000D02*
X214316000Y-135963000D01*
X200346000Y-121993000D02*
X214316000Y-121993000D01*
X181296000Y-135963000D02*
X181296000Y-121993000D01*
X195266000Y-135963000D02*
X181296000Y-135963000D01*
X195266000Y-121993000D02*
X195266000Y-135963000D01*
X181296000Y-121993000D02*
X195266000Y-121993000D01*
X162246000Y-135963000D02*
X162246000Y-121993000D01*
X176216000Y-135963000D02*
X162246000Y-135963000D01*
X176216000Y-121993000D02*
X176216000Y-135963000D01*
X162246000Y-121993000D02*
X176216000Y-121993000D01*
X143196000Y-135963000D02*
X143196000Y-121993000D01*
X157166000Y-135963000D02*
X143196000Y-135963000D01*
X157166000Y-121993000D02*
X157166000Y-135963000D01*
X143196000Y-121993000D02*
X157166000Y-121993000D01*
X124146000Y-135963000D02*
X124146000Y-121993000D01*
X138116000Y-135963000D02*
X124146000Y-135963000D01*
X138116000Y-121993000D02*
X138116000Y-135963000D01*
X124146000Y-121993000D02*
X138116000Y-121993000D01*
X105096000Y-135963000D02*
X105096000Y-121993000D01*
X119066000Y-135963000D02*
X105096000Y-135963000D01*
X119066000Y-121993000D02*
X119066000Y-135963000D01*
X105096000Y-121993000D02*
X119066000Y-121993000D01*
X86046200Y-135963000D02*
X86046200Y-121993000D01*
X100016200Y-135963000D02*
X86046200Y-135963000D01*
X100016200Y-121993000D02*
X100016200Y-135963000D01*
X86046200Y-121993000D02*
X100016200Y-121993000D01*
X66996200Y-135963000D02*
X66996200Y-121993000D01*
X80966200Y-135963000D02*
X66996200Y-135963000D01*
X80966200Y-121993000D02*
X80966200Y-135963000D01*
X66996200Y-121993000D02*
X80966200Y-121993000D01*
X43184200Y-135963000D02*
X43184200Y-121993000D01*
X57154200Y-135963000D02*
X43184200Y-135963000D01*
X57154200Y-121993000D02*
X57154200Y-135963000D01*
X43184200Y-121993000D02*
X57154200Y-121993000D01*
X367224000Y-116913000D02*
X367224000Y-102943000D01*
X381194000Y-116913000D02*
X367224000Y-116913000D01*
X381194000Y-102943000D02*
X381194000Y-116913000D01*
X367224000Y-102943000D02*
X381194000Y-102943000D01*
X348174000Y-116913000D02*
X348174000Y-102943000D01*
X362144000Y-116913000D02*
X348174000Y-116913000D01*
X362144000Y-102943000D02*
X362144000Y-116913000D01*
X348174000Y-102943000D02*
X362144000Y-102943000D01*
X329124000Y-116913000D02*
X329124000Y-102943000D01*
X343094000Y-116913000D02*
X329124000Y-116913000D01*
X343094000Y-102943000D02*
X343094000Y-116913000D01*
X329124000Y-102943000D02*
X343094000Y-102943000D01*
X295596000Y-116913000D02*
X295596000Y-102943000D01*
X309566000Y-116913000D02*
X295596000Y-116913000D01*
X309566000Y-102943000D02*
X309566000Y-116913000D01*
X295596000Y-102943000D02*
X309566000Y-102943000D01*
X267021000Y-116913000D02*
X267021000Y-102943000D01*
X280991000Y-116913000D02*
X267021000Y-116913000D01*
X280991000Y-102943000D02*
X280991000Y-116913000D01*
X267021000Y-102943000D02*
X280991000Y-102943000D01*
X247971000Y-116913000D02*
X247971000Y-102943000D01*
X261941000Y-116913000D02*
X247971000Y-116913000D01*
X261941000Y-102943000D02*
X261941000Y-116913000D01*
X247971000Y-102943000D02*
X261941000Y-102943000D01*
X228921000Y-116913000D02*
X228921000Y-102943000D01*
X242891000Y-116913000D02*
X228921000Y-116913000D01*
X242891000Y-102943000D02*
X242891000Y-116913000D01*
X228921000Y-102943000D02*
X242891000Y-102943000D01*
X209871000Y-116913000D02*
X209871000Y-102943000D01*
X223841000Y-116913000D02*
X209871000Y-116913000D01*
X223841000Y-102943000D02*
X223841000Y-116913000D01*
X209871000Y-102943000D02*
X223841000Y-102943000D01*
X190821000Y-116913000D02*
X190821000Y-102943000D01*
X204791000Y-116913000D02*
X190821000Y-116913000D01*
X204791000Y-102943000D02*
X204791000Y-116913000D01*
X190821000Y-102943000D02*
X204791000Y-102943000D01*
X171771000Y-116913000D02*
X171771000Y-102943000D01*
X185741000Y-116913000D02*
X171771000Y-116913000D01*
X185741000Y-102943000D02*
X185741000Y-116913000D01*
X171771000Y-102943000D02*
X185741000Y-102943000D01*
X152721000Y-116913000D02*
X152721000Y-102943000D01*
X166691000Y-116913000D02*
X152721000Y-116913000D01*
X166691000Y-102943000D02*
X166691000Y-116913000D01*
X152721000Y-102943000D02*
X166691000Y-102943000D01*
X133671000Y-116913000D02*
X133671000Y-102943000D01*
X147641000Y-116913000D02*
X133671000Y-116913000D01*
X147641000Y-102943000D02*
X147641000Y-116913000D01*
X133671000Y-102943000D02*
X147641000Y-102943000D01*
X114621000Y-116913000D02*
X114621000Y-102943000D01*
X128591000Y-116913000D02*
X114621000Y-116913000D01*
X128591000Y-102943000D02*
X128591000Y-116913000D01*
X114621000Y-102943000D02*
X128591000Y-102943000D01*
X95571000Y-116913000D02*
X95571000Y-102943000D01*
X109541000Y-116913000D02*
X95571000Y-116913000D01*
X109541000Y-102943000D02*
X109541000Y-116913000D01*
X95571000Y-102943000D02*
X109541000Y-102943000D01*
X76521200Y-116913000D02*
X76521200Y-102943000D01*
X90491200Y-116913000D02*
X76521200Y-116913000D01*
X90491200Y-102943000D02*
X90491200Y-116913000D01*
X76521200Y-102943000D02*
X90491200Y-102943000D01*
X57471200Y-116913000D02*
X57471200Y-102943000D01*
X71441200Y-116913000D02*
X57471200Y-116913000D01*
X71441200Y-102943000D02*
X71441200Y-116913000D01*
X57471200Y-102943000D02*
X71441200Y-102943000D01*
X38421200Y-116913000D02*
X38421200Y-102943000D01*
X52391200Y-116913000D02*
X38421200Y-116913000D01*
X52391200Y-102943000D02*
X52391200Y-116913000D01*
X38421200Y-102943000D02*
X52391200Y-102943000D01*
X367224000Y-88910000D02*
X367224000Y-74940000D01*
X381194000Y-88910000D02*
X367224000Y-88910000D01*
X381194000Y-74940000D02*
X381194000Y-88910000D01*
X367224000Y-74940000D02*
X381194000Y-74940000D01*
X348174000Y-88910000D02*
X348174000Y-74940000D01*
X362144000Y-88910000D02*
X348174000Y-88910000D01*
X362144000Y-74940000D02*
X362144000Y-88910000D01*
X348174000Y-74940000D02*
X362144000Y-74940000D01*
X329124000Y-88910000D02*
X329124000Y-74940000D01*
X343094000Y-88910000D02*
X329124000Y-88910000D01*
X343094000Y-74940000D02*
X343094000Y-88910000D01*
X329124000Y-74940000D02*
X343094000Y-74940000D01*
X305121000Y-88910000D02*
X305121000Y-74940000D01*
X319091000Y-88910000D02*
X305121000Y-88910000D01*
X319091000Y-74940000D02*
X319091000Y-88910000D01*
X305121000Y-74940000D02*
X319091000Y-74940000D01*
X286071000Y-88910000D02*
X286071000Y-74940000D01*
X300041000Y-88910000D02*
X286071000Y-88910000D01*
X300041000Y-74940000D02*
X300041000Y-88910000D01*
X286071000Y-74940000D02*
X300041000Y-74940000D01*
X267021000Y-88910000D02*
X267021000Y-74940000D01*
X280991000Y-88910000D02*
X267021000Y-88910000D01*
X280991000Y-74940000D02*
X280991000Y-88910000D01*
X267021000Y-74940000D02*
X280991000Y-74940000D01*
X247971000Y-88910000D02*
X247971000Y-74940000D01*
X261941000Y-88910000D02*
X247971000Y-88910000D01*
X261941000Y-74940000D02*
X261941000Y-88910000D01*
X247971000Y-74940000D02*
X261941000Y-74940000D01*
X219396000Y-88910000D02*
X219396000Y-74940000D01*
X233366000Y-88910000D02*
X219396000Y-88910000D01*
X233366000Y-74940000D02*
X233366000Y-88910000D01*
X219396000Y-74940000D02*
X233366000Y-74940000D01*
X200346000Y-88910000D02*
X200346000Y-74940000D01*
X214316000Y-88910000D02*
X200346000Y-88910000D01*
X214316000Y-74940000D02*
X214316000Y-88910000D01*
X200346000Y-74940000D02*
X214316000Y-74940000D01*
X181296000Y-88910000D02*
X181296000Y-74940000D01*
X195266000Y-88910000D02*
X181296000Y-88910000D01*
X195266000Y-74940000D02*
X195266000Y-88910000D01*
X181296000Y-74940000D02*
X195266000Y-74940000D01*
X162246000Y-88910000D02*
X162246000Y-74940000D01*
X176216000Y-88910000D02*
X162246000Y-88910000D01*
X176216000Y-74940000D02*
X176216000Y-88910000D01*
X162246000Y-74940000D02*
X176216000Y-74940000D01*
X133671000Y-88910000D02*
X133671000Y-74940000D01*
X147641000Y-88910000D02*
X133671000Y-88910000D01*
X147641000Y-74940000D02*
X147641000Y-88910000D01*
X133671000Y-74940000D02*
X147641000Y-74940000D01*
X114621000Y-88910000D02*
X114621000Y-74940000D01*
X128591000Y-88910000D02*
X114621000Y-88910000D01*
X128591000Y-74940000D02*
X128591000Y-88910000D01*
X114621000Y-74940000D02*
X128591000Y-74940000D01*
X95571000Y-88910000D02*
X95571000Y-74940000D01*
X109541000Y-88910000D02*
X95571000Y-88910000D01*
X109541000Y-74940000D02*
X109541000Y-88910000D01*
X95571000Y-74940000D02*
X109541000Y-74940000D01*
X76521200Y-88910000D02*
X76521200Y-74940000D01*
X90491200Y-88910000D02*
X76521200Y-88910000D01*
X90491200Y-74940000D02*
X90491200Y-88910000D01*
X76521200Y-74940000D02*
X90491200Y-74940000D01*
X38421200Y-88910000D02*
X38421200Y-74940000D01*
X52391200Y-88910000D02*
X38421200Y-88910000D01*
X52391200Y-74940000D02*
X52391200Y-88910000D01*
X38421200Y-74940000D02*
X52391200Y-74940000D01*
X363069000Y-97055000D02*
X363069000Y-97211000D01*
X363069000Y-94739000D02*
X363069000Y-94895000D01*
X365670130Y-97054837D02*
G75*
G02X363588039Y-97055000I-1041130J1079837D01*
G01*
X365670130Y-94895163D02*
G75*
G03X363588039Y-94895000I-1041130J-1079837D01*
G01*
X366301335Y-97053608D02*
G75*
G02X363069000Y-97210516I-1672335J1078608D01*
G01*
X366301335Y-94896392D02*
G75*
G03X363069000Y-94739484I-1672335J-1078608D01*
G01*
X344019000Y-97055000D02*
X344019000Y-97211000D01*
X344019000Y-94739000D02*
X344019000Y-94895000D01*
X346620130Y-97054837D02*
G75*
G02X344538039Y-97055000I-1041130J1079837D01*
G01*
X346620130Y-94895163D02*
G75*
G03X344538039Y-94895000I-1041130J-1079837D01*
G01*
X347251335Y-97053608D02*
G75*
G02X344019000Y-97210516I-1672335J1078608D01*
G01*
X347251335Y-94896392D02*
G75*
G03X344019000Y-94739484I-1672335J-1078608D01*
G01*
D11*
X372399476Y-178658761D02*
X372542333Y-178706380D01*
X372780428Y-178706380D01*
X372875666Y-178658761D01*
X372923285Y-178611142D01*
X372970904Y-178515904D01*
X372970904Y-178420666D01*
X372923285Y-178325428D01*
X372875666Y-178277809D01*
X372780428Y-178230190D01*
X372589952Y-178182571D01*
X372494714Y-178134952D01*
X372447095Y-178087333D01*
X372399476Y-177992095D01*
X372399476Y-177896857D01*
X372447095Y-177801619D01*
X372494714Y-177754000D01*
X372589952Y-177706380D01*
X372828047Y-177706380D01*
X372970904Y-177754000D01*
X373304238Y-177706380D02*
X373542333Y-178706380D01*
X373732809Y-177992095D01*
X373923285Y-178706380D01*
X374161380Y-177706380D01*
X374685190Y-178134952D02*
X374589952Y-178087333D01*
X374542333Y-178039714D01*
X374494714Y-177944476D01*
X374494714Y-177896857D01*
X374542333Y-177801619D01*
X374589952Y-177754000D01*
X374685190Y-177706380D01*
X374875666Y-177706380D01*
X374970904Y-177754000D01*
X375018523Y-177801619D01*
X375066142Y-177896857D01*
X375066142Y-177944476D01*
X375018523Y-178039714D01*
X374970904Y-178087333D01*
X374875666Y-178134952D01*
X374685190Y-178134952D01*
X374589952Y-178182571D01*
X374542333Y-178230190D01*
X374494714Y-178325428D01*
X374494714Y-178515904D01*
X374542333Y-178611142D01*
X374589952Y-178658761D01*
X374685190Y-178706380D01*
X374875666Y-178706380D01*
X374970904Y-178658761D01*
X375018523Y-178611142D01*
X375066142Y-178515904D01*
X375066142Y-178325428D01*
X375018523Y-178230190D01*
X374970904Y-178182571D01*
X374875666Y-178134952D01*
X375399476Y-177706380D02*
X376066142Y-177706380D01*
X375637571Y-178706380D01*
X353349476Y-178658761D02*
X353492333Y-178706380D01*
X353730428Y-178706380D01*
X353825666Y-178658761D01*
X353873285Y-178611142D01*
X353920904Y-178515904D01*
X353920904Y-178420666D01*
X353873285Y-178325428D01*
X353825666Y-178277809D01*
X353730428Y-178230190D01*
X353539952Y-178182571D01*
X353444714Y-178134952D01*
X353397095Y-178087333D01*
X353349476Y-177992095D01*
X353349476Y-177896857D01*
X353397095Y-177801619D01*
X353444714Y-177754000D01*
X353539952Y-177706380D01*
X353778047Y-177706380D01*
X353920904Y-177754000D01*
X354254238Y-177706380D02*
X354492333Y-178706380D01*
X354682809Y-177992095D01*
X354873285Y-178706380D01*
X355111380Y-177706380D01*
X355635190Y-178134952D02*
X355539952Y-178087333D01*
X355492333Y-178039714D01*
X355444714Y-177944476D01*
X355444714Y-177896857D01*
X355492333Y-177801619D01*
X355539952Y-177754000D01*
X355635190Y-177706380D01*
X355825666Y-177706380D01*
X355920904Y-177754000D01*
X355968523Y-177801619D01*
X356016142Y-177896857D01*
X356016142Y-177944476D01*
X355968523Y-178039714D01*
X355920904Y-178087333D01*
X355825666Y-178134952D01*
X355635190Y-178134952D01*
X355539952Y-178182571D01*
X355492333Y-178230190D01*
X355444714Y-178325428D01*
X355444714Y-178515904D01*
X355492333Y-178611142D01*
X355539952Y-178658761D01*
X355635190Y-178706380D01*
X355825666Y-178706380D01*
X355920904Y-178658761D01*
X355968523Y-178611142D01*
X356016142Y-178515904D01*
X356016142Y-178325428D01*
X355968523Y-178230190D01*
X355920904Y-178182571D01*
X355825666Y-178134952D01*
X356873285Y-177706380D02*
X356682809Y-177706380D01*
X356587571Y-177754000D01*
X356539952Y-177801619D01*
X356444714Y-177944476D01*
X356397095Y-178134952D01*
X356397095Y-178515904D01*
X356444714Y-178611142D01*
X356492333Y-178658761D01*
X356587571Y-178706380D01*
X356778047Y-178706380D01*
X356873285Y-178658761D01*
X356920904Y-178611142D01*
X356968523Y-178515904D01*
X356968523Y-178277809D01*
X356920904Y-178182571D01*
X356873285Y-178134952D01*
X356778047Y-178087333D01*
X356587571Y-178087333D01*
X356492333Y-178134952D01*
X356444714Y-178182571D01*
X356397095Y-178277809D01*
X334299476Y-178658761D02*
X334442333Y-178706380D01*
X334680428Y-178706380D01*
X334775666Y-178658761D01*
X334823285Y-178611142D01*
X334870904Y-178515904D01*
X334870904Y-178420666D01*
X334823285Y-178325428D01*
X334775666Y-178277809D01*
X334680428Y-178230190D01*
X334489952Y-178182571D01*
X334394714Y-178134952D01*
X334347095Y-178087333D01*
X334299476Y-177992095D01*
X334299476Y-177896857D01*
X334347095Y-177801619D01*
X334394714Y-177754000D01*
X334489952Y-177706380D01*
X334728047Y-177706380D01*
X334870904Y-177754000D01*
X335204238Y-177706380D02*
X335442333Y-178706380D01*
X335632809Y-177992095D01*
X335823285Y-178706380D01*
X336061380Y-177706380D01*
X336585190Y-178134952D02*
X336489952Y-178087333D01*
X336442333Y-178039714D01*
X336394714Y-177944476D01*
X336394714Y-177896857D01*
X336442333Y-177801619D01*
X336489952Y-177754000D01*
X336585190Y-177706380D01*
X336775666Y-177706380D01*
X336870904Y-177754000D01*
X336918523Y-177801619D01*
X336966142Y-177896857D01*
X336966142Y-177944476D01*
X336918523Y-178039714D01*
X336870904Y-178087333D01*
X336775666Y-178134952D01*
X336585190Y-178134952D01*
X336489952Y-178182571D01*
X336442333Y-178230190D01*
X336394714Y-178325428D01*
X336394714Y-178515904D01*
X336442333Y-178611142D01*
X336489952Y-178658761D01*
X336585190Y-178706380D01*
X336775666Y-178706380D01*
X336870904Y-178658761D01*
X336918523Y-178611142D01*
X336966142Y-178515904D01*
X336966142Y-178325428D01*
X336918523Y-178230190D01*
X336870904Y-178182571D01*
X336775666Y-178134952D01*
X337870904Y-177706380D02*
X337394714Y-177706380D01*
X337347095Y-178182571D01*
X337394714Y-178134952D01*
X337489952Y-178087333D01*
X337728047Y-178087333D01*
X337823285Y-178134952D01*
X337870904Y-178182571D01*
X337918523Y-178277809D01*
X337918523Y-178515904D01*
X337870904Y-178611142D01*
X337823285Y-178658761D01*
X337728047Y-178706380D01*
X337489952Y-178706380D01*
X337394714Y-178658761D01*
X337347095Y-178611142D01*
X307915476Y-178658761D02*
X308058333Y-178706380D01*
X308296428Y-178706380D01*
X308391666Y-178658761D01*
X308439285Y-178611142D01*
X308486904Y-178515904D01*
X308486904Y-178420666D01*
X308439285Y-178325428D01*
X308391666Y-178277809D01*
X308296428Y-178230190D01*
X308105952Y-178182571D01*
X308010714Y-178134952D01*
X307963095Y-178087333D01*
X307915476Y-177992095D01*
X307915476Y-177896857D01*
X307963095Y-177801619D01*
X308010714Y-177754000D01*
X308105952Y-177706380D01*
X308344047Y-177706380D01*
X308486904Y-177754000D01*
X308820238Y-177706380D02*
X309058333Y-178706380D01*
X309248809Y-177992095D01*
X309439285Y-178706380D01*
X309677380Y-177706380D01*
X310201190Y-178134952D02*
X310105952Y-178087333D01*
X310058333Y-178039714D01*
X310010714Y-177944476D01*
X310010714Y-177896857D01*
X310058333Y-177801619D01*
X310105952Y-177754000D01*
X310201190Y-177706380D01*
X310391666Y-177706380D01*
X310486904Y-177754000D01*
X310534523Y-177801619D01*
X310582142Y-177896857D01*
X310582142Y-177944476D01*
X310534523Y-178039714D01*
X310486904Y-178087333D01*
X310391666Y-178134952D01*
X310201190Y-178134952D01*
X310105952Y-178182571D01*
X310058333Y-178230190D01*
X310010714Y-178325428D01*
X310010714Y-178515904D01*
X310058333Y-178611142D01*
X310105952Y-178658761D01*
X310201190Y-178706380D01*
X310391666Y-178706380D01*
X310486904Y-178658761D01*
X310534523Y-178611142D01*
X310582142Y-178515904D01*
X310582142Y-178325428D01*
X310534523Y-178230190D01*
X310486904Y-178182571D01*
X310391666Y-178134952D01*
X311439285Y-178039714D02*
X311439285Y-178706380D01*
X311201190Y-177658761D02*
X310963095Y-178373047D01*
X311582142Y-178373047D01*
X284102476Y-178658761D02*
X284245333Y-178706380D01*
X284483428Y-178706380D01*
X284578666Y-178658761D01*
X284626285Y-178611142D01*
X284673904Y-178515904D01*
X284673904Y-178420666D01*
X284626285Y-178325428D01*
X284578666Y-178277809D01*
X284483428Y-178230190D01*
X284292952Y-178182571D01*
X284197714Y-178134952D01*
X284150095Y-178087333D01*
X284102476Y-177992095D01*
X284102476Y-177896857D01*
X284150095Y-177801619D01*
X284197714Y-177754000D01*
X284292952Y-177706380D01*
X284531047Y-177706380D01*
X284673904Y-177754000D01*
X285007238Y-177706380D02*
X285245333Y-178706380D01*
X285435809Y-177992095D01*
X285626285Y-178706380D01*
X285864380Y-177706380D01*
X286388190Y-178134952D02*
X286292952Y-178087333D01*
X286245333Y-178039714D01*
X286197714Y-177944476D01*
X286197714Y-177896857D01*
X286245333Y-177801619D01*
X286292952Y-177754000D01*
X286388190Y-177706380D01*
X286578666Y-177706380D01*
X286673904Y-177754000D01*
X286721523Y-177801619D01*
X286769142Y-177896857D01*
X286769142Y-177944476D01*
X286721523Y-178039714D01*
X286673904Y-178087333D01*
X286578666Y-178134952D01*
X286388190Y-178134952D01*
X286292952Y-178182571D01*
X286245333Y-178230190D01*
X286197714Y-178325428D01*
X286197714Y-178515904D01*
X286245333Y-178611142D01*
X286292952Y-178658761D01*
X286388190Y-178706380D01*
X286578666Y-178706380D01*
X286673904Y-178658761D01*
X286721523Y-178611142D01*
X286769142Y-178515904D01*
X286769142Y-178325428D01*
X286721523Y-178230190D01*
X286673904Y-178182571D01*
X286578666Y-178134952D01*
X287102476Y-177706380D02*
X287721523Y-177706380D01*
X287388190Y-178087333D01*
X287531047Y-178087333D01*
X287626285Y-178134952D01*
X287673904Y-178182571D01*
X287721523Y-178277809D01*
X287721523Y-178515904D01*
X287673904Y-178611142D01*
X287626285Y-178658761D01*
X287531047Y-178706380D01*
X287245333Y-178706380D01*
X287150095Y-178658761D01*
X287102476Y-178611142D01*
X260290476Y-178658761D02*
X260433333Y-178706380D01*
X260671428Y-178706380D01*
X260766666Y-178658761D01*
X260814285Y-178611142D01*
X260861904Y-178515904D01*
X260861904Y-178420666D01*
X260814285Y-178325428D01*
X260766666Y-178277809D01*
X260671428Y-178230190D01*
X260480952Y-178182571D01*
X260385714Y-178134952D01*
X260338095Y-178087333D01*
X260290476Y-177992095D01*
X260290476Y-177896857D01*
X260338095Y-177801619D01*
X260385714Y-177754000D01*
X260480952Y-177706380D01*
X260719047Y-177706380D01*
X260861904Y-177754000D01*
X261195238Y-177706380D02*
X261433333Y-178706380D01*
X261623809Y-177992095D01*
X261814285Y-178706380D01*
X262052380Y-177706380D01*
X262576190Y-178134952D02*
X262480952Y-178087333D01*
X262433333Y-178039714D01*
X262385714Y-177944476D01*
X262385714Y-177896857D01*
X262433333Y-177801619D01*
X262480952Y-177754000D01*
X262576190Y-177706380D01*
X262766666Y-177706380D01*
X262861904Y-177754000D01*
X262909523Y-177801619D01*
X262957142Y-177896857D01*
X262957142Y-177944476D01*
X262909523Y-178039714D01*
X262861904Y-178087333D01*
X262766666Y-178134952D01*
X262576190Y-178134952D01*
X262480952Y-178182571D01*
X262433333Y-178230190D01*
X262385714Y-178325428D01*
X262385714Y-178515904D01*
X262433333Y-178611142D01*
X262480952Y-178658761D01*
X262576190Y-178706380D01*
X262766666Y-178706380D01*
X262861904Y-178658761D01*
X262909523Y-178611142D01*
X262957142Y-178515904D01*
X262957142Y-178325428D01*
X262909523Y-178230190D01*
X262861904Y-178182571D01*
X262766666Y-178134952D01*
X263338095Y-177801619D02*
X263385714Y-177754000D01*
X263480952Y-177706380D01*
X263719047Y-177706380D01*
X263814285Y-177754000D01*
X263861904Y-177801619D01*
X263909523Y-177896857D01*
X263909523Y-177992095D01*
X263861904Y-178134952D01*
X263290476Y-178706380D01*
X263909523Y-178706380D01*
X236477476Y-178658761D02*
X236620333Y-178706380D01*
X236858428Y-178706380D01*
X236953666Y-178658761D01*
X237001285Y-178611142D01*
X237048904Y-178515904D01*
X237048904Y-178420666D01*
X237001285Y-178325428D01*
X236953666Y-178277809D01*
X236858428Y-178230190D01*
X236667952Y-178182571D01*
X236572714Y-178134952D01*
X236525095Y-178087333D01*
X236477476Y-177992095D01*
X236477476Y-177896857D01*
X236525095Y-177801619D01*
X236572714Y-177754000D01*
X236667952Y-177706380D01*
X236906047Y-177706380D01*
X237048904Y-177754000D01*
X237382238Y-177706380D02*
X237620333Y-178706380D01*
X237810809Y-177992095D01*
X238001285Y-178706380D01*
X238239380Y-177706380D01*
X238763190Y-178134952D02*
X238667952Y-178087333D01*
X238620333Y-178039714D01*
X238572714Y-177944476D01*
X238572714Y-177896857D01*
X238620333Y-177801619D01*
X238667952Y-177754000D01*
X238763190Y-177706380D01*
X238953666Y-177706380D01*
X239048904Y-177754000D01*
X239096523Y-177801619D01*
X239144142Y-177896857D01*
X239144142Y-177944476D01*
X239096523Y-178039714D01*
X239048904Y-178087333D01*
X238953666Y-178134952D01*
X238763190Y-178134952D01*
X238667952Y-178182571D01*
X238620333Y-178230190D01*
X238572714Y-178325428D01*
X238572714Y-178515904D01*
X238620333Y-178611142D01*
X238667952Y-178658761D01*
X238763190Y-178706380D01*
X238953666Y-178706380D01*
X239048904Y-178658761D01*
X239096523Y-178611142D01*
X239144142Y-178515904D01*
X239144142Y-178325428D01*
X239096523Y-178230190D01*
X239048904Y-178182571D01*
X238953666Y-178134952D01*
X240096523Y-178706380D02*
X239525095Y-178706380D01*
X239810809Y-178706380D02*
X239810809Y-177706380D01*
X239715571Y-177849238D01*
X239620333Y-177944476D01*
X239525095Y-177992095D01*
X165040476Y-178658761D02*
X165183333Y-178706380D01*
X165421428Y-178706380D01*
X165516666Y-178658761D01*
X165564285Y-178611142D01*
X165611904Y-178515904D01*
X165611904Y-178420666D01*
X165564285Y-178325428D01*
X165516666Y-178277809D01*
X165421428Y-178230190D01*
X165230952Y-178182571D01*
X165135714Y-178134952D01*
X165088095Y-178087333D01*
X165040476Y-177992095D01*
X165040476Y-177896857D01*
X165088095Y-177801619D01*
X165135714Y-177754000D01*
X165230952Y-177706380D01*
X165469047Y-177706380D01*
X165611904Y-177754000D01*
X165945238Y-177706380D02*
X166183333Y-178706380D01*
X166373809Y-177992095D01*
X166564285Y-178706380D01*
X166802380Y-177706380D01*
X167326190Y-178134952D02*
X167230952Y-178087333D01*
X167183333Y-178039714D01*
X167135714Y-177944476D01*
X167135714Y-177896857D01*
X167183333Y-177801619D01*
X167230952Y-177754000D01*
X167326190Y-177706380D01*
X167516666Y-177706380D01*
X167611904Y-177754000D01*
X167659523Y-177801619D01*
X167707142Y-177896857D01*
X167707142Y-177944476D01*
X167659523Y-178039714D01*
X167611904Y-178087333D01*
X167516666Y-178134952D01*
X167326190Y-178134952D01*
X167230952Y-178182571D01*
X167183333Y-178230190D01*
X167135714Y-178325428D01*
X167135714Y-178515904D01*
X167183333Y-178611142D01*
X167230952Y-178658761D01*
X167326190Y-178706380D01*
X167516666Y-178706380D01*
X167611904Y-178658761D01*
X167659523Y-178611142D01*
X167707142Y-178515904D01*
X167707142Y-178325428D01*
X167659523Y-178230190D01*
X167611904Y-178182571D01*
X167516666Y-178134952D01*
X168326190Y-177706380D02*
X168421428Y-177706380D01*
X168516666Y-177754000D01*
X168564285Y-177801619D01*
X168611904Y-177896857D01*
X168659523Y-178087333D01*
X168659523Y-178325428D01*
X168611904Y-178515904D01*
X168564285Y-178611142D01*
X168516666Y-178658761D01*
X168421428Y-178706380D01*
X168326190Y-178706380D01*
X168230952Y-178658761D01*
X168183333Y-178611142D01*
X168135714Y-178515904D01*
X168088095Y-178325428D01*
X168088095Y-178087333D01*
X168135714Y-177896857D01*
X168183333Y-177801619D01*
X168230952Y-177754000D01*
X168326190Y-177706380D01*
X93602676Y-178658761D02*
X93745533Y-178706380D01*
X93983628Y-178706380D01*
X94078866Y-178658761D01*
X94126485Y-178611142D01*
X94174104Y-178515904D01*
X94174104Y-178420666D01*
X94126485Y-178325428D01*
X94078866Y-178277809D01*
X93983628Y-178230190D01*
X93793152Y-178182571D01*
X93697914Y-178134952D01*
X93650295Y-178087333D01*
X93602676Y-177992095D01*
X93602676Y-177896857D01*
X93650295Y-177801619D01*
X93697914Y-177754000D01*
X93793152Y-177706380D01*
X94031247Y-177706380D01*
X94174104Y-177754000D01*
X94507438Y-177706380D02*
X94745533Y-178706380D01*
X94936009Y-177992095D01*
X95126485Y-178706380D01*
X95364580Y-177706380D01*
X95650295Y-177706380D02*
X96316961Y-177706380D01*
X95888390Y-178706380D01*
X96745533Y-178706380D02*
X96936009Y-178706380D01*
X97031247Y-178658761D01*
X97078866Y-178611142D01*
X97174104Y-178468285D01*
X97221723Y-178277809D01*
X97221723Y-177896857D01*
X97174104Y-177801619D01*
X97126485Y-177754000D01*
X97031247Y-177706380D01*
X96840771Y-177706380D01*
X96745533Y-177754000D01*
X96697914Y-177801619D01*
X96650295Y-177896857D01*
X96650295Y-178134952D01*
X96697914Y-178230190D01*
X96745533Y-178277809D01*
X96840771Y-178325428D01*
X97031247Y-178325428D01*
X97126485Y-178277809D01*
X97174104Y-178230190D01*
X97221723Y-178134952D01*
X69790276Y-178658761D02*
X69933133Y-178706380D01*
X70171228Y-178706380D01*
X70266466Y-178658761D01*
X70314085Y-178611142D01*
X70361704Y-178515904D01*
X70361704Y-178420666D01*
X70314085Y-178325428D01*
X70266466Y-178277809D01*
X70171228Y-178230190D01*
X69980752Y-178182571D01*
X69885514Y-178134952D01*
X69837895Y-178087333D01*
X69790276Y-177992095D01*
X69790276Y-177896857D01*
X69837895Y-177801619D01*
X69885514Y-177754000D01*
X69980752Y-177706380D01*
X70218847Y-177706380D01*
X70361704Y-177754000D01*
X70695038Y-177706380D02*
X70933133Y-178706380D01*
X71123609Y-177992095D01*
X71314085Y-178706380D01*
X71552180Y-177706380D01*
X71837895Y-177706380D02*
X72504561Y-177706380D01*
X72075990Y-178706380D01*
X73028371Y-178134952D02*
X72933133Y-178087333D01*
X72885514Y-178039714D01*
X72837895Y-177944476D01*
X72837895Y-177896857D01*
X72885514Y-177801619D01*
X72933133Y-177754000D01*
X73028371Y-177706380D01*
X73218847Y-177706380D01*
X73314085Y-177754000D01*
X73361704Y-177801619D01*
X73409323Y-177896857D01*
X73409323Y-177944476D01*
X73361704Y-178039714D01*
X73314085Y-178087333D01*
X73218847Y-178134952D01*
X73028371Y-178134952D01*
X72933133Y-178182571D01*
X72885514Y-178230190D01*
X72837895Y-178325428D01*
X72837895Y-178515904D01*
X72885514Y-178611142D01*
X72933133Y-178658761D01*
X73028371Y-178706380D01*
X73218847Y-178706380D01*
X73314085Y-178658761D01*
X73361704Y-178611142D01*
X73409323Y-178515904D01*
X73409323Y-178325428D01*
X73361704Y-178230190D01*
X73314085Y-178182571D01*
X73218847Y-178134952D01*
X45977676Y-178658761D02*
X46120533Y-178706380D01*
X46358628Y-178706380D01*
X46453866Y-178658761D01*
X46501485Y-178611142D01*
X46549104Y-178515904D01*
X46549104Y-178420666D01*
X46501485Y-178325428D01*
X46453866Y-178277809D01*
X46358628Y-178230190D01*
X46168152Y-178182571D01*
X46072914Y-178134952D01*
X46025295Y-178087333D01*
X45977676Y-177992095D01*
X45977676Y-177896857D01*
X46025295Y-177801619D01*
X46072914Y-177754000D01*
X46168152Y-177706380D01*
X46406247Y-177706380D01*
X46549104Y-177754000D01*
X46882438Y-177706380D02*
X47120533Y-178706380D01*
X47311009Y-177992095D01*
X47501485Y-178706380D01*
X47739580Y-177706380D01*
X48025295Y-177706380D02*
X48691961Y-177706380D01*
X48263390Y-178706380D01*
X48977676Y-177706380D02*
X49644342Y-177706380D01*
X49215771Y-178706380D01*
X353349476Y-159608761D02*
X353492333Y-159656380D01*
X353730428Y-159656380D01*
X353825666Y-159608761D01*
X353873285Y-159561142D01*
X353920904Y-159465904D01*
X353920904Y-159370666D01*
X353873285Y-159275428D01*
X353825666Y-159227809D01*
X353730428Y-159180190D01*
X353539952Y-159132571D01*
X353444714Y-159084952D01*
X353397095Y-159037333D01*
X353349476Y-158942095D01*
X353349476Y-158846857D01*
X353397095Y-158751619D01*
X353444714Y-158704000D01*
X353539952Y-158656380D01*
X353778047Y-158656380D01*
X353920904Y-158704000D01*
X354254238Y-158656380D02*
X354492333Y-159656380D01*
X354682809Y-158942095D01*
X354873285Y-159656380D01*
X355111380Y-158656380D01*
X355397095Y-158656380D02*
X356063761Y-158656380D01*
X355635190Y-159656380D01*
X356873285Y-158656380D02*
X356682809Y-158656380D01*
X356587571Y-158704000D01*
X356539952Y-158751619D01*
X356444714Y-158894476D01*
X356397095Y-159084952D01*
X356397095Y-159465904D01*
X356444714Y-159561142D01*
X356492333Y-159608761D01*
X356587571Y-159656380D01*
X356778047Y-159656380D01*
X356873285Y-159608761D01*
X356920904Y-159561142D01*
X356968523Y-159465904D01*
X356968523Y-159227809D01*
X356920904Y-159132571D01*
X356873285Y-159084952D01*
X356778047Y-159037333D01*
X356587571Y-159037333D01*
X356492333Y-159084952D01*
X356444714Y-159132571D01*
X356397095Y-159227809D01*
X293628476Y-159608761D02*
X293771333Y-159656380D01*
X294009428Y-159656380D01*
X294104666Y-159608761D01*
X294152285Y-159561142D01*
X294199904Y-159465904D01*
X294199904Y-159370666D01*
X294152285Y-159275428D01*
X294104666Y-159227809D01*
X294009428Y-159180190D01*
X293818952Y-159132571D01*
X293723714Y-159084952D01*
X293676095Y-159037333D01*
X293628476Y-158942095D01*
X293628476Y-158846857D01*
X293676095Y-158751619D01*
X293723714Y-158704000D01*
X293818952Y-158656380D01*
X294057047Y-158656380D01*
X294199904Y-158704000D01*
X294533238Y-158656380D02*
X294771333Y-159656380D01*
X294961809Y-158942095D01*
X295152285Y-159656380D01*
X295390380Y-158656380D01*
X295676095Y-158656380D02*
X296342761Y-158656380D01*
X295914190Y-159656380D01*
X297199904Y-158656380D02*
X296723714Y-158656380D01*
X296676095Y-159132571D01*
X296723714Y-159084952D01*
X296818952Y-159037333D01*
X297057047Y-159037333D01*
X297152285Y-159084952D01*
X297199904Y-159132571D01*
X297247523Y-159227809D01*
X297247523Y-159465904D01*
X297199904Y-159561142D01*
X297152285Y-159608761D01*
X297057047Y-159656380D01*
X296818952Y-159656380D01*
X296723714Y-159608761D01*
X296676095Y-159561142D01*
X257909476Y-159608761D02*
X258052333Y-159656380D01*
X258290428Y-159656380D01*
X258385666Y-159608761D01*
X258433285Y-159561142D01*
X258480904Y-159465904D01*
X258480904Y-159370666D01*
X258433285Y-159275428D01*
X258385666Y-159227809D01*
X258290428Y-159180190D01*
X258099952Y-159132571D01*
X258004714Y-159084952D01*
X257957095Y-159037333D01*
X257909476Y-158942095D01*
X257909476Y-158846857D01*
X257957095Y-158751619D01*
X258004714Y-158704000D01*
X258099952Y-158656380D01*
X258338047Y-158656380D01*
X258480904Y-158704000D01*
X258814238Y-158656380D02*
X259052333Y-159656380D01*
X259242809Y-158942095D01*
X259433285Y-159656380D01*
X259671380Y-158656380D01*
X259957095Y-158656380D02*
X260623761Y-158656380D01*
X260195190Y-159656380D01*
X261433285Y-158989714D02*
X261433285Y-159656380D01*
X261195190Y-158608761D02*
X260957095Y-159323047D01*
X261576142Y-159323047D01*
X238859476Y-159608761D02*
X239002333Y-159656380D01*
X239240428Y-159656380D01*
X239335666Y-159608761D01*
X239383285Y-159561142D01*
X239430904Y-159465904D01*
X239430904Y-159370666D01*
X239383285Y-159275428D01*
X239335666Y-159227809D01*
X239240428Y-159180190D01*
X239049952Y-159132571D01*
X238954714Y-159084952D01*
X238907095Y-159037333D01*
X238859476Y-158942095D01*
X238859476Y-158846857D01*
X238907095Y-158751619D01*
X238954714Y-158704000D01*
X239049952Y-158656380D01*
X239288047Y-158656380D01*
X239430904Y-158704000D01*
X239764238Y-158656380D02*
X240002333Y-159656380D01*
X240192809Y-158942095D01*
X240383285Y-159656380D01*
X240621380Y-158656380D01*
X240907095Y-158656380D02*
X241573761Y-158656380D01*
X241145190Y-159656380D01*
X241859476Y-158656380D02*
X242478523Y-158656380D01*
X242145190Y-159037333D01*
X242288047Y-159037333D01*
X242383285Y-159084952D01*
X242430904Y-159132571D01*
X242478523Y-159227809D01*
X242478523Y-159465904D01*
X242430904Y-159561142D01*
X242383285Y-159608761D01*
X242288047Y-159656380D01*
X242002333Y-159656380D01*
X241907095Y-159608761D01*
X241859476Y-159561142D01*
X219809476Y-159608761D02*
X219952333Y-159656380D01*
X220190428Y-159656380D01*
X220285666Y-159608761D01*
X220333285Y-159561142D01*
X220380904Y-159465904D01*
X220380904Y-159370666D01*
X220333285Y-159275428D01*
X220285666Y-159227809D01*
X220190428Y-159180190D01*
X219999952Y-159132571D01*
X219904714Y-159084952D01*
X219857095Y-159037333D01*
X219809476Y-158942095D01*
X219809476Y-158846857D01*
X219857095Y-158751619D01*
X219904714Y-158704000D01*
X219999952Y-158656380D01*
X220238047Y-158656380D01*
X220380904Y-158704000D01*
X220714238Y-158656380D02*
X220952333Y-159656380D01*
X221142809Y-158942095D01*
X221333285Y-159656380D01*
X221571380Y-158656380D01*
X221857095Y-158656380D02*
X222523761Y-158656380D01*
X222095190Y-159656380D01*
X222857095Y-158751619D02*
X222904714Y-158704000D01*
X222999952Y-158656380D01*
X223238047Y-158656380D01*
X223333285Y-158704000D01*
X223380904Y-158751619D01*
X223428523Y-158846857D01*
X223428523Y-158942095D01*
X223380904Y-159084952D01*
X222809476Y-159656380D01*
X223428523Y-159656380D01*
X200759476Y-159608761D02*
X200902333Y-159656380D01*
X201140428Y-159656380D01*
X201235666Y-159608761D01*
X201283285Y-159561142D01*
X201330904Y-159465904D01*
X201330904Y-159370666D01*
X201283285Y-159275428D01*
X201235666Y-159227809D01*
X201140428Y-159180190D01*
X200949952Y-159132571D01*
X200854714Y-159084952D01*
X200807095Y-159037333D01*
X200759476Y-158942095D01*
X200759476Y-158846857D01*
X200807095Y-158751619D01*
X200854714Y-158704000D01*
X200949952Y-158656380D01*
X201188047Y-158656380D01*
X201330904Y-158704000D01*
X201664238Y-158656380D02*
X201902333Y-159656380D01*
X202092809Y-158942095D01*
X202283285Y-159656380D01*
X202521380Y-158656380D01*
X202807095Y-158656380D02*
X203473761Y-158656380D01*
X203045190Y-159656380D01*
X204378523Y-159656380D02*
X203807095Y-159656380D01*
X204092809Y-159656380D02*
X204092809Y-158656380D01*
X203997571Y-158799238D01*
X203902333Y-158894476D01*
X203807095Y-158942095D01*
X181709476Y-159608761D02*
X181852333Y-159656380D01*
X182090428Y-159656380D01*
X182185666Y-159608761D01*
X182233285Y-159561142D01*
X182280904Y-159465904D01*
X182280904Y-159370666D01*
X182233285Y-159275428D01*
X182185666Y-159227809D01*
X182090428Y-159180190D01*
X181899952Y-159132571D01*
X181804714Y-159084952D01*
X181757095Y-159037333D01*
X181709476Y-158942095D01*
X181709476Y-158846857D01*
X181757095Y-158751619D01*
X181804714Y-158704000D01*
X181899952Y-158656380D01*
X182138047Y-158656380D01*
X182280904Y-158704000D01*
X182614238Y-158656380D02*
X182852333Y-159656380D01*
X183042809Y-158942095D01*
X183233285Y-159656380D01*
X183471380Y-158656380D01*
X183757095Y-158656380D02*
X184423761Y-158656380D01*
X183995190Y-159656380D01*
X184995190Y-158656380D02*
X185090428Y-158656380D01*
X185185666Y-158704000D01*
X185233285Y-158751619D01*
X185280904Y-158846857D01*
X185328523Y-159037333D01*
X185328523Y-159275428D01*
X185280904Y-159465904D01*
X185233285Y-159561142D01*
X185185666Y-159608761D01*
X185090428Y-159656380D01*
X184995190Y-159656380D01*
X184899952Y-159608761D01*
X184852333Y-159561142D01*
X184804714Y-159465904D01*
X184757095Y-159275428D01*
X184757095Y-159037333D01*
X184804714Y-158846857D01*
X184852333Y-158751619D01*
X184899952Y-158704000D01*
X184995190Y-158656380D01*
X162659476Y-159608761D02*
X162802333Y-159656380D01*
X163040428Y-159656380D01*
X163135666Y-159608761D01*
X163183285Y-159561142D01*
X163230904Y-159465904D01*
X163230904Y-159370666D01*
X163183285Y-159275428D01*
X163135666Y-159227809D01*
X163040428Y-159180190D01*
X162849952Y-159132571D01*
X162754714Y-159084952D01*
X162707095Y-159037333D01*
X162659476Y-158942095D01*
X162659476Y-158846857D01*
X162707095Y-158751619D01*
X162754714Y-158704000D01*
X162849952Y-158656380D01*
X163088047Y-158656380D01*
X163230904Y-158704000D01*
X163564238Y-158656380D02*
X163802333Y-159656380D01*
X163992809Y-158942095D01*
X164183285Y-159656380D01*
X164421380Y-158656380D01*
X165230904Y-158656380D02*
X165040428Y-158656380D01*
X164945190Y-158704000D01*
X164897571Y-158751619D01*
X164802333Y-158894476D01*
X164754714Y-159084952D01*
X164754714Y-159465904D01*
X164802333Y-159561142D01*
X164849952Y-159608761D01*
X164945190Y-159656380D01*
X165135666Y-159656380D01*
X165230904Y-159608761D01*
X165278523Y-159561142D01*
X165326142Y-159465904D01*
X165326142Y-159227809D01*
X165278523Y-159132571D01*
X165230904Y-159084952D01*
X165135666Y-159037333D01*
X164945190Y-159037333D01*
X164849952Y-159084952D01*
X164802333Y-159132571D01*
X164754714Y-159227809D01*
X165802333Y-159656380D02*
X165992809Y-159656380D01*
X166088047Y-159608761D01*
X166135666Y-159561142D01*
X166230904Y-159418285D01*
X166278523Y-159227809D01*
X166278523Y-158846857D01*
X166230904Y-158751619D01*
X166183285Y-158704000D01*
X166088047Y-158656380D01*
X165897571Y-158656380D01*
X165802333Y-158704000D01*
X165754714Y-158751619D01*
X165707095Y-158846857D01*
X165707095Y-159084952D01*
X165754714Y-159180190D01*
X165802333Y-159227809D01*
X165897571Y-159275428D01*
X166088047Y-159275428D01*
X166183285Y-159227809D01*
X166230904Y-159180190D01*
X166278523Y-159084952D01*
X143609476Y-159608761D02*
X143752333Y-159656380D01*
X143990428Y-159656380D01*
X144085666Y-159608761D01*
X144133285Y-159561142D01*
X144180904Y-159465904D01*
X144180904Y-159370666D01*
X144133285Y-159275428D01*
X144085666Y-159227809D01*
X143990428Y-159180190D01*
X143799952Y-159132571D01*
X143704714Y-159084952D01*
X143657095Y-159037333D01*
X143609476Y-158942095D01*
X143609476Y-158846857D01*
X143657095Y-158751619D01*
X143704714Y-158704000D01*
X143799952Y-158656380D01*
X144038047Y-158656380D01*
X144180904Y-158704000D01*
X144514238Y-158656380D02*
X144752333Y-159656380D01*
X144942809Y-158942095D01*
X145133285Y-159656380D01*
X145371380Y-158656380D01*
X146180904Y-158656380D02*
X145990428Y-158656380D01*
X145895190Y-158704000D01*
X145847571Y-158751619D01*
X145752333Y-158894476D01*
X145704714Y-159084952D01*
X145704714Y-159465904D01*
X145752333Y-159561142D01*
X145799952Y-159608761D01*
X145895190Y-159656380D01*
X146085666Y-159656380D01*
X146180904Y-159608761D01*
X146228523Y-159561142D01*
X146276142Y-159465904D01*
X146276142Y-159227809D01*
X146228523Y-159132571D01*
X146180904Y-159084952D01*
X146085666Y-159037333D01*
X145895190Y-159037333D01*
X145799952Y-159084952D01*
X145752333Y-159132571D01*
X145704714Y-159227809D01*
X146847571Y-159084952D02*
X146752333Y-159037333D01*
X146704714Y-158989714D01*
X146657095Y-158894476D01*
X146657095Y-158846857D01*
X146704714Y-158751619D01*
X146752333Y-158704000D01*
X146847571Y-158656380D01*
X147038047Y-158656380D01*
X147133285Y-158704000D01*
X147180904Y-158751619D01*
X147228523Y-158846857D01*
X147228523Y-158894476D01*
X147180904Y-158989714D01*
X147133285Y-159037333D01*
X147038047Y-159084952D01*
X146847571Y-159084952D01*
X146752333Y-159132571D01*
X146704714Y-159180190D01*
X146657095Y-159275428D01*
X146657095Y-159465904D01*
X146704714Y-159561142D01*
X146752333Y-159608761D01*
X146847571Y-159656380D01*
X147038047Y-159656380D01*
X147133285Y-159608761D01*
X147180904Y-159561142D01*
X147228523Y-159465904D01*
X147228523Y-159275428D01*
X147180904Y-159180190D01*
X147133285Y-159132571D01*
X147038047Y-159084952D01*
X124559476Y-159608761D02*
X124702333Y-159656380D01*
X124940428Y-159656380D01*
X125035666Y-159608761D01*
X125083285Y-159561142D01*
X125130904Y-159465904D01*
X125130904Y-159370666D01*
X125083285Y-159275428D01*
X125035666Y-159227809D01*
X124940428Y-159180190D01*
X124749952Y-159132571D01*
X124654714Y-159084952D01*
X124607095Y-159037333D01*
X124559476Y-158942095D01*
X124559476Y-158846857D01*
X124607095Y-158751619D01*
X124654714Y-158704000D01*
X124749952Y-158656380D01*
X124988047Y-158656380D01*
X125130904Y-158704000D01*
X125464238Y-158656380D02*
X125702333Y-159656380D01*
X125892809Y-158942095D01*
X126083285Y-159656380D01*
X126321380Y-158656380D01*
X127130904Y-158656380D02*
X126940428Y-158656380D01*
X126845190Y-158704000D01*
X126797571Y-158751619D01*
X126702333Y-158894476D01*
X126654714Y-159084952D01*
X126654714Y-159465904D01*
X126702333Y-159561142D01*
X126749952Y-159608761D01*
X126845190Y-159656380D01*
X127035666Y-159656380D01*
X127130904Y-159608761D01*
X127178523Y-159561142D01*
X127226142Y-159465904D01*
X127226142Y-159227809D01*
X127178523Y-159132571D01*
X127130904Y-159084952D01*
X127035666Y-159037333D01*
X126845190Y-159037333D01*
X126749952Y-159084952D01*
X126702333Y-159132571D01*
X126654714Y-159227809D01*
X127559476Y-158656380D02*
X128226142Y-158656380D01*
X127797571Y-159656380D01*
X105509476Y-159608761D02*
X105652333Y-159656380D01*
X105890428Y-159656380D01*
X105985666Y-159608761D01*
X106033285Y-159561142D01*
X106080904Y-159465904D01*
X106080904Y-159370666D01*
X106033285Y-159275428D01*
X105985666Y-159227809D01*
X105890428Y-159180190D01*
X105699952Y-159132571D01*
X105604714Y-159084952D01*
X105557095Y-159037333D01*
X105509476Y-158942095D01*
X105509476Y-158846857D01*
X105557095Y-158751619D01*
X105604714Y-158704000D01*
X105699952Y-158656380D01*
X105938047Y-158656380D01*
X106080904Y-158704000D01*
X106414238Y-158656380D02*
X106652333Y-159656380D01*
X106842809Y-158942095D01*
X107033285Y-159656380D01*
X107271380Y-158656380D01*
X108080904Y-158656380D02*
X107890428Y-158656380D01*
X107795190Y-158704000D01*
X107747571Y-158751619D01*
X107652333Y-158894476D01*
X107604714Y-159084952D01*
X107604714Y-159465904D01*
X107652333Y-159561142D01*
X107699952Y-159608761D01*
X107795190Y-159656380D01*
X107985666Y-159656380D01*
X108080904Y-159608761D01*
X108128523Y-159561142D01*
X108176142Y-159465904D01*
X108176142Y-159227809D01*
X108128523Y-159132571D01*
X108080904Y-159084952D01*
X107985666Y-159037333D01*
X107795190Y-159037333D01*
X107699952Y-159084952D01*
X107652333Y-159132571D01*
X107604714Y-159227809D01*
X109033285Y-158656380D02*
X108842809Y-158656380D01*
X108747571Y-158704000D01*
X108699952Y-158751619D01*
X108604714Y-158894476D01*
X108557095Y-159084952D01*
X108557095Y-159465904D01*
X108604714Y-159561142D01*
X108652333Y-159608761D01*
X108747571Y-159656380D01*
X108938047Y-159656380D01*
X109033285Y-159608761D01*
X109080904Y-159561142D01*
X109128523Y-159465904D01*
X109128523Y-159227809D01*
X109080904Y-159132571D01*
X109033285Y-159084952D01*
X108938047Y-159037333D01*
X108747571Y-159037333D01*
X108652333Y-159084952D01*
X108604714Y-159132571D01*
X108557095Y-159227809D01*
X86459276Y-159608761D02*
X86602133Y-159656380D01*
X86840228Y-159656380D01*
X86935466Y-159608761D01*
X86983085Y-159561142D01*
X87030704Y-159465904D01*
X87030704Y-159370666D01*
X86983085Y-159275428D01*
X86935466Y-159227809D01*
X86840228Y-159180190D01*
X86649752Y-159132571D01*
X86554514Y-159084952D01*
X86506895Y-159037333D01*
X86459276Y-158942095D01*
X86459276Y-158846857D01*
X86506895Y-158751619D01*
X86554514Y-158704000D01*
X86649752Y-158656380D01*
X86887847Y-158656380D01*
X87030704Y-158704000D01*
X87364038Y-158656380D02*
X87602133Y-159656380D01*
X87792609Y-158942095D01*
X87983085Y-159656380D01*
X88221180Y-158656380D01*
X89030704Y-158656380D02*
X88840228Y-158656380D01*
X88744990Y-158704000D01*
X88697371Y-158751619D01*
X88602133Y-158894476D01*
X88554514Y-159084952D01*
X88554514Y-159465904D01*
X88602133Y-159561142D01*
X88649752Y-159608761D01*
X88744990Y-159656380D01*
X88935466Y-159656380D01*
X89030704Y-159608761D01*
X89078323Y-159561142D01*
X89125942Y-159465904D01*
X89125942Y-159227809D01*
X89078323Y-159132571D01*
X89030704Y-159084952D01*
X88935466Y-159037333D01*
X88744990Y-159037333D01*
X88649752Y-159084952D01*
X88602133Y-159132571D01*
X88554514Y-159227809D01*
X90030704Y-158656380D02*
X89554514Y-158656380D01*
X89506895Y-159132571D01*
X89554514Y-159084952D01*
X89649752Y-159037333D01*
X89887847Y-159037333D01*
X89983085Y-159084952D01*
X90030704Y-159132571D01*
X90078323Y-159227809D01*
X90078323Y-159465904D01*
X90030704Y-159561142D01*
X89983085Y-159608761D01*
X89887847Y-159656380D01*
X89649752Y-159656380D01*
X89554514Y-159608761D01*
X89506895Y-159561142D01*
X55577276Y-159608761D02*
X55720133Y-159656380D01*
X55958228Y-159656380D01*
X56053466Y-159608761D01*
X56101085Y-159561142D01*
X56148704Y-159465904D01*
X56148704Y-159370666D01*
X56101085Y-159275428D01*
X56053466Y-159227809D01*
X55958228Y-159180190D01*
X55767752Y-159132571D01*
X55672514Y-159084952D01*
X55624895Y-159037333D01*
X55577276Y-158942095D01*
X55577276Y-158846857D01*
X55624895Y-158751619D01*
X55672514Y-158704000D01*
X55767752Y-158656380D01*
X56005847Y-158656380D01*
X56148704Y-158704000D01*
X56482038Y-158656380D02*
X56720133Y-159656380D01*
X56910609Y-158942095D01*
X57101085Y-159656380D01*
X57339180Y-158656380D01*
X58148704Y-158656380D02*
X57958228Y-158656380D01*
X57862990Y-158704000D01*
X57815371Y-158751619D01*
X57720133Y-158894476D01*
X57672514Y-159084952D01*
X57672514Y-159465904D01*
X57720133Y-159561142D01*
X57767752Y-159608761D01*
X57862990Y-159656380D01*
X58053466Y-159656380D01*
X58148704Y-159608761D01*
X58196323Y-159561142D01*
X58243942Y-159465904D01*
X58243942Y-159227809D01*
X58196323Y-159132571D01*
X58148704Y-159084952D01*
X58053466Y-159037333D01*
X57862990Y-159037333D01*
X57767752Y-159084952D01*
X57720133Y-159132571D01*
X57672514Y-159227809D01*
X59101085Y-158989714D02*
X59101085Y-159656380D01*
X58862990Y-158608761D02*
X58624895Y-159323047D01*
X59243942Y-159323047D01*
X298464476Y-140558761D02*
X298607333Y-140606380D01*
X298845428Y-140606380D01*
X298940666Y-140558761D01*
X298988285Y-140511142D01*
X299035904Y-140415904D01*
X299035904Y-140320666D01*
X298988285Y-140225428D01*
X298940666Y-140177809D01*
X298845428Y-140130190D01*
X298654952Y-140082571D01*
X298559714Y-140034952D01*
X298512095Y-139987333D01*
X298464476Y-139892095D01*
X298464476Y-139796857D01*
X298512095Y-139701619D01*
X298559714Y-139654000D01*
X298654952Y-139606380D01*
X298893047Y-139606380D01*
X299035904Y-139654000D01*
X299369238Y-139606380D02*
X299607333Y-140606380D01*
X299797809Y-139892095D01*
X299988285Y-140606380D01*
X300226380Y-139606380D01*
X301035904Y-139606380D02*
X300845428Y-139606380D01*
X300750190Y-139654000D01*
X300702571Y-139701619D01*
X300607333Y-139844476D01*
X300559714Y-140034952D01*
X300559714Y-140415904D01*
X300607333Y-140511142D01*
X300654952Y-140558761D01*
X300750190Y-140606380D01*
X300940666Y-140606380D01*
X301035904Y-140558761D01*
X301083523Y-140511142D01*
X301131142Y-140415904D01*
X301131142Y-140177809D01*
X301083523Y-140082571D01*
X301035904Y-140034952D01*
X300940666Y-139987333D01*
X300750190Y-139987333D01*
X300654952Y-140034952D01*
X300607333Y-140082571D01*
X300559714Y-140177809D01*
X301464476Y-139606380D02*
X302083523Y-139606380D01*
X301750190Y-139987333D01*
X301893047Y-139987333D01*
X301988285Y-140034952D01*
X302035904Y-140082571D01*
X302083523Y-140177809D01*
X302083523Y-140415904D01*
X302035904Y-140511142D01*
X301988285Y-140558761D01*
X301893047Y-140606380D01*
X301607333Y-140606380D01*
X301512095Y-140558761D01*
X301464476Y-140511142D01*
X267434476Y-140558761D02*
X267577333Y-140606380D01*
X267815428Y-140606380D01*
X267910666Y-140558761D01*
X267958285Y-140511142D01*
X268005904Y-140415904D01*
X268005904Y-140320666D01*
X267958285Y-140225428D01*
X267910666Y-140177809D01*
X267815428Y-140130190D01*
X267624952Y-140082571D01*
X267529714Y-140034952D01*
X267482095Y-139987333D01*
X267434476Y-139892095D01*
X267434476Y-139796857D01*
X267482095Y-139701619D01*
X267529714Y-139654000D01*
X267624952Y-139606380D01*
X267863047Y-139606380D01*
X268005904Y-139654000D01*
X268339238Y-139606380D02*
X268577333Y-140606380D01*
X268767809Y-139892095D01*
X268958285Y-140606380D01*
X269196380Y-139606380D01*
X270005904Y-139606380D02*
X269815428Y-139606380D01*
X269720190Y-139654000D01*
X269672571Y-139701619D01*
X269577333Y-139844476D01*
X269529714Y-140034952D01*
X269529714Y-140415904D01*
X269577333Y-140511142D01*
X269624952Y-140558761D01*
X269720190Y-140606380D01*
X269910666Y-140606380D01*
X270005904Y-140558761D01*
X270053523Y-140511142D01*
X270101142Y-140415904D01*
X270101142Y-140177809D01*
X270053523Y-140082571D01*
X270005904Y-140034952D01*
X269910666Y-139987333D01*
X269720190Y-139987333D01*
X269624952Y-140034952D01*
X269577333Y-140082571D01*
X269529714Y-140177809D01*
X270482095Y-139701619D02*
X270529714Y-139654000D01*
X270624952Y-139606380D01*
X270863047Y-139606380D01*
X270958285Y-139654000D01*
X271005904Y-139701619D01*
X271053523Y-139796857D01*
X271053523Y-139892095D01*
X271005904Y-140034952D01*
X270434476Y-140606380D01*
X271053523Y-140606380D01*
X248384476Y-140558761D02*
X248527333Y-140606380D01*
X248765428Y-140606380D01*
X248860666Y-140558761D01*
X248908285Y-140511142D01*
X248955904Y-140415904D01*
X248955904Y-140320666D01*
X248908285Y-140225428D01*
X248860666Y-140177809D01*
X248765428Y-140130190D01*
X248574952Y-140082571D01*
X248479714Y-140034952D01*
X248432095Y-139987333D01*
X248384476Y-139892095D01*
X248384476Y-139796857D01*
X248432095Y-139701619D01*
X248479714Y-139654000D01*
X248574952Y-139606380D01*
X248813047Y-139606380D01*
X248955904Y-139654000D01*
X249289238Y-139606380D02*
X249527333Y-140606380D01*
X249717809Y-139892095D01*
X249908285Y-140606380D01*
X250146380Y-139606380D01*
X250955904Y-139606380D02*
X250765428Y-139606380D01*
X250670190Y-139654000D01*
X250622571Y-139701619D01*
X250527333Y-139844476D01*
X250479714Y-140034952D01*
X250479714Y-140415904D01*
X250527333Y-140511142D01*
X250574952Y-140558761D01*
X250670190Y-140606380D01*
X250860666Y-140606380D01*
X250955904Y-140558761D01*
X251003523Y-140511142D01*
X251051142Y-140415904D01*
X251051142Y-140177809D01*
X251003523Y-140082571D01*
X250955904Y-140034952D01*
X250860666Y-139987333D01*
X250670190Y-139987333D01*
X250574952Y-140034952D01*
X250527333Y-140082571D01*
X250479714Y-140177809D01*
X252003523Y-140606380D02*
X251432095Y-140606380D01*
X251717809Y-140606380D02*
X251717809Y-139606380D01*
X251622571Y-139749238D01*
X251527333Y-139844476D01*
X251432095Y-139892095D01*
X229334476Y-140558761D02*
X229477333Y-140606380D01*
X229715428Y-140606380D01*
X229810666Y-140558761D01*
X229858285Y-140511142D01*
X229905904Y-140415904D01*
X229905904Y-140320666D01*
X229858285Y-140225428D01*
X229810666Y-140177809D01*
X229715428Y-140130190D01*
X229524952Y-140082571D01*
X229429714Y-140034952D01*
X229382095Y-139987333D01*
X229334476Y-139892095D01*
X229334476Y-139796857D01*
X229382095Y-139701619D01*
X229429714Y-139654000D01*
X229524952Y-139606380D01*
X229763047Y-139606380D01*
X229905904Y-139654000D01*
X230239238Y-139606380D02*
X230477333Y-140606380D01*
X230667809Y-139892095D01*
X230858285Y-140606380D01*
X231096380Y-139606380D01*
X231905904Y-139606380D02*
X231715428Y-139606380D01*
X231620190Y-139654000D01*
X231572571Y-139701619D01*
X231477333Y-139844476D01*
X231429714Y-140034952D01*
X231429714Y-140415904D01*
X231477333Y-140511142D01*
X231524952Y-140558761D01*
X231620190Y-140606380D01*
X231810666Y-140606380D01*
X231905904Y-140558761D01*
X231953523Y-140511142D01*
X232001142Y-140415904D01*
X232001142Y-140177809D01*
X231953523Y-140082571D01*
X231905904Y-140034952D01*
X231810666Y-139987333D01*
X231620190Y-139987333D01*
X231524952Y-140034952D01*
X231477333Y-140082571D01*
X231429714Y-140177809D01*
X232620190Y-139606380D02*
X232715428Y-139606380D01*
X232810666Y-139654000D01*
X232858285Y-139701619D01*
X232905904Y-139796857D01*
X232953523Y-139987333D01*
X232953523Y-140225428D01*
X232905904Y-140415904D01*
X232858285Y-140511142D01*
X232810666Y-140558761D01*
X232715428Y-140606380D01*
X232620190Y-140606380D01*
X232524952Y-140558761D01*
X232477333Y-140511142D01*
X232429714Y-140415904D01*
X232382095Y-140225428D01*
X232382095Y-139987333D01*
X232429714Y-139796857D01*
X232477333Y-139701619D01*
X232524952Y-139654000D01*
X232620190Y-139606380D01*
X210284476Y-140558761D02*
X210427333Y-140606380D01*
X210665428Y-140606380D01*
X210760666Y-140558761D01*
X210808285Y-140511142D01*
X210855904Y-140415904D01*
X210855904Y-140320666D01*
X210808285Y-140225428D01*
X210760666Y-140177809D01*
X210665428Y-140130190D01*
X210474952Y-140082571D01*
X210379714Y-140034952D01*
X210332095Y-139987333D01*
X210284476Y-139892095D01*
X210284476Y-139796857D01*
X210332095Y-139701619D01*
X210379714Y-139654000D01*
X210474952Y-139606380D01*
X210713047Y-139606380D01*
X210855904Y-139654000D01*
X211189238Y-139606380D02*
X211427333Y-140606380D01*
X211617809Y-139892095D01*
X211808285Y-140606380D01*
X212046380Y-139606380D01*
X212903523Y-139606380D02*
X212427333Y-139606380D01*
X212379714Y-140082571D01*
X212427333Y-140034952D01*
X212522571Y-139987333D01*
X212760666Y-139987333D01*
X212855904Y-140034952D01*
X212903523Y-140082571D01*
X212951142Y-140177809D01*
X212951142Y-140415904D01*
X212903523Y-140511142D01*
X212855904Y-140558761D01*
X212760666Y-140606380D01*
X212522571Y-140606380D01*
X212427333Y-140558761D01*
X212379714Y-140511142D01*
X213427333Y-140606380D02*
X213617809Y-140606380D01*
X213713047Y-140558761D01*
X213760666Y-140511142D01*
X213855904Y-140368285D01*
X213903523Y-140177809D01*
X213903523Y-139796857D01*
X213855904Y-139701619D01*
X213808285Y-139654000D01*
X213713047Y-139606380D01*
X213522571Y-139606380D01*
X213427333Y-139654000D01*
X213379714Y-139701619D01*
X213332095Y-139796857D01*
X213332095Y-140034952D01*
X213379714Y-140130190D01*
X213427333Y-140177809D01*
X213522571Y-140225428D01*
X213713047Y-140225428D01*
X213808285Y-140177809D01*
X213855904Y-140130190D01*
X213903523Y-140034952D01*
X191234476Y-140558761D02*
X191377333Y-140606380D01*
X191615428Y-140606380D01*
X191710666Y-140558761D01*
X191758285Y-140511142D01*
X191805904Y-140415904D01*
X191805904Y-140320666D01*
X191758285Y-140225428D01*
X191710666Y-140177809D01*
X191615428Y-140130190D01*
X191424952Y-140082571D01*
X191329714Y-140034952D01*
X191282095Y-139987333D01*
X191234476Y-139892095D01*
X191234476Y-139796857D01*
X191282095Y-139701619D01*
X191329714Y-139654000D01*
X191424952Y-139606380D01*
X191663047Y-139606380D01*
X191805904Y-139654000D01*
X192139238Y-139606380D02*
X192377333Y-140606380D01*
X192567809Y-139892095D01*
X192758285Y-140606380D01*
X192996380Y-139606380D01*
X193853523Y-139606380D02*
X193377333Y-139606380D01*
X193329714Y-140082571D01*
X193377333Y-140034952D01*
X193472571Y-139987333D01*
X193710666Y-139987333D01*
X193805904Y-140034952D01*
X193853523Y-140082571D01*
X193901142Y-140177809D01*
X193901142Y-140415904D01*
X193853523Y-140511142D01*
X193805904Y-140558761D01*
X193710666Y-140606380D01*
X193472571Y-140606380D01*
X193377333Y-140558761D01*
X193329714Y-140511142D01*
X194472571Y-140034952D02*
X194377333Y-139987333D01*
X194329714Y-139939714D01*
X194282095Y-139844476D01*
X194282095Y-139796857D01*
X194329714Y-139701619D01*
X194377333Y-139654000D01*
X194472571Y-139606380D01*
X194663047Y-139606380D01*
X194758285Y-139654000D01*
X194805904Y-139701619D01*
X194853523Y-139796857D01*
X194853523Y-139844476D01*
X194805904Y-139939714D01*
X194758285Y-139987333D01*
X194663047Y-140034952D01*
X194472571Y-140034952D01*
X194377333Y-140082571D01*
X194329714Y-140130190D01*
X194282095Y-140225428D01*
X194282095Y-140415904D01*
X194329714Y-140511142D01*
X194377333Y-140558761D01*
X194472571Y-140606380D01*
X194663047Y-140606380D01*
X194758285Y-140558761D01*
X194805904Y-140511142D01*
X194853523Y-140415904D01*
X194853523Y-140225428D01*
X194805904Y-140130190D01*
X194758285Y-140082571D01*
X194663047Y-140034952D01*
X172184476Y-140558761D02*
X172327333Y-140606380D01*
X172565428Y-140606380D01*
X172660666Y-140558761D01*
X172708285Y-140511142D01*
X172755904Y-140415904D01*
X172755904Y-140320666D01*
X172708285Y-140225428D01*
X172660666Y-140177809D01*
X172565428Y-140130190D01*
X172374952Y-140082571D01*
X172279714Y-140034952D01*
X172232095Y-139987333D01*
X172184476Y-139892095D01*
X172184476Y-139796857D01*
X172232095Y-139701619D01*
X172279714Y-139654000D01*
X172374952Y-139606380D01*
X172613047Y-139606380D01*
X172755904Y-139654000D01*
X173089238Y-139606380D02*
X173327333Y-140606380D01*
X173517809Y-139892095D01*
X173708285Y-140606380D01*
X173946380Y-139606380D01*
X174803523Y-139606380D02*
X174327333Y-139606380D01*
X174279714Y-140082571D01*
X174327333Y-140034952D01*
X174422571Y-139987333D01*
X174660666Y-139987333D01*
X174755904Y-140034952D01*
X174803523Y-140082571D01*
X174851142Y-140177809D01*
X174851142Y-140415904D01*
X174803523Y-140511142D01*
X174755904Y-140558761D01*
X174660666Y-140606380D01*
X174422571Y-140606380D01*
X174327333Y-140558761D01*
X174279714Y-140511142D01*
X175184476Y-139606380D02*
X175851142Y-139606380D01*
X175422571Y-140606380D01*
X153134476Y-140558761D02*
X153277333Y-140606380D01*
X153515428Y-140606380D01*
X153610666Y-140558761D01*
X153658285Y-140511142D01*
X153705904Y-140415904D01*
X153705904Y-140320666D01*
X153658285Y-140225428D01*
X153610666Y-140177809D01*
X153515428Y-140130190D01*
X153324952Y-140082571D01*
X153229714Y-140034952D01*
X153182095Y-139987333D01*
X153134476Y-139892095D01*
X153134476Y-139796857D01*
X153182095Y-139701619D01*
X153229714Y-139654000D01*
X153324952Y-139606380D01*
X153563047Y-139606380D01*
X153705904Y-139654000D01*
X154039238Y-139606380D02*
X154277333Y-140606380D01*
X154467809Y-139892095D01*
X154658285Y-140606380D01*
X154896380Y-139606380D01*
X155753523Y-139606380D02*
X155277333Y-139606380D01*
X155229714Y-140082571D01*
X155277333Y-140034952D01*
X155372571Y-139987333D01*
X155610666Y-139987333D01*
X155705904Y-140034952D01*
X155753523Y-140082571D01*
X155801142Y-140177809D01*
X155801142Y-140415904D01*
X155753523Y-140511142D01*
X155705904Y-140558761D01*
X155610666Y-140606380D01*
X155372571Y-140606380D01*
X155277333Y-140558761D01*
X155229714Y-140511142D01*
X156658285Y-139606380D02*
X156467809Y-139606380D01*
X156372571Y-139654000D01*
X156324952Y-139701619D01*
X156229714Y-139844476D01*
X156182095Y-140034952D01*
X156182095Y-140415904D01*
X156229714Y-140511142D01*
X156277333Y-140558761D01*
X156372571Y-140606380D01*
X156563047Y-140606380D01*
X156658285Y-140558761D01*
X156705904Y-140511142D01*
X156753523Y-140415904D01*
X156753523Y-140177809D01*
X156705904Y-140082571D01*
X156658285Y-140034952D01*
X156563047Y-139987333D01*
X156372571Y-139987333D01*
X156277333Y-140034952D01*
X156229714Y-140082571D01*
X156182095Y-140177809D01*
X134084476Y-140558761D02*
X134227333Y-140606380D01*
X134465428Y-140606380D01*
X134560666Y-140558761D01*
X134608285Y-140511142D01*
X134655904Y-140415904D01*
X134655904Y-140320666D01*
X134608285Y-140225428D01*
X134560666Y-140177809D01*
X134465428Y-140130190D01*
X134274952Y-140082571D01*
X134179714Y-140034952D01*
X134132095Y-139987333D01*
X134084476Y-139892095D01*
X134084476Y-139796857D01*
X134132095Y-139701619D01*
X134179714Y-139654000D01*
X134274952Y-139606380D01*
X134513047Y-139606380D01*
X134655904Y-139654000D01*
X134989238Y-139606380D02*
X135227333Y-140606380D01*
X135417809Y-139892095D01*
X135608285Y-140606380D01*
X135846380Y-139606380D01*
X136703523Y-139606380D02*
X136227333Y-139606380D01*
X136179714Y-140082571D01*
X136227333Y-140034952D01*
X136322571Y-139987333D01*
X136560666Y-139987333D01*
X136655904Y-140034952D01*
X136703523Y-140082571D01*
X136751142Y-140177809D01*
X136751142Y-140415904D01*
X136703523Y-140511142D01*
X136655904Y-140558761D01*
X136560666Y-140606380D01*
X136322571Y-140606380D01*
X136227333Y-140558761D01*
X136179714Y-140511142D01*
X137655904Y-139606380D02*
X137179714Y-139606380D01*
X137132095Y-140082571D01*
X137179714Y-140034952D01*
X137274952Y-139987333D01*
X137513047Y-139987333D01*
X137608285Y-140034952D01*
X137655904Y-140082571D01*
X137703523Y-140177809D01*
X137703523Y-140415904D01*
X137655904Y-140511142D01*
X137608285Y-140558761D01*
X137513047Y-140606380D01*
X137274952Y-140606380D01*
X137179714Y-140558761D01*
X137132095Y-140511142D01*
X115034476Y-140558761D02*
X115177333Y-140606380D01*
X115415428Y-140606380D01*
X115510666Y-140558761D01*
X115558285Y-140511142D01*
X115605904Y-140415904D01*
X115605904Y-140320666D01*
X115558285Y-140225428D01*
X115510666Y-140177809D01*
X115415428Y-140130190D01*
X115224952Y-140082571D01*
X115129714Y-140034952D01*
X115082095Y-139987333D01*
X115034476Y-139892095D01*
X115034476Y-139796857D01*
X115082095Y-139701619D01*
X115129714Y-139654000D01*
X115224952Y-139606380D01*
X115463047Y-139606380D01*
X115605904Y-139654000D01*
X115939238Y-139606380D02*
X116177333Y-140606380D01*
X116367809Y-139892095D01*
X116558285Y-140606380D01*
X116796380Y-139606380D01*
X117653523Y-139606380D02*
X117177333Y-139606380D01*
X117129714Y-140082571D01*
X117177333Y-140034952D01*
X117272571Y-139987333D01*
X117510666Y-139987333D01*
X117605904Y-140034952D01*
X117653523Y-140082571D01*
X117701142Y-140177809D01*
X117701142Y-140415904D01*
X117653523Y-140511142D01*
X117605904Y-140558761D01*
X117510666Y-140606380D01*
X117272571Y-140606380D01*
X117177333Y-140558761D01*
X117129714Y-140511142D01*
X118558285Y-139939714D02*
X118558285Y-140606380D01*
X118320190Y-139558761D02*
X118082095Y-140273047D01*
X118701142Y-140273047D01*
X95984476Y-140558761D02*
X96127333Y-140606380D01*
X96365428Y-140606380D01*
X96460666Y-140558761D01*
X96508285Y-140511142D01*
X96555904Y-140415904D01*
X96555904Y-140320666D01*
X96508285Y-140225428D01*
X96460666Y-140177809D01*
X96365428Y-140130190D01*
X96174952Y-140082571D01*
X96079714Y-140034952D01*
X96032095Y-139987333D01*
X95984476Y-139892095D01*
X95984476Y-139796857D01*
X96032095Y-139701619D01*
X96079714Y-139654000D01*
X96174952Y-139606380D01*
X96413047Y-139606380D01*
X96555904Y-139654000D01*
X96889238Y-139606380D02*
X97127333Y-140606380D01*
X97317809Y-139892095D01*
X97508285Y-140606380D01*
X97746380Y-139606380D01*
X98603523Y-139606380D02*
X98127333Y-139606380D01*
X98079714Y-140082571D01*
X98127333Y-140034952D01*
X98222571Y-139987333D01*
X98460666Y-139987333D01*
X98555904Y-140034952D01*
X98603523Y-140082571D01*
X98651142Y-140177809D01*
X98651142Y-140415904D01*
X98603523Y-140511142D01*
X98555904Y-140558761D01*
X98460666Y-140606380D01*
X98222571Y-140606380D01*
X98127333Y-140558761D01*
X98079714Y-140511142D01*
X98984476Y-139606380D02*
X99603523Y-139606380D01*
X99270190Y-139987333D01*
X99413047Y-139987333D01*
X99508285Y-140034952D01*
X99555904Y-140082571D01*
X99603523Y-140177809D01*
X99603523Y-140415904D01*
X99555904Y-140511142D01*
X99508285Y-140558761D01*
X99413047Y-140606380D01*
X99127333Y-140606380D01*
X99032095Y-140558761D01*
X98984476Y-140511142D01*
X76934276Y-140558761D02*
X77077133Y-140606380D01*
X77315228Y-140606380D01*
X77410466Y-140558761D01*
X77458085Y-140511142D01*
X77505704Y-140415904D01*
X77505704Y-140320666D01*
X77458085Y-140225428D01*
X77410466Y-140177809D01*
X77315228Y-140130190D01*
X77124752Y-140082571D01*
X77029514Y-140034952D01*
X76981895Y-139987333D01*
X76934276Y-139892095D01*
X76934276Y-139796857D01*
X76981895Y-139701619D01*
X77029514Y-139654000D01*
X77124752Y-139606380D01*
X77362847Y-139606380D01*
X77505704Y-139654000D01*
X77839038Y-139606380D02*
X78077133Y-140606380D01*
X78267609Y-139892095D01*
X78458085Y-140606380D01*
X78696180Y-139606380D01*
X79553323Y-139606380D02*
X79077133Y-139606380D01*
X79029514Y-140082571D01*
X79077133Y-140034952D01*
X79172371Y-139987333D01*
X79410466Y-139987333D01*
X79505704Y-140034952D01*
X79553323Y-140082571D01*
X79600942Y-140177809D01*
X79600942Y-140415904D01*
X79553323Y-140511142D01*
X79505704Y-140558761D01*
X79410466Y-140606380D01*
X79172371Y-140606380D01*
X79077133Y-140558761D01*
X79029514Y-140511142D01*
X79981895Y-139701619D02*
X80029514Y-139654000D01*
X80124752Y-139606380D01*
X80362847Y-139606380D01*
X80458085Y-139654000D01*
X80505704Y-139701619D01*
X80553323Y-139796857D01*
X80553323Y-139892095D01*
X80505704Y-140034952D01*
X79934276Y-140606380D01*
X80553323Y-140606380D01*
X50740676Y-140558761D02*
X50883533Y-140606380D01*
X51121628Y-140606380D01*
X51216866Y-140558761D01*
X51264485Y-140511142D01*
X51312104Y-140415904D01*
X51312104Y-140320666D01*
X51264485Y-140225428D01*
X51216866Y-140177809D01*
X51121628Y-140130190D01*
X50931152Y-140082571D01*
X50835914Y-140034952D01*
X50788295Y-139987333D01*
X50740676Y-139892095D01*
X50740676Y-139796857D01*
X50788295Y-139701619D01*
X50835914Y-139654000D01*
X50931152Y-139606380D01*
X51169247Y-139606380D01*
X51312104Y-139654000D01*
X51645438Y-139606380D02*
X51883533Y-140606380D01*
X52074009Y-139892095D01*
X52264485Y-140606380D01*
X52502580Y-139606380D01*
X53359723Y-139606380D02*
X52883533Y-139606380D01*
X52835914Y-140082571D01*
X52883533Y-140034952D01*
X52978771Y-139987333D01*
X53216866Y-139987333D01*
X53312104Y-140034952D01*
X53359723Y-140082571D01*
X53407342Y-140177809D01*
X53407342Y-140415904D01*
X53359723Y-140511142D01*
X53312104Y-140558761D01*
X53216866Y-140606380D01*
X52978771Y-140606380D01*
X52883533Y-140558761D01*
X52835914Y-140511142D01*
X54359723Y-140606380D02*
X53788295Y-140606380D01*
X54074009Y-140606380D02*
X54074009Y-139606380D01*
X53978771Y-139749238D01*
X53883533Y-139844476D01*
X53788295Y-139892095D01*
X372399476Y-121508761D02*
X372542333Y-121556380D01*
X372780428Y-121556380D01*
X372875666Y-121508761D01*
X372923285Y-121461142D01*
X372970904Y-121365904D01*
X372970904Y-121270666D01*
X372923285Y-121175428D01*
X372875666Y-121127809D01*
X372780428Y-121080190D01*
X372589952Y-121032571D01*
X372494714Y-120984952D01*
X372447095Y-120937333D01*
X372399476Y-120842095D01*
X372399476Y-120746857D01*
X372447095Y-120651619D01*
X372494714Y-120604000D01*
X372589952Y-120556380D01*
X372828047Y-120556380D01*
X372970904Y-120604000D01*
X373304238Y-120556380D02*
X373542333Y-121556380D01*
X373732809Y-120842095D01*
X373923285Y-121556380D01*
X374161380Y-120556380D01*
X375018523Y-120556380D02*
X374542333Y-120556380D01*
X374494714Y-121032571D01*
X374542333Y-120984952D01*
X374637571Y-120937333D01*
X374875666Y-120937333D01*
X374970904Y-120984952D01*
X375018523Y-121032571D01*
X375066142Y-121127809D01*
X375066142Y-121365904D01*
X375018523Y-121461142D01*
X374970904Y-121508761D01*
X374875666Y-121556380D01*
X374637571Y-121556380D01*
X374542333Y-121508761D01*
X374494714Y-121461142D01*
X375685190Y-120556380D02*
X375780428Y-120556380D01*
X375875666Y-120604000D01*
X375923285Y-120651619D01*
X375970904Y-120746857D01*
X376018523Y-120937333D01*
X376018523Y-121175428D01*
X375970904Y-121365904D01*
X375923285Y-121461142D01*
X375875666Y-121508761D01*
X375780428Y-121556380D01*
X375685190Y-121556380D01*
X375589952Y-121508761D01*
X375542333Y-121461142D01*
X375494714Y-121365904D01*
X375447095Y-121175428D01*
X375447095Y-120937333D01*
X375494714Y-120746857D01*
X375542333Y-120651619D01*
X375589952Y-120604000D01*
X375685190Y-120556380D01*
X353349476Y-121508761D02*
X353492333Y-121556380D01*
X353730428Y-121556380D01*
X353825666Y-121508761D01*
X353873285Y-121461142D01*
X353920904Y-121365904D01*
X353920904Y-121270666D01*
X353873285Y-121175428D01*
X353825666Y-121127809D01*
X353730428Y-121080190D01*
X353539952Y-121032571D01*
X353444714Y-120984952D01*
X353397095Y-120937333D01*
X353349476Y-120842095D01*
X353349476Y-120746857D01*
X353397095Y-120651619D01*
X353444714Y-120604000D01*
X353539952Y-120556380D01*
X353778047Y-120556380D01*
X353920904Y-120604000D01*
X354254238Y-120556380D02*
X354492333Y-121556380D01*
X354682809Y-120842095D01*
X354873285Y-121556380D01*
X355111380Y-120556380D01*
X355920904Y-120889714D02*
X355920904Y-121556380D01*
X355682809Y-120508761D02*
X355444714Y-121223047D01*
X356063761Y-121223047D01*
X356492333Y-121556380D02*
X356682809Y-121556380D01*
X356778047Y-121508761D01*
X356825666Y-121461142D01*
X356920904Y-121318285D01*
X356968523Y-121127809D01*
X356968523Y-120746857D01*
X356920904Y-120651619D01*
X356873285Y-120604000D01*
X356778047Y-120556380D01*
X356587571Y-120556380D01*
X356492333Y-120604000D01*
X356444714Y-120651619D01*
X356397095Y-120746857D01*
X356397095Y-120984952D01*
X356444714Y-121080190D01*
X356492333Y-121127809D01*
X356587571Y-121175428D01*
X356778047Y-121175428D01*
X356873285Y-121127809D01*
X356920904Y-121080190D01*
X356968523Y-120984952D01*
X334299476Y-121508761D02*
X334442333Y-121556380D01*
X334680428Y-121556380D01*
X334775666Y-121508761D01*
X334823285Y-121461142D01*
X334870904Y-121365904D01*
X334870904Y-121270666D01*
X334823285Y-121175428D01*
X334775666Y-121127809D01*
X334680428Y-121080190D01*
X334489952Y-121032571D01*
X334394714Y-120984952D01*
X334347095Y-120937333D01*
X334299476Y-120842095D01*
X334299476Y-120746857D01*
X334347095Y-120651619D01*
X334394714Y-120604000D01*
X334489952Y-120556380D01*
X334728047Y-120556380D01*
X334870904Y-120604000D01*
X335204238Y-120556380D02*
X335442333Y-121556380D01*
X335632809Y-120842095D01*
X335823285Y-121556380D01*
X336061380Y-120556380D01*
X336870904Y-120889714D02*
X336870904Y-121556380D01*
X336632809Y-120508761D02*
X336394714Y-121223047D01*
X337013761Y-121223047D01*
X337537571Y-120984952D02*
X337442333Y-120937333D01*
X337394714Y-120889714D01*
X337347095Y-120794476D01*
X337347095Y-120746857D01*
X337394714Y-120651619D01*
X337442333Y-120604000D01*
X337537571Y-120556380D01*
X337728047Y-120556380D01*
X337823285Y-120604000D01*
X337870904Y-120651619D01*
X337918523Y-120746857D01*
X337918523Y-120794476D01*
X337870904Y-120889714D01*
X337823285Y-120937333D01*
X337728047Y-120984952D01*
X337537571Y-120984952D01*
X337442333Y-121032571D01*
X337394714Y-121080190D01*
X337347095Y-121175428D01*
X337347095Y-121365904D01*
X337394714Y-121461142D01*
X337442333Y-121508761D01*
X337537571Y-121556380D01*
X337728047Y-121556380D01*
X337823285Y-121508761D01*
X337870904Y-121461142D01*
X337918523Y-121365904D01*
X337918523Y-121175428D01*
X337870904Y-121080190D01*
X337823285Y-121032571D01*
X337728047Y-120984952D01*
X305534476Y-121508761D02*
X305677333Y-121556380D01*
X305915428Y-121556380D01*
X306010666Y-121508761D01*
X306058285Y-121461142D01*
X306105904Y-121365904D01*
X306105904Y-121270666D01*
X306058285Y-121175428D01*
X306010666Y-121127809D01*
X305915428Y-121080190D01*
X305724952Y-121032571D01*
X305629714Y-120984952D01*
X305582095Y-120937333D01*
X305534476Y-120842095D01*
X305534476Y-120746857D01*
X305582095Y-120651619D01*
X305629714Y-120604000D01*
X305724952Y-120556380D01*
X305963047Y-120556380D01*
X306105904Y-120604000D01*
X306439238Y-120556380D02*
X306677333Y-121556380D01*
X306867809Y-120842095D01*
X307058285Y-121556380D01*
X307296380Y-120556380D01*
X308105904Y-120889714D02*
X308105904Y-121556380D01*
X307867809Y-120508761D02*
X307629714Y-121223047D01*
X308248761Y-121223047D01*
X308534476Y-120556380D02*
X309201142Y-120556380D01*
X308772571Y-121556380D01*
X281721476Y-121508761D02*
X281864333Y-121556380D01*
X282102428Y-121556380D01*
X282197666Y-121508761D01*
X282245285Y-121461142D01*
X282292904Y-121365904D01*
X282292904Y-121270666D01*
X282245285Y-121175428D01*
X282197666Y-121127809D01*
X282102428Y-121080190D01*
X281911952Y-121032571D01*
X281816714Y-120984952D01*
X281769095Y-120937333D01*
X281721476Y-120842095D01*
X281721476Y-120746857D01*
X281769095Y-120651619D01*
X281816714Y-120604000D01*
X281911952Y-120556380D01*
X282150047Y-120556380D01*
X282292904Y-120604000D01*
X282626238Y-120556380D02*
X282864333Y-121556380D01*
X283054809Y-120842095D01*
X283245285Y-121556380D01*
X283483380Y-120556380D01*
X284292904Y-120889714D02*
X284292904Y-121556380D01*
X284054809Y-120508761D02*
X283816714Y-121223047D01*
X284435761Y-121223047D01*
X285245285Y-120556380D02*
X285054809Y-120556380D01*
X284959571Y-120604000D01*
X284911952Y-120651619D01*
X284816714Y-120794476D01*
X284769095Y-120984952D01*
X284769095Y-121365904D01*
X284816714Y-121461142D01*
X284864333Y-121508761D01*
X284959571Y-121556380D01*
X285150047Y-121556380D01*
X285245285Y-121508761D01*
X285292904Y-121461142D01*
X285340523Y-121365904D01*
X285340523Y-121127809D01*
X285292904Y-121032571D01*
X285245285Y-120984952D01*
X285150047Y-120937333D01*
X284959571Y-120937333D01*
X284864333Y-120984952D01*
X284816714Y-121032571D01*
X284769095Y-121127809D01*
X262671476Y-121508761D02*
X262814333Y-121556380D01*
X263052428Y-121556380D01*
X263147666Y-121508761D01*
X263195285Y-121461142D01*
X263242904Y-121365904D01*
X263242904Y-121270666D01*
X263195285Y-121175428D01*
X263147666Y-121127809D01*
X263052428Y-121080190D01*
X262861952Y-121032571D01*
X262766714Y-120984952D01*
X262719095Y-120937333D01*
X262671476Y-120842095D01*
X262671476Y-120746857D01*
X262719095Y-120651619D01*
X262766714Y-120604000D01*
X262861952Y-120556380D01*
X263100047Y-120556380D01*
X263242904Y-120604000D01*
X263576238Y-120556380D02*
X263814333Y-121556380D01*
X264004809Y-120842095D01*
X264195285Y-121556380D01*
X264433380Y-120556380D01*
X265242904Y-120889714D02*
X265242904Y-121556380D01*
X265004809Y-120508761D02*
X264766714Y-121223047D01*
X265385761Y-121223047D01*
X266242904Y-120556380D02*
X265766714Y-120556380D01*
X265719095Y-121032571D01*
X265766714Y-120984952D01*
X265861952Y-120937333D01*
X266100047Y-120937333D01*
X266195285Y-120984952D01*
X266242904Y-121032571D01*
X266290523Y-121127809D01*
X266290523Y-121365904D01*
X266242904Y-121461142D01*
X266195285Y-121508761D01*
X266100047Y-121556380D01*
X265861952Y-121556380D01*
X265766714Y-121508761D01*
X265719095Y-121461142D01*
X243621476Y-121508761D02*
X243764333Y-121556380D01*
X244002428Y-121556380D01*
X244097666Y-121508761D01*
X244145285Y-121461142D01*
X244192904Y-121365904D01*
X244192904Y-121270666D01*
X244145285Y-121175428D01*
X244097666Y-121127809D01*
X244002428Y-121080190D01*
X243811952Y-121032571D01*
X243716714Y-120984952D01*
X243669095Y-120937333D01*
X243621476Y-120842095D01*
X243621476Y-120746857D01*
X243669095Y-120651619D01*
X243716714Y-120604000D01*
X243811952Y-120556380D01*
X244050047Y-120556380D01*
X244192904Y-120604000D01*
X244526238Y-120556380D02*
X244764333Y-121556380D01*
X244954809Y-120842095D01*
X245145285Y-121556380D01*
X245383380Y-120556380D01*
X246192904Y-120889714D02*
X246192904Y-121556380D01*
X245954809Y-120508761D02*
X245716714Y-121223047D01*
X246335761Y-121223047D01*
X247145285Y-120889714D02*
X247145285Y-121556380D01*
X246907190Y-120508761D02*
X246669095Y-121223047D01*
X247288142Y-121223047D01*
X224571476Y-121508761D02*
X224714333Y-121556380D01*
X224952428Y-121556380D01*
X225047666Y-121508761D01*
X225095285Y-121461142D01*
X225142904Y-121365904D01*
X225142904Y-121270666D01*
X225095285Y-121175428D01*
X225047666Y-121127809D01*
X224952428Y-121080190D01*
X224761952Y-121032571D01*
X224666714Y-120984952D01*
X224619095Y-120937333D01*
X224571476Y-120842095D01*
X224571476Y-120746857D01*
X224619095Y-120651619D01*
X224666714Y-120604000D01*
X224761952Y-120556380D01*
X225000047Y-120556380D01*
X225142904Y-120604000D01*
X225476238Y-120556380D02*
X225714333Y-121556380D01*
X225904809Y-120842095D01*
X226095285Y-121556380D01*
X226333380Y-120556380D01*
X227142904Y-120889714D02*
X227142904Y-121556380D01*
X226904809Y-120508761D02*
X226666714Y-121223047D01*
X227285761Y-121223047D01*
X227571476Y-120556380D02*
X228190523Y-120556380D01*
X227857190Y-120937333D01*
X228000047Y-120937333D01*
X228095285Y-120984952D01*
X228142904Y-121032571D01*
X228190523Y-121127809D01*
X228190523Y-121365904D01*
X228142904Y-121461142D01*
X228095285Y-121508761D01*
X228000047Y-121556380D01*
X227714333Y-121556380D01*
X227619095Y-121508761D01*
X227571476Y-121461142D01*
X205521476Y-121508761D02*
X205664333Y-121556380D01*
X205902428Y-121556380D01*
X205997666Y-121508761D01*
X206045285Y-121461142D01*
X206092904Y-121365904D01*
X206092904Y-121270666D01*
X206045285Y-121175428D01*
X205997666Y-121127809D01*
X205902428Y-121080190D01*
X205711952Y-121032571D01*
X205616714Y-120984952D01*
X205569095Y-120937333D01*
X205521476Y-120842095D01*
X205521476Y-120746857D01*
X205569095Y-120651619D01*
X205616714Y-120604000D01*
X205711952Y-120556380D01*
X205950047Y-120556380D01*
X206092904Y-120604000D01*
X206426238Y-120556380D02*
X206664333Y-121556380D01*
X206854809Y-120842095D01*
X207045285Y-121556380D01*
X207283380Y-120556380D01*
X208092904Y-120889714D02*
X208092904Y-121556380D01*
X207854809Y-120508761D02*
X207616714Y-121223047D01*
X208235761Y-121223047D01*
X208569095Y-120651619D02*
X208616714Y-120604000D01*
X208711952Y-120556380D01*
X208950047Y-120556380D01*
X209045285Y-120604000D01*
X209092904Y-120651619D01*
X209140523Y-120746857D01*
X209140523Y-120842095D01*
X209092904Y-120984952D01*
X208521476Y-121556380D01*
X209140523Y-121556380D01*
X186471476Y-121508761D02*
X186614333Y-121556380D01*
X186852428Y-121556380D01*
X186947666Y-121508761D01*
X186995285Y-121461142D01*
X187042904Y-121365904D01*
X187042904Y-121270666D01*
X186995285Y-121175428D01*
X186947666Y-121127809D01*
X186852428Y-121080190D01*
X186661952Y-121032571D01*
X186566714Y-120984952D01*
X186519095Y-120937333D01*
X186471476Y-120842095D01*
X186471476Y-120746857D01*
X186519095Y-120651619D01*
X186566714Y-120604000D01*
X186661952Y-120556380D01*
X186900047Y-120556380D01*
X187042904Y-120604000D01*
X187376238Y-120556380D02*
X187614333Y-121556380D01*
X187804809Y-120842095D01*
X187995285Y-121556380D01*
X188233380Y-120556380D01*
X189042904Y-120889714D02*
X189042904Y-121556380D01*
X188804809Y-120508761D02*
X188566714Y-121223047D01*
X189185761Y-121223047D01*
X190090523Y-121556380D02*
X189519095Y-121556380D01*
X189804809Y-121556380D02*
X189804809Y-120556380D01*
X189709571Y-120699238D01*
X189614333Y-120794476D01*
X189519095Y-120842095D01*
X167421476Y-121508761D02*
X167564333Y-121556380D01*
X167802428Y-121556380D01*
X167897666Y-121508761D01*
X167945285Y-121461142D01*
X167992904Y-121365904D01*
X167992904Y-121270666D01*
X167945285Y-121175428D01*
X167897666Y-121127809D01*
X167802428Y-121080190D01*
X167611952Y-121032571D01*
X167516714Y-120984952D01*
X167469095Y-120937333D01*
X167421476Y-120842095D01*
X167421476Y-120746857D01*
X167469095Y-120651619D01*
X167516714Y-120604000D01*
X167611952Y-120556380D01*
X167850047Y-120556380D01*
X167992904Y-120604000D01*
X168326238Y-120556380D02*
X168564333Y-121556380D01*
X168754809Y-120842095D01*
X168945285Y-121556380D01*
X169183380Y-120556380D01*
X169992904Y-120889714D02*
X169992904Y-121556380D01*
X169754809Y-120508761D02*
X169516714Y-121223047D01*
X170135761Y-121223047D01*
X170707190Y-120556380D02*
X170802428Y-120556380D01*
X170897666Y-120604000D01*
X170945285Y-120651619D01*
X170992904Y-120746857D01*
X171040523Y-120937333D01*
X171040523Y-121175428D01*
X170992904Y-121365904D01*
X170945285Y-121461142D01*
X170897666Y-121508761D01*
X170802428Y-121556380D01*
X170707190Y-121556380D01*
X170611952Y-121508761D01*
X170564333Y-121461142D01*
X170516714Y-121365904D01*
X170469095Y-121175428D01*
X170469095Y-120937333D01*
X170516714Y-120746857D01*
X170564333Y-120651619D01*
X170611952Y-120604000D01*
X170707190Y-120556380D01*
X148371476Y-121508761D02*
X148514333Y-121556380D01*
X148752428Y-121556380D01*
X148847666Y-121508761D01*
X148895285Y-121461142D01*
X148942904Y-121365904D01*
X148942904Y-121270666D01*
X148895285Y-121175428D01*
X148847666Y-121127809D01*
X148752428Y-121080190D01*
X148561952Y-121032571D01*
X148466714Y-120984952D01*
X148419095Y-120937333D01*
X148371476Y-120842095D01*
X148371476Y-120746857D01*
X148419095Y-120651619D01*
X148466714Y-120604000D01*
X148561952Y-120556380D01*
X148800047Y-120556380D01*
X148942904Y-120604000D01*
X149276238Y-120556380D02*
X149514333Y-121556380D01*
X149704809Y-120842095D01*
X149895285Y-121556380D01*
X150133380Y-120556380D01*
X150419095Y-120556380D02*
X151038142Y-120556380D01*
X150704809Y-120937333D01*
X150847666Y-120937333D01*
X150942904Y-120984952D01*
X150990523Y-121032571D01*
X151038142Y-121127809D01*
X151038142Y-121365904D01*
X150990523Y-121461142D01*
X150942904Y-121508761D01*
X150847666Y-121556380D01*
X150561952Y-121556380D01*
X150466714Y-121508761D01*
X150419095Y-121461142D01*
X151514333Y-121556380D02*
X151704809Y-121556380D01*
X151800047Y-121508761D01*
X151847666Y-121461142D01*
X151942904Y-121318285D01*
X151990523Y-121127809D01*
X151990523Y-120746857D01*
X151942904Y-120651619D01*
X151895285Y-120604000D01*
X151800047Y-120556380D01*
X151609571Y-120556380D01*
X151514333Y-120604000D01*
X151466714Y-120651619D01*
X151419095Y-120746857D01*
X151419095Y-120984952D01*
X151466714Y-121080190D01*
X151514333Y-121127809D01*
X151609571Y-121175428D01*
X151800047Y-121175428D01*
X151895285Y-121127809D01*
X151942904Y-121080190D01*
X151990523Y-120984952D01*
X129321476Y-121508761D02*
X129464333Y-121556380D01*
X129702428Y-121556380D01*
X129797666Y-121508761D01*
X129845285Y-121461142D01*
X129892904Y-121365904D01*
X129892904Y-121270666D01*
X129845285Y-121175428D01*
X129797666Y-121127809D01*
X129702428Y-121080190D01*
X129511952Y-121032571D01*
X129416714Y-120984952D01*
X129369095Y-120937333D01*
X129321476Y-120842095D01*
X129321476Y-120746857D01*
X129369095Y-120651619D01*
X129416714Y-120604000D01*
X129511952Y-120556380D01*
X129750047Y-120556380D01*
X129892904Y-120604000D01*
X130226238Y-120556380D02*
X130464333Y-121556380D01*
X130654809Y-120842095D01*
X130845285Y-121556380D01*
X131083380Y-120556380D01*
X131369095Y-120556380D02*
X131988142Y-120556380D01*
X131654809Y-120937333D01*
X131797666Y-120937333D01*
X131892904Y-120984952D01*
X131940523Y-121032571D01*
X131988142Y-121127809D01*
X131988142Y-121365904D01*
X131940523Y-121461142D01*
X131892904Y-121508761D01*
X131797666Y-121556380D01*
X131511952Y-121556380D01*
X131416714Y-121508761D01*
X131369095Y-121461142D01*
X132559571Y-120984952D02*
X132464333Y-120937333D01*
X132416714Y-120889714D01*
X132369095Y-120794476D01*
X132369095Y-120746857D01*
X132416714Y-120651619D01*
X132464333Y-120604000D01*
X132559571Y-120556380D01*
X132750047Y-120556380D01*
X132845285Y-120604000D01*
X132892904Y-120651619D01*
X132940523Y-120746857D01*
X132940523Y-120794476D01*
X132892904Y-120889714D01*
X132845285Y-120937333D01*
X132750047Y-120984952D01*
X132559571Y-120984952D01*
X132464333Y-121032571D01*
X132416714Y-121080190D01*
X132369095Y-121175428D01*
X132369095Y-121365904D01*
X132416714Y-121461142D01*
X132464333Y-121508761D01*
X132559571Y-121556380D01*
X132750047Y-121556380D01*
X132845285Y-121508761D01*
X132892904Y-121461142D01*
X132940523Y-121365904D01*
X132940523Y-121175428D01*
X132892904Y-121080190D01*
X132845285Y-121032571D01*
X132750047Y-120984952D01*
X110271476Y-121508761D02*
X110414333Y-121556380D01*
X110652428Y-121556380D01*
X110747666Y-121508761D01*
X110795285Y-121461142D01*
X110842904Y-121365904D01*
X110842904Y-121270666D01*
X110795285Y-121175428D01*
X110747666Y-121127809D01*
X110652428Y-121080190D01*
X110461952Y-121032571D01*
X110366714Y-120984952D01*
X110319095Y-120937333D01*
X110271476Y-120842095D01*
X110271476Y-120746857D01*
X110319095Y-120651619D01*
X110366714Y-120604000D01*
X110461952Y-120556380D01*
X110700047Y-120556380D01*
X110842904Y-120604000D01*
X111176238Y-120556380D02*
X111414333Y-121556380D01*
X111604809Y-120842095D01*
X111795285Y-121556380D01*
X112033380Y-120556380D01*
X112319095Y-120556380D02*
X112938142Y-120556380D01*
X112604809Y-120937333D01*
X112747666Y-120937333D01*
X112842904Y-120984952D01*
X112890523Y-121032571D01*
X112938142Y-121127809D01*
X112938142Y-121365904D01*
X112890523Y-121461142D01*
X112842904Y-121508761D01*
X112747666Y-121556380D01*
X112461952Y-121556380D01*
X112366714Y-121508761D01*
X112319095Y-121461142D01*
X113271476Y-120556380D02*
X113938142Y-120556380D01*
X113509571Y-121556380D01*
X91221676Y-121508761D02*
X91364533Y-121556380D01*
X91602628Y-121556380D01*
X91697866Y-121508761D01*
X91745485Y-121461142D01*
X91793104Y-121365904D01*
X91793104Y-121270666D01*
X91745485Y-121175428D01*
X91697866Y-121127809D01*
X91602628Y-121080190D01*
X91412152Y-121032571D01*
X91316914Y-120984952D01*
X91269295Y-120937333D01*
X91221676Y-120842095D01*
X91221676Y-120746857D01*
X91269295Y-120651619D01*
X91316914Y-120604000D01*
X91412152Y-120556380D01*
X91650247Y-120556380D01*
X91793104Y-120604000D01*
X92126438Y-120556380D02*
X92364533Y-121556380D01*
X92555009Y-120842095D01*
X92745485Y-121556380D01*
X92983580Y-120556380D01*
X93269295Y-120556380D02*
X93888342Y-120556380D01*
X93555009Y-120937333D01*
X93697866Y-120937333D01*
X93793104Y-120984952D01*
X93840723Y-121032571D01*
X93888342Y-121127809D01*
X93888342Y-121365904D01*
X93840723Y-121461142D01*
X93793104Y-121508761D01*
X93697866Y-121556380D01*
X93412152Y-121556380D01*
X93316914Y-121508761D01*
X93269295Y-121461142D01*
X94745485Y-120556380D02*
X94555009Y-120556380D01*
X94459771Y-120604000D01*
X94412152Y-120651619D01*
X94316914Y-120794476D01*
X94269295Y-120984952D01*
X94269295Y-121365904D01*
X94316914Y-121461142D01*
X94364533Y-121508761D01*
X94459771Y-121556380D01*
X94650247Y-121556380D01*
X94745485Y-121508761D01*
X94793104Y-121461142D01*
X94840723Y-121365904D01*
X94840723Y-121127809D01*
X94793104Y-121032571D01*
X94745485Y-120984952D01*
X94650247Y-120937333D01*
X94459771Y-120937333D01*
X94364533Y-120984952D01*
X94316914Y-121032571D01*
X94269295Y-121127809D01*
X72171676Y-121508761D02*
X72314533Y-121556380D01*
X72552628Y-121556380D01*
X72647866Y-121508761D01*
X72695485Y-121461142D01*
X72743104Y-121365904D01*
X72743104Y-121270666D01*
X72695485Y-121175428D01*
X72647866Y-121127809D01*
X72552628Y-121080190D01*
X72362152Y-121032571D01*
X72266914Y-120984952D01*
X72219295Y-120937333D01*
X72171676Y-120842095D01*
X72171676Y-120746857D01*
X72219295Y-120651619D01*
X72266914Y-120604000D01*
X72362152Y-120556380D01*
X72600247Y-120556380D01*
X72743104Y-120604000D01*
X73076438Y-120556380D02*
X73314533Y-121556380D01*
X73505009Y-120842095D01*
X73695485Y-121556380D01*
X73933580Y-120556380D01*
X74219295Y-120556380D02*
X74838342Y-120556380D01*
X74505009Y-120937333D01*
X74647866Y-120937333D01*
X74743104Y-120984952D01*
X74790723Y-121032571D01*
X74838342Y-121127809D01*
X74838342Y-121365904D01*
X74790723Y-121461142D01*
X74743104Y-121508761D01*
X74647866Y-121556380D01*
X74362152Y-121556380D01*
X74266914Y-121508761D01*
X74219295Y-121461142D01*
X75743104Y-120556380D02*
X75266914Y-120556380D01*
X75219295Y-121032571D01*
X75266914Y-120984952D01*
X75362152Y-120937333D01*
X75600247Y-120937333D01*
X75695485Y-120984952D01*
X75743104Y-121032571D01*
X75790723Y-121127809D01*
X75790723Y-121365904D01*
X75743104Y-121461142D01*
X75695485Y-121508761D01*
X75600247Y-121556380D01*
X75362152Y-121556380D01*
X75266914Y-121508761D01*
X75219295Y-121461142D01*
X48359676Y-121508761D02*
X48502533Y-121556380D01*
X48740628Y-121556380D01*
X48835866Y-121508761D01*
X48883485Y-121461142D01*
X48931104Y-121365904D01*
X48931104Y-121270666D01*
X48883485Y-121175428D01*
X48835866Y-121127809D01*
X48740628Y-121080190D01*
X48550152Y-121032571D01*
X48454914Y-120984952D01*
X48407295Y-120937333D01*
X48359676Y-120842095D01*
X48359676Y-120746857D01*
X48407295Y-120651619D01*
X48454914Y-120604000D01*
X48550152Y-120556380D01*
X48788247Y-120556380D01*
X48931104Y-120604000D01*
X49264438Y-120556380D02*
X49502533Y-121556380D01*
X49693009Y-120842095D01*
X49883485Y-121556380D01*
X50121580Y-120556380D01*
X50407295Y-120556380D02*
X51026342Y-120556380D01*
X50693009Y-120937333D01*
X50835866Y-120937333D01*
X50931104Y-120984952D01*
X50978723Y-121032571D01*
X51026342Y-121127809D01*
X51026342Y-121365904D01*
X50978723Y-121461142D01*
X50931104Y-121508761D01*
X50835866Y-121556380D01*
X50550152Y-121556380D01*
X50454914Y-121508761D01*
X50407295Y-121461142D01*
X51883485Y-120889714D02*
X51883485Y-121556380D01*
X51645390Y-120508761D02*
X51407295Y-121223047D01*
X52026342Y-121223047D01*
X372399476Y-102458761D02*
X372542333Y-102506380D01*
X372780428Y-102506380D01*
X372875666Y-102458761D01*
X372923285Y-102411142D01*
X372970904Y-102315904D01*
X372970904Y-102220666D01*
X372923285Y-102125428D01*
X372875666Y-102077809D01*
X372780428Y-102030190D01*
X372589952Y-101982571D01*
X372494714Y-101934952D01*
X372447095Y-101887333D01*
X372399476Y-101792095D01*
X372399476Y-101696857D01*
X372447095Y-101601619D01*
X372494714Y-101554000D01*
X372589952Y-101506380D01*
X372828047Y-101506380D01*
X372970904Y-101554000D01*
X373304238Y-101506380D02*
X373542333Y-102506380D01*
X373732809Y-101792095D01*
X373923285Y-102506380D01*
X374161380Y-101506380D01*
X374447095Y-101506380D02*
X375066142Y-101506380D01*
X374732809Y-101887333D01*
X374875666Y-101887333D01*
X374970904Y-101934952D01*
X375018523Y-101982571D01*
X375066142Y-102077809D01*
X375066142Y-102315904D01*
X375018523Y-102411142D01*
X374970904Y-102458761D01*
X374875666Y-102506380D01*
X374589952Y-102506380D01*
X374494714Y-102458761D01*
X374447095Y-102411142D01*
X375399476Y-101506380D02*
X376018523Y-101506380D01*
X375685190Y-101887333D01*
X375828047Y-101887333D01*
X375923285Y-101934952D01*
X375970904Y-101982571D01*
X376018523Y-102077809D01*
X376018523Y-102315904D01*
X375970904Y-102411142D01*
X375923285Y-102458761D01*
X375828047Y-102506380D01*
X375542333Y-102506380D01*
X375447095Y-102458761D01*
X375399476Y-102411142D01*
X353349476Y-102458761D02*
X353492333Y-102506380D01*
X353730428Y-102506380D01*
X353825666Y-102458761D01*
X353873285Y-102411142D01*
X353920904Y-102315904D01*
X353920904Y-102220666D01*
X353873285Y-102125428D01*
X353825666Y-102077809D01*
X353730428Y-102030190D01*
X353539952Y-101982571D01*
X353444714Y-101934952D01*
X353397095Y-101887333D01*
X353349476Y-101792095D01*
X353349476Y-101696857D01*
X353397095Y-101601619D01*
X353444714Y-101554000D01*
X353539952Y-101506380D01*
X353778047Y-101506380D01*
X353920904Y-101554000D01*
X354254238Y-101506380D02*
X354492333Y-102506380D01*
X354682809Y-101792095D01*
X354873285Y-102506380D01*
X355111380Y-101506380D01*
X355397095Y-101506380D02*
X356016142Y-101506380D01*
X355682809Y-101887333D01*
X355825666Y-101887333D01*
X355920904Y-101934952D01*
X355968523Y-101982571D01*
X356016142Y-102077809D01*
X356016142Y-102315904D01*
X355968523Y-102411142D01*
X355920904Y-102458761D01*
X355825666Y-102506380D01*
X355539952Y-102506380D01*
X355444714Y-102458761D01*
X355397095Y-102411142D01*
X356397095Y-101601619D02*
X356444714Y-101554000D01*
X356539952Y-101506380D01*
X356778047Y-101506380D01*
X356873285Y-101554000D01*
X356920904Y-101601619D01*
X356968523Y-101696857D01*
X356968523Y-101792095D01*
X356920904Y-101934952D01*
X356349476Y-102506380D01*
X356968523Y-102506380D01*
X334299476Y-102458761D02*
X334442333Y-102506380D01*
X334680428Y-102506380D01*
X334775666Y-102458761D01*
X334823285Y-102411142D01*
X334870904Y-102315904D01*
X334870904Y-102220666D01*
X334823285Y-102125428D01*
X334775666Y-102077809D01*
X334680428Y-102030190D01*
X334489952Y-101982571D01*
X334394714Y-101934952D01*
X334347095Y-101887333D01*
X334299476Y-101792095D01*
X334299476Y-101696857D01*
X334347095Y-101601619D01*
X334394714Y-101554000D01*
X334489952Y-101506380D01*
X334728047Y-101506380D01*
X334870904Y-101554000D01*
X335204238Y-101506380D02*
X335442333Y-102506380D01*
X335632809Y-101792095D01*
X335823285Y-102506380D01*
X336061380Y-101506380D01*
X336347095Y-101506380D02*
X336966142Y-101506380D01*
X336632809Y-101887333D01*
X336775666Y-101887333D01*
X336870904Y-101934952D01*
X336918523Y-101982571D01*
X336966142Y-102077809D01*
X336966142Y-102315904D01*
X336918523Y-102411142D01*
X336870904Y-102458761D01*
X336775666Y-102506380D01*
X336489952Y-102506380D01*
X336394714Y-102458761D01*
X336347095Y-102411142D01*
X337918523Y-102506380D02*
X337347095Y-102506380D01*
X337632809Y-102506380D02*
X337632809Y-101506380D01*
X337537571Y-101649238D01*
X337442333Y-101744476D01*
X337347095Y-101792095D01*
X300771476Y-102458761D02*
X300914333Y-102506380D01*
X301152428Y-102506380D01*
X301247666Y-102458761D01*
X301295285Y-102411142D01*
X301342904Y-102315904D01*
X301342904Y-102220666D01*
X301295285Y-102125428D01*
X301247666Y-102077809D01*
X301152428Y-102030190D01*
X300961952Y-101982571D01*
X300866714Y-101934952D01*
X300819095Y-101887333D01*
X300771476Y-101792095D01*
X300771476Y-101696857D01*
X300819095Y-101601619D01*
X300866714Y-101554000D01*
X300961952Y-101506380D01*
X301200047Y-101506380D01*
X301342904Y-101554000D01*
X301676238Y-101506380D02*
X301914333Y-102506380D01*
X302104809Y-101792095D01*
X302295285Y-102506380D01*
X302533380Y-101506380D01*
X302819095Y-101506380D02*
X303438142Y-101506380D01*
X303104809Y-101887333D01*
X303247666Y-101887333D01*
X303342904Y-101934952D01*
X303390523Y-101982571D01*
X303438142Y-102077809D01*
X303438142Y-102315904D01*
X303390523Y-102411142D01*
X303342904Y-102458761D01*
X303247666Y-102506380D01*
X302961952Y-102506380D01*
X302866714Y-102458761D01*
X302819095Y-102411142D01*
X304057190Y-101506380D02*
X304152428Y-101506380D01*
X304247666Y-101554000D01*
X304295285Y-101601619D01*
X304342904Y-101696857D01*
X304390523Y-101887333D01*
X304390523Y-102125428D01*
X304342904Y-102315904D01*
X304295285Y-102411142D01*
X304247666Y-102458761D01*
X304152428Y-102506380D01*
X304057190Y-102506380D01*
X303961952Y-102458761D01*
X303914333Y-102411142D01*
X303866714Y-102315904D01*
X303819095Y-102125428D01*
X303819095Y-101887333D01*
X303866714Y-101696857D01*
X303914333Y-101601619D01*
X303961952Y-101554000D01*
X304057190Y-101506380D01*
X272196476Y-102458761D02*
X272339333Y-102506380D01*
X272577428Y-102506380D01*
X272672666Y-102458761D01*
X272720285Y-102411142D01*
X272767904Y-102315904D01*
X272767904Y-102220666D01*
X272720285Y-102125428D01*
X272672666Y-102077809D01*
X272577428Y-102030190D01*
X272386952Y-101982571D01*
X272291714Y-101934952D01*
X272244095Y-101887333D01*
X272196476Y-101792095D01*
X272196476Y-101696857D01*
X272244095Y-101601619D01*
X272291714Y-101554000D01*
X272386952Y-101506380D01*
X272625047Y-101506380D01*
X272767904Y-101554000D01*
X273101238Y-101506380D02*
X273339333Y-102506380D01*
X273529809Y-101792095D01*
X273720285Y-102506380D01*
X273958380Y-101506380D01*
X274291714Y-101601619D02*
X274339333Y-101554000D01*
X274434571Y-101506380D01*
X274672666Y-101506380D01*
X274767904Y-101554000D01*
X274815523Y-101601619D01*
X274863142Y-101696857D01*
X274863142Y-101792095D01*
X274815523Y-101934952D01*
X274244095Y-102506380D01*
X274863142Y-102506380D01*
X275339333Y-102506380D02*
X275529809Y-102506380D01*
X275625047Y-102458761D01*
X275672666Y-102411142D01*
X275767904Y-102268285D01*
X275815523Y-102077809D01*
X275815523Y-101696857D01*
X275767904Y-101601619D01*
X275720285Y-101554000D01*
X275625047Y-101506380D01*
X275434571Y-101506380D01*
X275339333Y-101554000D01*
X275291714Y-101601619D01*
X275244095Y-101696857D01*
X275244095Y-101934952D01*
X275291714Y-102030190D01*
X275339333Y-102077809D01*
X275434571Y-102125428D01*
X275625047Y-102125428D01*
X275720285Y-102077809D01*
X275767904Y-102030190D01*
X275815523Y-101934952D01*
X253146476Y-102458761D02*
X253289333Y-102506380D01*
X253527428Y-102506380D01*
X253622666Y-102458761D01*
X253670285Y-102411142D01*
X253717904Y-102315904D01*
X253717904Y-102220666D01*
X253670285Y-102125428D01*
X253622666Y-102077809D01*
X253527428Y-102030190D01*
X253336952Y-101982571D01*
X253241714Y-101934952D01*
X253194095Y-101887333D01*
X253146476Y-101792095D01*
X253146476Y-101696857D01*
X253194095Y-101601619D01*
X253241714Y-101554000D01*
X253336952Y-101506380D01*
X253575047Y-101506380D01*
X253717904Y-101554000D01*
X254051238Y-101506380D02*
X254289333Y-102506380D01*
X254479809Y-101792095D01*
X254670285Y-102506380D01*
X254908380Y-101506380D01*
X255241714Y-101601619D02*
X255289333Y-101554000D01*
X255384571Y-101506380D01*
X255622666Y-101506380D01*
X255717904Y-101554000D01*
X255765523Y-101601619D01*
X255813142Y-101696857D01*
X255813142Y-101792095D01*
X255765523Y-101934952D01*
X255194095Y-102506380D01*
X255813142Y-102506380D01*
X256384571Y-101934952D02*
X256289333Y-101887333D01*
X256241714Y-101839714D01*
X256194095Y-101744476D01*
X256194095Y-101696857D01*
X256241714Y-101601619D01*
X256289333Y-101554000D01*
X256384571Y-101506380D01*
X256575047Y-101506380D01*
X256670285Y-101554000D01*
X256717904Y-101601619D01*
X256765523Y-101696857D01*
X256765523Y-101744476D01*
X256717904Y-101839714D01*
X256670285Y-101887333D01*
X256575047Y-101934952D01*
X256384571Y-101934952D01*
X256289333Y-101982571D01*
X256241714Y-102030190D01*
X256194095Y-102125428D01*
X256194095Y-102315904D01*
X256241714Y-102411142D01*
X256289333Y-102458761D01*
X256384571Y-102506380D01*
X256575047Y-102506380D01*
X256670285Y-102458761D01*
X256717904Y-102411142D01*
X256765523Y-102315904D01*
X256765523Y-102125428D01*
X256717904Y-102030190D01*
X256670285Y-101982571D01*
X256575047Y-101934952D01*
X234096476Y-102458761D02*
X234239333Y-102506380D01*
X234477428Y-102506380D01*
X234572666Y-102458761D01*
X234620285Y-102411142D01*
X234667904Y-102315904D01*
X234667904Y-102220666D01*
X234620285Y-102125428D01*
X234572666Y-102077809D01*
X234477428Y-102030190D01*
X234286952Y-101982571D01*
X234191714Y-101934952D01*
X234144095Y-101887333D01*
X234096476Y-101792095D01*
X234096476Y-101696857D01*
X234144095Y-101601619D01*
X234191714Y-101554000D01*
X234286952Y-101506380D01*
X234525047Y-101506380D01*
X234667904Y-101554000D01*
X235001238Y-101506380D02*
X235239333Y-102506380D01*
X235429809Y-101792095D01*
X235620285Y-102506380D01*
X235858380Y-101506380D01*
X236191714Y-101601619D02*
X236239333Y-101554000D01*
X236334571Y-101506380D01*
X236572666Y-101506380D01*
X236667904Y-101554000D01*
X236715523Y-101601619D01*
X236763142Y-101696857D01*
X236763142Y-101792095D01*
X236715523Y-101934952D01*
X236144095Y-102506380D01*
X236763142Y-102506380D01*
X237096476Y-101506380D02*
X237763142Y-101506380D01*
X237334571Y-102506380D01*
X215046476Y-102458761D02*
X215189333Y-102506380D01*
X215427428Y-102506380D01*
X215522666Y-102458761D01*
X215570285Y-102411142D01*
X215617904Y-102315904D01*
X215617904Y-102220666D01*
X215570285Y-102125428D01*
X215522666Y-102077809D01*
X215427428Y-102030190D01*
X215236952Y-101982571D01*
X215141714Y-101934952D01*
X215094095Y-101887333D01*
X215046476Y-101792095D01*
X215046476Y-101696857D01*
X215094095Y-101601619D01*
X215141714Y-101554000D01*
X215236952Y-101506380D01*
X215475047Y-101506380D01*
X215617904Y-101554000D01*
X215951238Y-101506380D02*
X216189333Y-102506380D01*
X216379809Y-101792095D01*
X216570285Y-102506380D01*
X216808380Y-101506380D01*
X217141714Y-101601619D02*
X217189333Y-101554000D01*
X217284571Y-101506380D01*
X217522666Y-101506380D01*
X217617904Y-101554000D01*
X217665523Y-101601619D01*
X217713142Y-101696857D01*
X217713142Y-101792095D01*
X217665523Y-101934952D01*
X217094095Y-102506380D01*
X217713142Y-102506380D01*
X218570285Y-101506380D02*
X218379809Y-101506380D01*
X218284571Y-101554000D01*
X218236952Y-101601619D01*
X218141714Y-101744476D01*
X218094095Y-101934952D01*
X218094095Y-102315904D01*
X218141714Y-102411142D01*
X218189333Y-102458761D01*
X218284571Y-102506380D01*
X218475047Y-102506380D01*
X218570285Y-102458761D01*
X218617904Y-102411142D01*
X218665523Y-102315904D01*
X218665523Y-102077809D01*
X218617904Y-101982571D01*
X218570285Y-101934952D01*
X218475047Y-101887333D01*
X218284571Y-101887333D01*
X218189333Y-101934952D01*
X218141714Y-101982571D01*
X218094095Y-102077809D01*
X195996476Y-102458761D02*
X196139333Y-102506380D01*
X196377428Y-102506380D01*
X196472666Y-102458761D01*
X196520285Y-102411142D01*
X196567904Y-102315904D01*
X196567904Y-102220666D01*
X196520285Y-102125428D01*
X196472666Y-102077809D01*
X196377428Y-102030190D01*
X196186952Y-101982571D01*
X196091714Y-101934952D01*
X196044095Y-101887333D01*
X195996476Y-101792095D01*
X195996476Y-101696857D01*
X196044095Y-101601619D01*
X196091714Y-101554000D01*
X196186952Y-101506380D01*
X196425047Y-101506380D01*
X196567904Y-101554000D01*
X196901238Y-101506380D02*
X197139333Y-102506380D01*
X197329809Y-101792095D01*
X197520285Y-102506380D01*
X197758380Y-101506380D01*
X198091714Y-101601619D02*
X198139333Y-101554000D01*
X198234571Y-101506380D01*
X198472666Y-101506380D01*
X198567904Y-101554000D01*
X198615523Y-101601619D01*
X198663142Y-101696857D01*
X198663142Y-101792095D01*
X198615523Y-101934952D01*
X198044095Y-102506380D01*
X198663142Y-102506380D01*
X199567904Y-101506380D02*
X199091714Y-101506380D01*
X199044095Y-101982571D01*
X199091714Y-101934952D01*
X199186952Y-101887333D01*
X199425047Y-101887333D01*
X199520285Y-101934952D01*
X199567904Y-101982571D01*
X199615523Y-102077809D01*
X199615523Y-102315904D01*
X199567904Y-102411142D01*
X199520285Y-102458761D01*
X199425047Y-102506380D01*
X199186952Y-102506380D01*
X199091714Y-102458761D01*
X199044095Y-102411142D01*
X176946476Y-102458761D02*
X177089333Y-102506380D01*
X177327428Y-102506380D01*
X177422666Y-102458761D01*
X177470285Y-102411142D01*
X177517904Y-102315904D01*
X177517904Y-102220666D01*
X177470285Y-102125428D01*
X177422666Y-102077809D01*
X177327428Y-102030190D01*
X177136952Y-101982571D01*
X177041714Y-101934952D01*
X176994095Y-101887333D01*
X176946476Y-101792095D01*
X176946476Y-101696857D01*
X176994095Y-101601619D01*
X177041714Y-101554000D01*
X177136952Y-101506380D01*
X177375047Y-101506380D01*
X177517904Y-101554000D01*
X177851238Y-101506380D02*
X178089333Y-102506380D01*
X178279809Y-101792095D01*
X178470285Y-102506380D01*
X178708380Y-101506380D01*
X179041714Y-101601619D02*
X179089333Y-101554000D01*
X179184571Y-101506380D01*
X179422666Y-101506380D01*
X179517904Y-101554000D01*
X179565523Y-101601619D01*
X179613142Y-101696857D01*
X179613142Y-101792095D01*
X179565523Y-101934952D01*
X178994095Y-102506380D01*
X179613142Y-102506380D01*
X180470285Y-101839714D02*
X180470285Y-102506380D01*
X180232190Y-101458761D02*
X179994095Y-102173047D01*
X180613142Y-102173047D01*
X157896476Y-102458761D02*
X158039333Y-102506380D01*
X158277428Y-102506380D01*
X158372666Y-102458761D01*
X158420285Y-102411142D01*
X158467904Y-102315904D01*
X158467904Y-102220666D01*
X158420285Y-102125428D01*
X158372666Y-102077809D01*
X158277428Y-102030190D01*
X158086952Y-101982571D01*
X157991714Y-101934952D01*
X157944095Y-101887333D01*
X157896476Y-101792095D01*
X157896476Y-101696857D01*
X157944095Y-101601619D01*
X157991714Y-101554000D01*
X158086952Y-101506380D01*
X158325047Y-101506380D01*
X158467904Y-101554000D01*
X158801238Y-101506380D02*
X159039333Y-102506380D01*
X159229809Y-101792095D01*
X159420285Y-102506380D01*
X159658380Y-101506380D01*
X159991714Y-101601619D02*
X160039333Y-101554000D01*
X160134571Y-101506380D01*
X160372666Y-101506380D01*
X160467904Y-101554000D01*
X160515523Y-101601619D01*
X160563142Y-101696857D01*
X160563142Y-101792095D01*
X160515523Y-101934952D01*
X159944095Y-102506380D01*
X160563142Y-102506380D01*
X160896476Y-101506380D02*
X161515523Y-101506380D01*
X161182190Y-101887333D01*
X161325047Y-101887333D01*
X161420285Y-101934952D01*
X161467904Y-101982571D01*
X161515523Y-102077809D01*
X161515523Y-102315904D01*
X161467904Y-102411142D01*
X161420285Y-102458761D01*
X161325047Y-102506380D01*
X161039333Y-102506380D01*
X160944095Y-102458761D01*
X160896476Y-102411142D01*
X138846476Y-102458761D02*
X138989333Y-102506380D01*
X139227428Y-102506380D01*
X139322666Y-102458761D01*
X139370285Y-102411142D01*
X139417904Y-102315904D01*
X139417904Y-102220666D01*
X139370285Y-102125428D01*
X139322666Y-102077809D01*
X139227428Y-102030190D01*
X139036952Y-101982571D01*
X138941714Y-101934952D01*
X138894095Y-101887333D01*
X138846476Y-101792095D01*
X138846476Y-101696857D01*
X138894095Y-101601619D01*
X138941714Y-101554000D01*
X139036952Y-101506380D01*
X139275047Y-101506380D01*
X139417904Y-101554000D01*
X139751238Y-101506380D02*
X139989333Y-102506380D01*
X140179809Y-101792095D01*
X140370285Y-102506380D01*
X140608380Y-101506380D01*
X140941714Y-101601619D02*
X140989333Y-101554000D01*
X141084571Y-101506380D01*
X141322666Y-101506380D01*
X141417904Y-101554000D01*
X141465523Y-101601619D01*
X141513142Y-101696857D01*
X141513142Y-101792095D01*
X141465523Y-101934952D01*
X140894095Y-102506380D01*
X141513142Y-102506380D01*
X141894095Y-101601619D02*
X141941714Y-101554000D01*
X142036952Y-101506380D01*
X142275047Y-101506380D01*
X142370285Y-101554000D01*
X142417904Y-101601619D01*
X142465523Y-101696857D01*
X142465523Y-101792095D01*
X142417904Y-101934952D01*
X141846476Y-102506380D01*
X142465523Y-102506380D01*
X119796476Y-102458761D02*
X119939333Y-102506380D01*
X120177428Y-102506380D01*
X120272666Y-102458761D01*
X120320285Y-102411142D01*
X120367904Y-102315904D01*
X120367904Y-102220666D01*
X120320285Y-102125428D01*
X120272666Y-102077809D01*
X120177428Y-102030190D01*
X119986952Y-101982571D01*
X119891714Y-101934952D01*
X119844095Y-101887333D01*
X119796476Y-101792095D01*
X119796476Y-101696857D01*
X119844095Y-101601619D01*
X119891714Y-101554000D01*
X119986952Y-101506380D01*
X120225047Y-101506380D01*
X120367904Y-101554000D01*
X120701238Y-101506380D02*
X120939333Y-102506380D01*
X121129809Y-101792095D01*
X121320285Y-102506380D01*
X121558380Y-101506380D01*
X121891714Y-101601619D02*
X121939333Y-101554000D01*
X122034571Y-101506380D01*
X122272666Y-101506380D01*
X122367904Y-101554000D01*
X122415523Y-101601619D01*
X122463142Y-101696857D01*
X122463142Y-101792095D01*
X122415523Y-101934952D01*
X121844095Y-102506380D01*
X122463142Y-102506380D01*
X123415523Y-102506380D02*
X122844095Y-102506380D01*
X123129809Y-102506380D02*
X123129809Y-101506380D01*
X123034571Y-101649238D01*
X122939333Y-101744476D01*
X122844095Y-101792095D01*
X100746476Y-102458761D02*
X100889333Y-102506380D01*
X101127428Y-102506380D01*
X101222666Y-102458761D01*
X101270285Y-102411142D01*
X101317904Y-102315904D01*
X101317904Y-102220666D01*
X101270285Y-102125428D01*
X101222666Y-102077809D01*
X101127428Y-102030190D01*
X100936952Y-101982571D01*
X100841714Y-101934952D01*
X100794095Y-101887333D01*
X100746476Y-101792095D01*
X100746476Y-101696857D01*
X100794095Y-101601619D01*
X100841714Y-101554000D01*
X100936952Y-101506380D01*
X101175047Y-101506380D01*
X101317904Y-101554000D01*
X101651238Y-101506380D02*
X101889333Y-102506380D01*
X102079809Y-101792095D01*
X102270285Y-102506380D01*
X102508380Y-101506380D01*
X102841714Y-101601619D02*
X102889333Y-101554000D01*
X102984571Y-101506380D01*
X103222666Y-101506380D01*
X103317904Y-101554000D01*
X103365523Y-101601619D01*
X103413142Y-101696857D01*
X103413142Y-101792095D01*
X103365523Y-101934952D01*
X102794095Y-102506380D01*
X103413142Y-102506380D01*
X104032190Y-101506380D02*
X104127428Y-101506380D01*
X104222666Y-101554000D01*
X104270285Y-101601619D01*
X104317904Y-101696857D01*
X104365523Y-101887333D01*
X104365523Y-102125428D01*
X104317904Y-102315904D01*
X104270285Y-102411142D01*
X104222666Y-102458761D01*
X104127428Y-102506380D01*
X104032190Y-102506380D01*
X103936952Y-102458761D01*
X103889333Y-102411142D01*
X103841714Y-102315904D01*
X103794095Y-102125428D01*
X103794095Y-101887333D01*
X103841714Y-101696857D01*
X103889333Y-101601619D01*
X103936952Y-101554000D01*
X104032190Y-101506380D01*
X81696676Y-102458761D02*
X81839533Y-102506380D01*
X82077628Y-102506380D01*
X82172866Y-102458761D01*
X82220485Y-102411142D01*
X82268104Y-102315904D01*
X82268104Y-102220666D01*
X82220485Y-102125428D01*
X82172866Y-102077809D01*
X82077628Y-102030190D01*
X81887152Y-101982571D01*
X81791914Y-101934952D01*
X81744295Y-101887333D01*
X81696676Y-101792095D01*
X81696676Y-101696857D01*
X81744295Y-101601619D01*
X81791914Y-101554000D01*
X81887152Y-101506380D01*
X82125247Y-101506380D01*
X82268104Y-101554000D01*
X82601438Y-101506380D02*
X82839533Y-102506380D01*
X83030009Y-101792095D01*
X83220485Y-102506380D01*
X83458580Y-101506380D01*
X84363342Y-102506380D02*
X83791914Y-102506380D01*
X84077628Y-102506380D02*
X84077628Y-101506380D01*
X83982390Y-101649238D01*
X83887152Y-101744476D01*
X83791914Y-101792095D01*
X84839533Y-102506380D02*
X85030009Y-102506380D01*
X85125247Y-102458761D01*
X85172866Y-102411142D01*
X85268104Y-102268285D01*
X85315723Y-102077809D01*
X85315723Y-101696857D01*
X85268104Y-101601619D01*
X85220485Y-101554000D01*
X85125247Y-101506380D01*
X84934771Y-101506380D01*
X84839533Y-101554000D01*
X84791914Y-101601619D01*
X84744295Y-101696857D01*
X84744295Y-101934952D01*
X84791914Y-102030190D01*
X84839533Y-102077809D01*
X84934771Y-102125428D01*
X85125247Y-102125428D01*
X85220485Y-102077809D01*
X85268104Y-102030190D01*
X85315723Y-101934952D01*
X62646676Y-102458761D02*
X62789533Y-102506380D01*
X63027628Y-102506380D01*
X63122866Y-102458761D01*
X63170485Y-102411142D01*
X63218104Y-102315904D01*
X63218104Y-102220666D01*
X63170485Y-102125428D01*
X63122866Y-102077809D01*
X63027628Y-102030190D01*
X62837152Y-101982571D01*
X62741914Y-101934952D01*
X62694295Y-101887333D01*
X62646676Y-101792095D01*
X62646676Y-101696857D01*
X62694295Y-101601619D01*
X62741914Y-101554000D01*
X62837152Y-101506380D01*
X63075247Y-101506380D01*
X63218104Y-101554000D01*
X63551438Y-101506380D02*
X63789533Y-102506380D01*
X63980009Y-101792095D01*
X64170485Y-102506380D01*
X64408580Y-101506380D01*
X65313342Y-102506380D02*
X64741914Y-102506380D01*
X65027628Y-102506380D02*
X65027628Y-101506380D01*
X64932390Y-101649238D01*
X64837152Y-101744476D01*
X64741914Y-101792095D01*
X65884771Y-101934952D02*
X65789533Y-101887333D01*
X65741914Y-101839714D01*
X65694295Y-101744476D01*
X65694295Y-101696857D01*
X65741914Y-101601619D01*
X65789533Y-101554000D01*
X65884771Y-101506380D01*
X66075247Y-101506380D01*
X66170485Y-101554000D01*
X66218104Y-101601619D01*
X66265723Y-101696857D01*
X66265723Y-101744476D01*
X66218104Y-101839714D01*
X66170485Y-101887333D01*
X66075247Y-101934952D01*
X65884771Y-101934952D01*
X65789533Y-101982571D01*
X65741914Y-102030190D01*
X65694295Y-102125428D01*
X65694295Y-102315904D01*
X65741914Y-102411142D01*
X65789533Y-102458761D01*
X65884771Y-102506380D01*
X66075247Y-102506380D01*
X66170485Y-102458761D01*
X66218104Y-102411142D01*
X66265723Y-102315904D01*
X66265723Y-102125428D01*
X66218104Y-102030190D01*
X66170485Y-101982571D01*
X66075247Y-101934952D01*
X43596676Y-102458761D02*
X43739533Y-102506380D01*
X43977628Y-102506380D01*
X44072866Y-102458761D01*
X44120485Y-102411142D01*
X44168104Y-102315904D01*
X44168104Y-102220666D01*
X44120485Y-102125428D01*
X44072866Y-102077809D01*
X43977628Y-102030190D01*
X43787152Y-101982571D01*
X43691914Y-101934952D01*
X43644295Y-101887333D01*
X43596676Y-101792095D01*
X43596676Y-101696857D01*
X43644295Y-101601619D01*
X43691914Y-101554000D01*
X43787152Y-101506380D01*
X44025247Y-101506380D01*
X44168104Y-101554000D01*
X44501438Y-101506380D02*
X44739533Y-102506380D01*
X44930009Y-101792095D01*
X45120485Y-102506380D01*
X45358580Y-101506380D01*
X46263342Y-102506380D02*
X45691914Y-102506380D01*
X45977628Y-102506380D02*
X45977628Y-101506380D01*
X45882390Y-101649238D01*
X45787152Y-101744476D01*
X45691914Y-101792095D01*
X46596676Y-101506380D02*
X47263342Y-101506380D01*
X46834771Y-102506380D01*
X372399476Y-74455761D02*
X372542333Y-74503380D01*
X372780428Y-74503380D01*
X372875666Y-74455761D01*
X372923285Y-74408142D01*
X372970904Y-74312904D01*
X372970904Y-74217666D01*
X372923285Y-74122428D01*
X372875666Y-74074809D01*
X372780428Y-74027190D01*
X372589952Y-73979571D01*
X372494714Y-73931952D01*
X372447095Y-73884333D01*
X372399476Y-73789095D01*
X372399476Y-73693857D01*
X372447095Y-73598619D01*
X372494714Y-73551000D01*
X372589952Y-73503380D01*
X372828047Y-73503380D01*
X372970904Y-73551000D01*
X373304238Y-73503380D02*
X373542333Y-74503380D01*
X373732809Y-73789095D01*
X373923285Y-74503380D01*
X374161380Y-73503380D01*
X375066142Y-74503380D02*
X374494714Y-74503380D01*
X374780428Y-74503380D02*
X374780428Y-73503380D01*
X374685190Y-73646238D01*
X374589952Y-73741476D01*
X374494714Y-73789095D01*
X375923285Y-73503380D02*
X375732809Y-73503380D01*
X375637571Y-73551000D01*
X375589952Y-73598619D01*
X375494714Y-73741476D01*
X375447095Y-73931952D01*
X375447095Y-74312904D01*
X375494714Y-74408142D01*
X375542333Y-74455761D01*
X375637571Y-74503380D01*
X375828047Y-74503380D01*
X375923285Y-74455761D01*
X375970904Y-74408142D01*
X376018523Y-74312904D01*
X376018523Y-74074809D01*
X375970904Y-73979571D01*
X375923285Y-73931952D01*
X375828047Y-73884333D01*
X375637571Y-73884333D01*
X375542333Y-73931952D01*
X375494714Y-73979571D01*
X375447095Y-74074809D01*
X353349476Y-74455761D02*
X353492333Y-74503380D01*
X353730428Y-74503380D01*
X353825666Y-74455761D01*
X353873285Y-74408142D01*
X353920904Y-74312904D01*
X353920904Y-74217666D01*
X353873285Y-74122428D01*
X353825666Y-74074809D01*
X353730428Y-74027190D01*
X353539952Y-73979571D01*
X353444714Y-73931952D01*
X353397095Y-73884333D01*
X353349476Y-73789095D01*
X353349476Y-73693857D01*
X353397095Y-73598619D01*
X353444714Y-73551000D01*
X353539952Y-73503380D01*
X353778047Y-73503380D01*
X353920904Y-73551000D01*
X354254238Y-73503380D02*
X354492333Y-74503380D01*
X354682809Y-73789095D01*
X354873285Y-74503380D01*
X355111380Y-73503380D01*
X356016142Y-74503380D02*
X355444714Y-74503380D01*
X355730428Y-74503380D02*
X355730428Y-73503380D01*
X355635190Y-73646238D01*
X355539952Y-73741476D01*
X355444714Y-73789095D01*
X356920904Y-73503380D02*
X356444714Y-73503380D01*
X356397095Y-73979571D01*
X356444714Y-73931952D01*
X356539952Y-73884333D01*
X356778047Y-73884333D01*
X356873285Y-73931952D01*
X356920904Y-73979571D01*
X356968523Y-74074809D01*
X356968523Y-74312904D01*
X356920904Y-74408142D01*
X356873285Y-74455761D01*
X356778047Y-74503380D01*
X356539952Y-74503380D01*
X356444714Y-74455761D01*
X356397095Y-74408142D01*
X334299476Y-74455761D02*
X334442333Y-74503380D01*
X334680428Y-74503380D01*
X334775666Y-74455761D01*
X334823285Y-74408142D01*
X334870904Y-74312904D01*
X334870904Y-74217666D01*
X334823285Y-74122428D01*
X334775666Y-74074809D01*
X334680428Y-74027190D01*
X334489952Y-73979571D01*
X334394714Y-73931952D01*
X334347095Y-73884333D01*
X334299476Y-73789095D01*
X334299476Y-73693857D01*
X334347095Y-73598619D01*
X334394714Y-73551000D01*
X334489952Y-73503380D01*
X334728047Y-73503380D01*
X334870904Y-73551000D01*
X335204238Y-73503380D02*
X335442333Y-74503380D01*
X335632809Y-73789095D01*
X335823285Y-74503380D01*
X336061380Y-73503380D01*
X336966142Y-74503380D02*
X336394714Y-74503380D01*
X336680428Y-74503380D02*
X336680428Y-73503380D01*
X336585190Y-73646238D01*
X336489952Y-73741476D01*
X336394714Y-73789095D01*
X337823285Y-73836714D02*
X337823285Y-74503380D01*
X337585190Y-73455761D02*
X337347095Y-74170047D01*
X337966142Y-74170047D01*
X310296476Y-74455761D02*
X310439333Y-74503380D01*
X310677428Y-74503380D01*
X310772666Y-74455761D01*
X310820285Y-74408142D01*
X310867904Y-74312904D01*
X310867904Y-74217666D01*
X310820285Y-74122428D01*
X310772666Y-74074809D01*
X310677428Y-74027190D01*
X310486952Y-73979571D01*
X310391714Y-73931952D01*
X310344095Y-73884333D01*
X310296476Y-73789095D01*
X310296476Y-73693857D01*
X310344095Y-73598619D01*
X310391714Y-73551000D01*
X310486952Y-73503380D01*
X310725047Y-73503380D01*
X310867904Y-73551000D01*
X311201238Y-73503380D02*
X311439333Y-74503380D01*
X311629809Y-73789095D01*
X311820285Y-74503380D01*
X312058380Y-73503380D01*
X312963142Y-74503380D02*
X312391714Y-74503380D01*
X312677428Y-74503380D02*
X312677428Y-73503380D01*
X312582190Y-73646238D01*
X312486952Y-73741476D01*
X312391714Y-73789095D01*
X313296476Y-73503380D02*
X313915523Y-73503380D01*
X313582190Y-73884333D01*
X313725047Y-73884333D01*
X313820285Y-73931952D01*
X313867904Y-73979571D01*
X313915523Y-74074809D01*
X313915523Y-74312904D01*
X313867904Y-74408142D01*
X313820285Y-74455761D01*
X313725047Y-74503380D01*
X313439333Y-74503380D01*
X313344095Y-74455761D01*
X313296476Y-74408142D01*
X291246476Y-74455761D02*
X291389333Y-74503380D01*
X291627428Y-74503380D01*
X291722666Y-74455761D01*
X291770285Y-74408142D01*
X291817904Y-74312904D01*
X291817904Y-74217666D01*
X291770285Y-74122428D01*
X291722666Y-74074809D01*
X291627428Y-74027190D01*
X291436952Y-73979571D01*
X291341714Y-73931952D01*
X291294095Y-73884333D01*
X291246476Y-73789095D01*
X291246476Y-73693857D01*
X291294095Y-73598619D01*
X291341714Y-73551000D01*
X291436952Y-73503380D01*
X291675047Y-73503380D01*
X291817904Y-73551000D01*
X292151238Y-73503380D02*
X292389333Y-74503380D01*
X292579809Y-73789095D01*
X292770285Y-74503380D01*
X293008380Y-73503380D01*
X293913142Y-74503380D02*
X293341714Y-74503380D01*
X293627428Y-74503380D02*
X293627428Y-73503380D01*
X293532190Y-73646238D01*
X293436952Y-73741476D01*
X293341714Y-73789095D01*
X294294095Y-73598619D02*
X294341714Y-73551000D01*
X294436952Y-73503380D01*
X294675047Y-73503380D01*
X294770285Y-73551000D01*
X294817904Y-73598619D01*
X294865523Y-73693857D01*
X294865523Y-73789095D01*
X294817904Y-73931952D01*
X294246476Y-74503380D01*
X294865523Y-74503380D01*
X272196476Y-74455761D02*
X272339333Y-74503380D01*
X272577428Y-74503380D01*
X272672666Y-74455761D01*
X272720285Y-74408142D01*
X272767904Y-74312904D01*
X272767904Y-74217666D01*
X272720285Y-74122428D01*
X272672666Y-74074809D01*
X272577428Y-74027190D01*
X272386952Y-73979571D01*
X272291714Y-73931952D01*
X272244095Y-73884333D01*
X272196476Y-73789095D01*
X272196476Y-73693857D01*
X272244095Y-73598619D01*
X272291714Y-73551000D01*
X272386952Y-73503380D01*
X272625047Y-73503380D01*
X272767904Y-73551000D01*
X273101238Y-73503380D02*
X273339333Y-74503380D01*
X273529809Y-73789095D01*
X273720285Y-74503380D01*
X273958380Y-73503380D01*
X274863142Y-74503380D02*
X274291714Y-74503380D01*
X274577428Y-74503380D02*
X274577428Y-73503380D01*
X274482190Y-73646238D01*
X274386952Y-73741476D01*
X274291714Y-73789095D01*
X275815523Y-74503380D02*
X275244095Y-74503380D01*
X275529809Y-74503380D02*
X275529809Y-73503380D01*
X275434571Y-73646238D01*
X275339333Y-73741476D01*
X275244095Y-73789095D01*
X253146476Y-74455761D02*
X253289333Y-74503380D01*
X253527428Y-74503380D01*
X253622666Y-74455761D01*
X253670285Y-74408142D01*
X253717904Y-74312904D01*
X253717904Y-74217666D01*
X253670285Y-74122428D01*
X253622666Y-74074809D01*
X253527428Y-74027190D01*
X253336952Y-73979571D01*
X253241714Y-73931952D01*
X253194095Y-73884333D01*
X253146476Y-73789095D01*
X253146476Y-73693857D01*
X253194095Y-73598619D01*
X253241714Y-73551000D01*
X253336952Y-73503380D01*
X253575047Y-73503380D01*
X253717904Y-73551000D01*
X254051238Y-73503380D02*
X254289333Y-74503380D01*
X254479809Y-73789095D01*
X254670285Y-74503380D01*
X254908380Y-73503380D01*
X255813142Y-74503380D02*
X255241714Y-74503380D01*
X255527428Y-74503380D02*
X255527428Y-73503380D01*
X255432190Y-73646238D01*
X255336952Y-73741476D01*
X255241714Y-73789095D01*
X256432190Y-73503380D02*
X256527428Y-73503380D01*
X256622666Y-73551000D01*
X256670285Y-73598619D01*
X256717904Y-73693857D01*
X256765523Y-73884333D01*
X256765523Y-74122428D01*
X256717904Y-74312904D01*
X256670285Y-74408142D01*
X256622666Y-74455761D01*
X256527428Y-74503380D01*
X256432190Y-74503380D01*
X256336952Y-74455761D01*
X256289333Y-74408142D01*
X256241714Y-74312904D01*
X256194095Y-74122428D01*
X256194095Y-73884333D01*
X256241714Y-73693857D01*
X256289333Y-73598619D01*
X256336952Y-73551000D01*
X256432190Y-73503380D01*
X225047666Y-74455761D02*
X225190523Y-74503380D01*
X225428619Y-74503380D01*
X225523857Y-74455761D01*
X225571476Y-74408142D01*
X225619095Y-74312904D01*
X225619095Y-74217666D01*
X225571476Y-74122428D01*
X225523857Y-74074809D01*
X225428619Y-74027190D01*
X225238142Y-73979571D01*
X225142904Y-73931952D01*
X225095285Y-73884333D01*
X225047666Y-73789095D01*
X225047666Y-73693857D01*
X225095285Y-73598619D01*
X225142904Y-73551000D01*
X225238142Y-73503380D01*
X225476238Y-73503380D01*
X225619095Y-73551000D01*
X225952428Y-73503380D02*
X226190523Y-74503380D01*
X226381000Y-73789095D01*
X226571476Y-74503380D01*
X226809571Y-73503380D01*
X227238142Y-74503380D02*
X227428619Y-74503380D01*
X227523857Y-74455761D01*
X227571476Y-74408142D01*
X227666714Y-74265285D01*
X227714333Y-74074809D01*
X227714333Y-73693857D01*
X227666714Y-73598619D01*
X227619095Y-73551000D01*
X227523857Y-73503380D01*
X227333380Y-73503380D01*
X227238142Y-73551000D01*
X227190523Y-73598619D01*
X227142904Y-73693857D01*
X227142904Y-73931952D01*
X227190523Y-74027190D01*
X227238142Y-74074809D01*
X227333380Y-74122428D01*
X227523857Y-74122428D01*
X227619095Y-74074809D01*
X227666714Y-74027190D01*
X227714333Y-73931952D01*
X205997666Y-74455761D02*
X206140523Y-74503380D01*
X206378619Y-74503380D01*
X206473857Y-74455761D01*
X206521476Y-74408142D01*
X206569095Y-74312904D01*
X206569095Y-74217666D01*
X206521476Y-74122428D01*
X206473857Y-74074809D01*
X206378619Y-74027190D01*
X206188142Y-73979571D01*
X206092904Y-73931952D01*
X206045285Y-73884333D01*
X205997666Y-73789095D01*
X205997666Y-73693857D01*
X206045285Y-73598619D01*
X206092904Y-73551000D01*
X206188142Y-73503380D01*
X206426238Y-73503380D01*
X206569095Y-73551000D01*
X206902428Y-73503380D02*
X207140523Y-74503380D01*
X207331000Y-73789095D01*
X207521476Y-74503380D01*
X207759571Y-73503380D01*
X208283380Y-73931952D02*
X208188142Y-73884333D01*
X208140523Y-73836714D01*
X208092904Y-73741476D01*
X208092904Y-73693857D01*
X208140523Y-73598619D01*
X208188142Y-73551000D01*
X208283380Y-73503380D01*
X208473857Y-73503380D01*
X208569095Y-73551000D01*
X208616714Y-73598619D01*
X208664333Y-73693857D01*
X208664333Y-73741476D01*
X208616714Y-73836714D01*
X208569095Y-73884333D01*
X208473857Y-73931952D01*
X208283380Y-73931952D01*
X208188142Y-73979571D01*
X208140523Y-74027190D01*
X208092904Y-74122428D01*
X208092904Y-74312904D01*
X208140523Y-74408142D01*
X208188142Y-74455761D01*
X208283380Y-74503380D01*
X208473857Y-74503380D01*
X208569095Y-74455761D01*
X208616714Y-74408142D01*
X208664333Y-74312904D01*
X208664333Y-74122428D01*
X208616714Y-74027190D01*
X208569095Y-73979571D01*
X208473857Y-73931952D01*
X186947666Y-74455761D02*
X187090523Y-74503380D01*
X187328619Y-74503380D01*
X187423857Y-74455761D01*
X187471476Y-74408142D01*
X187519095Y-74312904D01*
X187519095Y-74217666D01*
X187471476Y-74122428D01*
X187423857Y-74074809D01*
X187328619Y-74027190D01*
X187138142Y-73979571D01*
X187042904Y-73931952D01*
X186995285Y-73884333D01*
X186947666Y-73789095D01*
X186947666Y-73693857D01*
X186995285Y-73598619D01*
X187042904Y-73551000D01*
X187138142Y-73503380D01*
X187376238Y-73503380D01*
X187519095Y-73551000D01*
X187852428Y-73503380D02*
X188090523Y-74503380D01*
X188281000Y-73789095D01*
X188471476Y-74503380D01*
X188709571Y-73503380D01*
X188995285Y-73503380D02*
X189661952Y-73503380D01*
X189233380Y-74503380D01*
X167897666Y-74455761D02*
X168040523Y-74503380D01*
X168278619Y-74503380D01*
X168373857Y-74455761D01*
X168421476Y-74408142D01*
X168469095Y-74312904D01*
X168469095Y-74217666D01*
X168421476Y-74122428D01*
X168373857Y-74074809D01*
X168278619Y-74027190D01*
X168088142Y-73979571D01*
X167992904Y-73931952D01*
X167945285Y-73884333D01*
X167897666Y-73789095D01*
X167897666Y-73693857D01*
X167945285Y-73598619D01*
X167992904Y-73551000D01*
X168088142Y-73503380D01*
X168326238Y-73503380D01*
X168469095Y-73551000D01*
X168802428Y-73503380D02*
X169040523Y-74503380D01*
X169231000Y-73789095D01*
X169421476Y-74503380D01*
X169659571Y-73503380D01*
X170469095Y-73503380D02*
X170278619Y-73503380D01*
X170183380Y-73551000D01*
X170135761Y-73598619D01*
X170040523Y-73741476D01*
X169992904Y-73931952D01*
X169992904Y-74312904D01*
X170040523Y-74408142D01*
X170088142Y-74455761D01*
X170183380Y-74503380D01*
X170373857Y-74503380D01*
X170469095Y-74455761D01*
X170516714Y-74408142D01*
X170564333Y-74312904D01*
X170564333Y-74074809D01*
X170516714Y-73979571D01*
X170469095Y-73931952D01*
X170373857Y-73884333D01*
X170183380Y-73884333D01*
X170088142Y-73931952D01*
X170040523Y-73979571D01*
X169992904Y-74074809D01*
X139322666Y-74455761D02*
X139465523Y-74503380D01*
X139703619Y-74503380D01*
X139798857Y-74455761D01*
X139846476Y-74408142D01*
X139894095Y-74312904D01*
X139894095Y-74217666D01*
X139846476Y-74122428D01*
X139798857Y-74074809D01*
X139703619Y-74027190D01*
X139513142Y-73979571D01*
X139417904Y-73931952D01*
X139370285Y-73884333D01*
X139322666Y-73789095D01*
X139322666Y-73693857D01*
X139370285Y-73598619D01*
X139417904Y-73551000D01*
X139513142Y-73503380D01*
X139751238Y-73503380D01*
X139894095Y-73551000D01*
X140227428Y-73503380D02*
X140465523Y-74503380D01*
X140656000Y-73789095D01*
X140846476Y-74503380D01*
X141084571Y-73503380D01*
X141941714Y-73503380D02*
X141465523Y-73503380D01*
X141417904Y-73979571D01*
X141465523Y-73931952D01*
X141560761Y-73884333D01*
X141798857Y-73884333D01*
X141894095Y-73931952D01*
X141941714Y-73979571D01*
X141989333Y-74074809D01*
X141989333Y-74312904D01*
X141941714Y-74408142D01*
X141894095Y-74455761D01*
X141798857Y-74503380D01*
X141560761Y-74503380D01*
X141465523Y-74455761D01*
X141417904Y-74408142D01*
X120272666Y-74455761D02*
X120415523Y-74503380D01*
X120653619Y-74503380D01*
X120748857Y-74455761D01*
X120796476Y-74408142D01*
X120844095Y-74312904D01*
X120844095Y-74217666D01*
X120796476Y-74122428D01*
X120748857Y-74074809D01*
X120653619Y-74027190D01*
X120463142Y-73979571D01*
X120367904Y-73931952D01*
X120320285Y-73884333D01*
X120272666Y-73789095D01*
X120272666Y-73693857D01*
X120320285Y-73598619D01*
X120367904Y-73551000D01*
X120463142Y-73503380D01*
X120701238Y-73503380D01*
X120844095Y-73551000D01*
X121177428Y-73503380D02*
X121415523Y-74503380D01*
X121606000Y-73789095D01*
X121796476Y-74503380D01*
X122034571Y-73503380D01*
X122844095Y-73836714D02*
X122844095Y-74503380D01*
X122606000Y-73455761D02*
X122367904Y-74170047D01*
X122986952Y-74170047D01*
X101222666Y-74455761D02*
X101365523Y-74503380D01*
X101603619Y-74503380D01*
X101698857Y-74455761D01*
X101746476Y-74408142D01*
X101794095Y-74312904D01*
X101794095Y-74217666D01*
X101746476Y-74122428D01*
X101698857Y-74074809D01*
X101603619Y-74027190D01*
X101413142Y-73979571D01*
X101317904Y-73931952D01*
X101270285Y-73884333D01*
X101222666Y-73789095D01*
X101222666Y-73693857D01*
X101270285Y-73598619D01*
X101317904Y-73551000D01*
X101413142Y-73503380D01*
X101651238Y-73503380D01*
X101794095Y-73551000D01*
X102127428Y-73503380D02*
X102365523Y-74503380D01*
X102556000Y-73789095D01*
X102746476Y-74503380D01*
X102984571Y-73503380D01*
X103270285Y-73503380D02*
X103889333Y-73503380D01*
X103556000Y-73884333D01*
X103698857Y-73884333D01*
X103794095Y-73931952D01*
X103841714Y-73979571D01*
X103889333Y-74074809D01*
X103889333Y-74312904D01*
X103841714Y-74408142D01*
X103794095Y-74455761D01*
X103698857Y-74503380D01*
X103413142Y-74503380D01*
X103317904Y-74455761D01*
X103270285Y-74408142D01*
X82172866Y-74455761D02*
X82315723Y-74503380D01*
X82553819Y-74503380D01*
X82649057Y-74455761D01*
X82696676Y-74408142D01*
X82744295Y-74312904D01*
X82744295Y-74217666D01*
X82696676Y-74122428D01*
X82649057Y-74074809D01*
X82553819Y-74027190D01*
X82363342Y-73979571D01*
X82268104Y-73931952D01*
X82220485Y-73884333D01*
X82172866Y-73789095D01*
X82172866Y-73693857D01*
X82220485Y-73598619D01*
X82268104Y-73551000D01*
X82363342Y-73503380D01*
X82601438Y-73503380D01*
X82744295Y-73551000D01*
X83077628Y-73503380D02*
X83315723Y-74503380D01*
X83506200Y-73789095D01*
X83696676Y-74503380D01*
X83934771Y-73503380D01*
X84268104Y-73598619D02*
X84315723Y-73551000D01*
X84410961Y-73503380D01*
X84649057Y-73503380D01*
X84744295Y-73551000D01*
X84791914Y-73598619D01*
X84839533Y-73693857D01*
X84839533Y-73789095D01*
X84791914Y-73931952D01*
X84220485Y-74503380D01*
X84839533Y-74503380D01*
X44072866Y-74455761D02*
X44215723Y-74503380D01*
X44453819Y-74503380D01*
X44549057Y-74455761D01*
X44596676Y-74408142D01*
X44644295Y-74312904D01*
X44644295Y-74217666D01*
X44596676Y-74122428D01*
X44549057Y-74074809D01*
X44453819Y-74027190D01*
X44263342Y-73979571D01*
X44168104Y-73931952D01*
X44120485Y-73884333D01*
X44072866Y-73789095D01*
X44072866Y-73693857D01*
X44120485Y-73598619D01*
X44168104Y-73551000D01*
X44263342Y-73503380D01*
X44501438Y-73503380D01*
X44644295Y-73551000D01*
X44977628Y-73503380D02*
X45215723Y-74503380D01*
X45406200Y-73789095D01*
X45596676Y-74503380D01*
X45834771Y-73503380D01*
X46739533Y-74503380D02*
X46168104Y-74503380D01*
X46453819Y-74503380D02*
X46453819Y-73503380D01*
X46358580Y-73646238D01*
X46263342Y-73741476D01*
X46168104Y-73789095D01*
X364462333Y-93467380D02*
X363986142Y-93467380D01*
X363986142Y-92467380D01*
X364748047Y-92562619D02*
X364795666Y-92515000D01*
X364890904Y-92467380D01*
X365129000Y-92467380D01*
X365224238Y-92515000D01*
X365271857Y-92562619D01*
X365319476Y-92657857D01*
X365319476Y-92753095D01*
X365271857Y-92895952D01*
X364700428Y-93467380D01*
X365319476Y-93467380D01*
X345412333Y-93467380D02*
X344936142Y-93467380D01*
X344936142Y-92467380D01*
X346269476Y-93467380D02*
X345698047Y-93467380D01*
X345983761Y-93467380D02*
X345983761Y-92467380D01*
X345888523Y-92610238D01*
X345793285Y-92705476D01*
X345698047Y-92753095D01*
M02*
