M48
; DRILL file {KiCad (5.1.4)-1} date 11/16/2019 10:41:36 PM
; FORMAT={-:-/ absolute / metric / decimal}
; #@! TF.CreationDate,2019-11-16T22:41:36+09:00
; #@! TF.GenerationSoftware,Kicad,Pcbnew,(5.1.4)-1
FMAT,2
METRIC
T1C0.400
T2C0.800
T3C0.900
T4C1.100
T5C1.500
T6C1.700
T7C4.000
%
G90
G05
T1
X140.552Y-90.821
X154.112Y-100.591
X178.413Y-90.028
X223.161Y-94.211
X253.363Y-99.416
X276.546Y-99.749
T2
X150.34Y-78.115
X150.34Y-85.735
X193.202Y-163.268
X193.202Y-170.888
X111.919Y-78.115
X111.919Y-85.735
X300.359Y-182.318
X300.359Y-189.938
X221.778Y-144.218
X221.778Y-151.838
X226.54Y-106.118
X226.54Y-113.738
X345.602Y-106.118
X345.602Y-113.738
X228.921Y-182.318
X228.921Y-189.938
X202.728Y-144.218
X202.728Y-151.838
X197.965Y-125.168
X197.965Y-132.788
X150.34Y-106.118
X150.34Y-113.738
X283.69Y-106.118
X283.69Y-113.738
X305.121Y-163.268
X305.121Y-170.888
X293.215Y-125.168
X293.215Y-132.788
X131.29Y-106.118
X131.29Y-113.738
X188.44Y-106.118
X188.44Y-113.738
X105.096Y-182.318
X105.096Y-189.938
X159.865Y-125.168
X159.865Y-132.788
X207.49Y-106.118
X207.49Y-113.738
X59.852Y-125.168
X59.852Y-132.788
X274.165Y-125.168
X274.165Y-132.788
X364.652Y-78.115
X364.652Y-85.735
X364.652Y-182.318
X364.652Y-189.938
X107.478Y-144.218
X107.478Y-151.838
X183.678Y-144.218
X183.678Y-151.838
X321.79Y-78.115
X321.79Y-85.735
X74.14Y-78.115
X74.14Y-85.735
X364.652Y-125.168
X364.652Y-132.788
X66.996Y-163.268
X66.996Y-170.888
X264.64Y-78.115
X264.64Y-85.735
X174.152Y-163.268
X174.152Y-170.888
X345.602Y-78.115
X345.602Y-85.735
X269.402Y-163.268
X269.402Y-170.888
X169.39Y-106.118
X169.39Y-113.738
X351.349Y-91.5
X358.969Y-91.5
X250.352Y-163.268
X250.352Y-170.888
X326.552Y-106.118
X326.552Y-113.738
X121.765Y-125.168
X121.765Y-132.788
X176.534Y-182.318
X176.534Y-189.938
X155.102Y-163.268
X155.102Y-170.888
X326.552Y-125.168
X326.552Y-132.788
X217.015Y-78.115
X217.015Y-85.735
X245.59Y-106.118
X245.59Y-113.738
X62.234Y-144.218
X62.234Y-151.838
X283.69Y-78.115
X283.69Y-85.735
X55.09Y-78.115
X55.09Y-85.735
X102.715Y-125.168
X102.715Y-132.788
X57.471Y-182.318
X57.471Y-189.938
X236.065Y-125.168
X236.065Y-132.788
X55.09Y-106.118
X55.09Y-113.738
X252.734Y-182.318
X252.734Y-189.938
X88.427Y-144.218
X88.427Y-151.838
X140.815Y-125.168
X140.815Y-132.788
X345.602Y-182.318
X345.602Y-189.938
X345.602Y-125.168
X345.602Y-132.788
X278.928Y-144.218
X278.928Y-151.838
X302.74Y-78.115
X302.74Y-85.735
X317.028Y-125.168
X317.028Y-132.788
X231.302Y-163.268
X231.302Y-170.888
X159.865Y-78.115
X159.865Y-85.735
X309.884Y-144.218
X309.884Y-151.838
X236.065Y-78.115
X236.065Y-85.735
X212.252Y-163.268
X212.252Y-170.888
X178.915Y-78.115
X178.915Y-85.735
X332.299Y-91.5
X339.919Y-91.5
X259.878Y-144.218
X259.878Y-151.838
X164.628Y-144.218
X164.628Y-151.838
X264.64Y-106.118
X264.64Y-113.738
X83.665Y-125.168
X83.665Y-132.788
X364.652Y-163.268
X364.652Y-170.888
X136.052Y-163.268
X136.052Y-170.888
X126.528Y-144.218
X126.528Y-151.838
X312.265Y-106.118
X312.265Y-113.738
X364.652Y-106.118
X364.652Y-113.738
X81.284Y-182.318
X81.284Y-189.938
X178.915Y-125.168
X178.915Y-132.788
X93.19Y-78.115
X93.19Y-85.735
X93.19Y-106.118
X93.19Y-113.738
X276.546Y-182.318
X276.546Y-189.938
X145.578Y-144.218
X145.578Y-151.838
X74.14Y-106.118
X74.14Y-113.738
X326.552Y-163.28
X326.552Y-170.9
X255.115Y-125.168
X255.115Y-132.788
X97.953Y-163.268
X97.953Y-170.888
X326.552Y-78.115
X326.552Y-85.735
X217.015Y-125.168
X217.015Y-132.788
X117.002Y-163.268
X117.002Y-170.888
X112.24Y-106.118
X112.24Y-113.738
X240.828Y-144.218
X240.828Y-151.838
T3
X363.359Y-95.975
X365.899Y-95.975
X344.309Y-95.975
X346.849Y-95.975
T4
X116.999Y-86.042
X116.999Y-88.582
X116.999Y-91.123
X116.999Y-93.662
X116.999Y-96.203
X116.999Y-98.742
X116.999Y-101.282
X119.539Y-86.042
X119.539Y-101.282
X122.079Y-86.042
X122.079Y-101.282
X124.619Y-86.042
X124.619Y-101.282
X127.159Y-86.042
X127.159Y-101.282
X129.699Y-86.042
X129.699Y-101.282
X132.239Y-86.042
X132.239Y-101.282
X134.779Y-86.042
X134.779Y-88.582
X134.779Y-98.742
X134.779Y-101.282
X137.319Y-86.042
X137.319Y-101.282
X139.859Y-86.042
X139.859Y-101.282
X142.399Y-86.042
X142.399Y-101.282
X144.939Y-86.042
X144.939Y-101.282
T5
X141.609Y-164.538
X147.959Y-161.998
X41.596Y-107.388
X47.946Y-104.848
X282.102Y-183.588
X288.452Y-181.048
X93.984Y-145.488
X100.334Y-142.948
X265.434Y-145.488
X271.784Y-142.948
X332.299Y-183.588
X338.649Y-181.048
X222.571Y-126.438
X228.921Y-123.898
X84.459Y-164.538
X90.809Y-161.998
X132.084Y-145.488
X138.434Y-142.948
X174.946Y-107.388
X181.296Y-104.848
X117.796Y-79.385
X124.146Y-76.845
X74.934Y-145.488
X81.284Y-142.948
X46.359Y-126.438
X52.709Y-123.898
X251.146Y-79.385
X257.496Y-76.845
X91.602Y-183.588
X97.952Y-181.048
X146.371Y-126.438
X152.721Y-123.898
X41.596Y-79.385
X47.946Y-76.845
X232.096Y-107.388
X238.446Y-104.848
X98.746Y-79.385
X105.096Y-76.845
X351.349Y-164.538
X357.699Y-161.998
X241.621Y-126.438
X247.971Y-123.898
X89.221Y-126.438
X95.571Y-123.898
X198.759Y-164.538
X205.109Y-161.998
X332.299Y-79.385
X338.649Y-76.845
X70.171Y-126.438
X76.521Y-123.898
X103.509Y-164.538
X109.859Y-161.998
X351.349Y-79.385
X357.699Y-76.845
X270.196Y-107.388
X276.546Y-104.848
X227.334Y-145.488
X233.684Y-142.948
X60.646Y-107.388
X66.996Y-104.848
X260.671Y-126.438
X267.021Y-123.898
X217.809Y-164.538
X224.159Y-161.998
X255.909Y-164.538
X262.259Y-161.998
X332.299Y-126.438
X338.649Y-123.898
X236.859Y-164.538
X243.209Y-161.998
X305.915Y-183.588
X312.265Y-181.048
X203.521Y-126.438
X209.871Y-123.898
X246.384Y-145.488
X252.734Y-142.948
X213.046Y-107.388
X219.396Y-104.848
X351.349Y-183.588
X357.699Y-181.048
X48.74Y-145.488
X55.09Y-142.948
X155.896Y-107.388
X162.246Y-104.848
X184.471Y-79.385
X190.821Y-76.845
X351.349Y-126.438
X357.699Y-123.898
X98.746Y-107.388
X105.096Y-104.848
X222.571Y-79.385
X228.921Y-76.845
X67.79Y-183.588
X74.14Y-181.048
X279.721Y-126.438
X286.071Y-123.898
X370.399Y-107.388
X376.749Y-104.848
X170.184Y-145.488
X176.534Y-142.948
X79.696Y-79.385
X86.046Y-76.845
X370.399Y-183.588
X376.749Y-181.048
X332.299Y-107.388
X338.649Y-104.848
X179.709Y-164.538
X186.059Y-161.998
X203.521Y-79.385
X209.871Y-76.845
X351.349Y-107.388
X357.699Y-104.848
X53.577Y-164.538
X59.927Y-161.998
X370.399Y-79.385
X376.749Y-76.845
X160.659Y-164.538
X167.009Y-161.998
X289.246Y-79.385
X295.596Y-76.845
X127.321Y-126.438
X133.671Y-123.898
X296.464Y-145.488
X302.814Y-142.948
X303.534Y-126.438
X309.884Y-123.898
X189.234Y-145.488
X195.584Y-142.948
X234.477Y-183.588
X240.827Y-181.048
X184.471Y-126.438
X190.821Y-123.898
X193.996Y-107.388
X200.346Y-104.848
X258.29Y-183.588
X264.64Y-181.048
X370.399Y-126.438
X376.749Y-123.898
X117.796Y-107.388
X124.146Y-104.848
X308.296Y-79.385
X314.646Y-76.845
X163.04Y-183.588
X169.39Y-181.048
X165.421Y-126.438
X171.771Y-123.898
X136.846Y-107.388
X143.196Y-104.848
X165.421Y-79.385
X171.771Y-76.845
X43.977Y-183.588
X50.327Y-181.048
X113.034Y-145.488
X119.384Y-142.948
X108.271Y-126.438
X114.621Y-123.898
X151.134Y-145.488
X157.484Y-142.948
X79.696Y-107.388
X86.046Y-104.848
X291.628Y-164.538
X297.978Y-161.998
X251.146Y-107.388
X257.496Y-104.848
X122.559Y-164.538
X128.909Y-161.998
X270.196Y-79.385
X276.546Y-76.845
X298.771Y-107.388
X305.121Y-104.848
X208.284Y-145.488
X214.634Y-142.948
X136.846Y-79.385
X143.196Y-76.845
T6
X369.129Y-128.978
X379.289Y-128.978
X116.526Y-109.928
X126.686Y-109.928
X307.026Y-81.925
X317.186Y-81.925
X161.77Y-186.128
X171.93Y-186.128
X164.151Y-128.978
X174.311Y-128.978
X135.576Y-109.928
X145.736Y-109.928
X164.151Y-81.925
X174.311Y-81.925
X42.707Y-186.128
X52.867Y-186.128
X111.764Y-148.028
X121.924Y-148.028
X107.001Y-128.978
X117.161Y-128.978
X149.864Y-148.028
X160.024Y-148.028
X78.426Y-109.928
X88.586Y-109.928
X290.358Y-167.078
X300.518Y-167.078
X249.876Y-109.928
X260.036Y-109.928
X121.289Y-167.078
X131.449Y-167.078
X268.926Y-81.925
X279.086Y-81.925
X297.501Y-109.928
X307.661Y-109.928
X207.014Y-148.028
X217.174Y-148.028
X135.576Y-81.925
X145.736Y-81.925
X140.339Y-167.078
X150.499Y-167.078
X40.326Y-109.928
X50.486Y-109.928
X280.832Y-186.128
X290.992Y-186.128
X92.714Y-148.028
X102.874Y-148.028
X264.164Y-148.028
X274.324Y-148.028
X331.029Y-186.128
X341.189Y-186.128
X221.301Y-128.978
X231.461Y-128.978
X83.189Y-167.078
X93.349Y-167.078
X130.814Y-148.028
X140.974Y-148.028
X173.676Y-109.928
X183.836Y-109.928
X116.526Y-81.925
X126.686Y-81.925
X73.664Y-148.028
X83.824Y-148.028
X45.089Y-128.978
X55.249Y-128.978
X249.876Y-81.925
X260.036Y-81.925
X90.332Y-186.128
X100.492Y-186.128
X145.101Y-128.978
X155.261Y-128.978
X40.326Y-81.925
X50.486Y-81.925
X230.826Y-109.928
X240.986Y-109.928
X97.476Y-81.925
X107.636Y-81.925
X350.079Y-167.078
X360.239Y-167.078
X240.351Y-128.978
X250.511Y-128.978
X87.951Y-128.978
X98.111Y-128.978
X197.489Y-167.078
X207.649Y-167.078
X331.029Y-81.925
X341.189Y-81.925
X68.901Y-128.978
X79.061Y-128.978
X102.239Y-167.078
X112.399Y-167.078
X350.079Y-81.925
X360.239Y-81.925
X268.926Y-109.928
X279.086Y-109.928
X226.064Y-148.028
X236.224Y-148.028
X59.376Y-109.928
X69.536Y-109.928
X259.401Y-128.978
X269.561Y-128.978
X216.539Y-167.078
X226.699Y-167.078
X254.639Y-167.078
X264.799Y-167.078
X331.029Y-128.978
X341.189Y-128.978
X235.589Y-167.078
X245.749Y-167.078
X304.645Y-186.128
X314.805Y-186.128
X202.251Y-128.978
X212.411Y-128.978
X245.114Y-148.028
X255.274Y-148.028
X211.776Y-109.928
X221.936Y-109.928
X350.079Y-186.128
X360.239Y-186.128
X47.47Y-148.028
X57.63Y-148.028
X154.626Y-109.928
X164.786Y-109.928
X183.201Y-81.925
X193.361Y-81.925
X350.079Y-128.978
X360.239Y-128.978
X97.476Y-109.928
X107.636Y-109.928
X221.301Y-81.925
X231.461Y-81.925
X66.52Y-186.128
X76.68Y-186.128
X278.451Y-128.978
X288.611Y-128.978
X369.129Y-109.928
X379.289Y-109.928
X168.914Y-148.028
X179.074Y-148.028
X78.426Y-81.925
X88.586Y-81.925
X369.129Y-186.128
X379.289Y-186.128
X331.029Y-109.928
X341.189Y-109.928
X178.439Y-167.078
X188.599Y-167.078
X202.251Y-81.925
X212.411Y-81.925
X350.079Y-109.928
X360.239Y-109.928
X52.307Y-167.078
X62.467Y-167.078
X369.129Y-81.925
X379.289Y-81.925
X159.389Y-167.078
X169.549Y-167.078
X287.976Y-81.925
X298.136Y-81.925
X126.051Y-128.978
X136.211Y-128.978
X295.194Y-148.028
X305.354Y-148.028
X302.264Y-128.978
X312.424Y-128.978
X187.964Y-148.028
X198.124Y-148.028
X233.207Y-186.128
X243.367Y-186.128
X183.201Y-128.978
X193.361Y-128.978
X192.726Y-109.928
X202.886Y-109.928
X257.02Y-186.128
X267.18Y-186.128
T7
X309.725Y-186.128
X207.331Y-128.978
X250.194Y-148.028
X216.856Y-109.928
X355.159Y-186.128
X52.55Y-148.028
X159.706Y-109.928
X188.281Y-81.925
X355.159Y-128.978
X102.556Y-109.928
X226.381Y-81.925
X71.6Y-186.128
X283.531Y-128.978
X374.209Y-109.928
X173.994Y-148.028
X83.506Y-81.925
X374.209Y-186.128
X336.109Y-109.928
X183.519Y-167.078
X207.331Y-81.925
X355.159Y-109.928
X57.387Y-167.078
X374.209Y-81.925
X164.469Y-167.078
X293.056Y-81.925
X131.131Y-128.978
X300.274Y-148.028
X307.344Y-128.978
X193.044Y-148.028
X238.287Y-186.128
X188.281Y-128.978
X197.806Y-109.928
X262.1Y-186.128
X374.209Y-128.978
X121.606Y-109.928
X312.106Y-81.925
X166.85Y-186.128
X169.231Y-128.978
X140.656Y-109.928
X169.231Y-81.925
X47.787Y-186.128
X116.844Y-148.028
X112.081Y-128.978
X154.944Y-148.028
X83.506Y-109.928
X295.438Y-167.078
X254.956Y-109.928
X126.369Y-167.078
X274.006Y-81.925
X302.581Y-109.928
X212.094Y-148.028
X140.656Y-81.925
X145.419Y-167.078
X45.406Y-109.928
X285.912Y-186.128
X97.794Y-148.028
X269.244Y-148.028
X336.109Y-186.128
X226.381Y-128.978
X88.269Y-167.078
X135.894Y-148.028
X178.756Y-109.928
X121.606Y-81.925
X78.744Y-148.028
X50.169Y-128.978
X254.956Y-81.925
X95.412Y-186.128
X150.181Y-128.978
X45.406Y-81.925
X235.906Y-109.928
X102.556Y-81.925
X355.159Y-167.078
X245.431Y-128.978
X93.031Y-128.978
X202.569Y-167.078
X336.109Y-81.925
X73.981Y-128.978
X107.319Y-167.078
X355.159Y-81.925
X274.006Y-109.928
X231.144Y-148.028
X64.456Y-109.928
X264.481Y-128.978
X221.619Y-167.078
X259.719Y-167.078
X336.109Y-128.978
X240.669Y-167.078
T0
M30
