G04 #@! TF.GenerationSoftware,KiCad,Pcbnew,(5.1.4)-1*
G04 #@! TF.CreationDate,2019-11-16T22:40:45+09:00*
G04 #@! TF.ProjectId,yurei,79757265-692e-46b6-9963-61645f706362,1.0*
G04 #@! TF.SameCoordinates,Original*
G04 #@! TF.FileFunction,Legend,Bot*
G04 #@! TF.FilePolarity,Positive*
%FSLAX46Y46*%
G04 Gerber Fmt 4.6, Leading zero omitted, Abs format (unit mm)*
G04 Created by KiCad (PCBNEW (5.1.4)-1) date 2019-11-16 22:40:45*
%MOMM*%
%LPD*%
G04 APERTURE LIST*
%ADD10C,0.100000*%
%ADD11C,0.150000*%
%ADD12C,0.120000*%
G04 APERTURE END LIST*
D10*
G36*
X130334000Y-92900500D02*
G01*
X126524000Y-92900500D01*
X126651000Y-93154500D01*
X130334000Y-93154500D01*
X130334000Y-92900500D01*
G37*
X130334000Y-92900500D02*
X126524000Y-92900500D01*
X126651000Y-93154500D01*
X130334000Y-93154500D01*
X130334000Y-92900500D01*
G36*
X129572000Y-92773500D02*
G01*
X129572000Y-91757500D01*
X129953000Y-91757500D01*
X130334000Y-92773500D01*
X130080000Y-92773500D01*
X129826000Y-92011500D01*
X129826000Y-92773500D01*
X129572000Y-92773500D01*
G37*
X129572000Y-92773500D02*
X129572000Y-91757500D01*
X129953000Y-91757500D01*
X130334000Y-92773500D01*
X130080000Y-92773500D01*
X129826000Y-92011500D01*
X129826000Y-92773500D01*
X129572000Y-92773500D01*
G36*
X126905000Y-91630500D02*
G01*
X129191000Y-91630500D01*
X129191000Y-92773500D01*
X129445000Y-92773500D01*
X129445000Y-91630500D01*
X129953000Y-91630500D01*
X129826000Y-91376500D01*
X126905000Y-91376500D01*
X126905000Y-91630500D01*
G37*
X126905000Y-91630500D02*
X129191000Y-91630500D01*
X129191000Y-92773500D01*
X129445000Y-92773500D01*
X129445000Y-91630500D01*
X129953000Y-91630500D01*
X129826000Y-91376500D01*
X126905000Y-91376500D01*
X126905000Y-91630500D01*
G36*
X128048000Y-92773500D02*
G01*
X128048000Y-91757500D01*
X129064000Y-91757500D01*
X129064000Y-92773500D01*
X128810000Y-92773500D01*
X128810000Y-92011500D01*
X128683000Y-92011500D01*
X128683000Y-92773500D01*
X128429000Y-92773500D01*
X128429000Y-92011500D01*
X128302000Y-92011500D01*
X128302000Y-92773500D01*
X128048000Y-92773500D01*
G37*
X128048000Y-92773500D02*
X128048000Y-91757500D01*
X129064000Y-91757500D01*
X129064000Y-92773500D01*
X128810000Y-92773500D01*
X128810000Y-92011500D01*
X128683000Y-92011500D01*
X128683000Y-92773500D01*
X128429000Y-92773500D01*
X128429000Y-92011500D01*
X128302000Y-92011500D01*
X128302000Y-92773500D01*
X128048000Y-92773500D01*
G36*
X127159000Y-91757500D02*
G01*
X127159000Y-92773500D01*
X126524000Y-92773500D01*
X126397000Y-92519500D01*
X126905000Y-92519500D01*
X126905000Y-91757500D01*
X127159000Y-91757500D01*
G37*
X127159000Y-91757500D02*
X127159000Y-92773500D01*
X126524000Y-92773500D01*
X126397000Y-92519500D01*
X126905000Y-92519500D01*
X126905000Y-91757500D01*
X127159000Y-91757500D01*
G36*
X127921000Y-91757500D02*
G01*
X127286000Y-91757500D01*
X127286000Y-92011500D01*
X127667000Y-92011500D01*
X127667000Y-92138500D01*
X127286000Y-92138500D01*
X127286000Y-92392500D01*
X127667000Y-92392500D01*
X127667000Y-92519500D01*
X127286000Y-92519500D01*
X127286000Y-92773500D01*
X127921000Y-92773500D01*
X127921000Y-91757500D01*
G37*
X127921000Y-91757500D02*
X127286000Y-91757500D01*
X127286000Y-92011500D01*
X127667000Y-92011500D01*
X127667000Y-92138500D01*
X127286000Y-92138500D01*
X127286000Y-92392500D01*
X127667000Y-92392500D01*
X127667000Y-92519500D01*
X127286000Y-92519500D01*
X127286000Y-92773500D01*
X127921000Y-92773500D01*
X127921000Y-91757500D01*
D11*
X146209000Y-102552500D02*
X146209000Y-84772500D01*
X115729000Y-102552500D02*
X146209000Y-102552500D01*
X115729000Y-84772500D02*
X115729000Y-102552500D01*
X146209000Y-84772500D02*
X115729000Y-84772500D01*
X138589000Y-89852500D02*
X138589000Y-97472500D01*
X147479000Y-89852500D02*
X138589000Y-89852500D01*
X147479000Y-97472500D02*
X147479000Y-89852500D01*
X138589000Y-97472500D02*
X147479000Y-97472500D01*
X132239000Y-89852500D02*
X132239000Y-97472500D01*
X124619000Y-89852500D02*
X132239000Y-89852500D01*
X124619000Y-97472500D02*
X124619000Y-89852500D01*
X132239000Y-97472500D02*
X124619000Y-97472500D01*
X118269000Y-94932500D02*
X118269000Y-91122500D01*
X122079000Y-94932500D02*
X118269000Y-94932500D01*
X122079000Y-93662500D02*
X122079000Y-94932500D01*
X122079000Y-91122500D02*
X122079000Y-93662500D01*
X118269000Y-91122500D02*
X122079000Y-91122500D01*
X118269000Y-98742500D02*
X118269000Y-96202500D01*
X122079000Y-98742500D02*
X118269000Y-98742500D01*
X122079000Y-96202500D02*
X122079000Y-98742500D01*
X118269000Y-96202500D02*
X122079000Y-96202500D01*
D12*
X358429000Y-90130000D02*
X358429000Y-90460000D01*
X351889000Y-90130000D02*
X358429000Y-90130000D01*
X351889000Y-90460000D02*
X351889000Y-90130000D01*
X358429000Y-92870000D02*
X358429000Y-92540000D01*
X351889000Y-92870000D02*
X358429000Y-92870000D01*
X351889000Y-92540000D02*
X351889000Y-92870000D01*
X339379000Y-90130000D02*
X339379000Y-90460000D01*
X332839000Y-90130000D02*
X339379000Y-90130000D01*
X332839000Y-90460000D02*
X332839000Y-90130000D01*
X339379000Y-92870000D02*
X339379000Y-92540000D01*
X332839000Y-92870000D02*
X339379000Y-92870000D01*
X332839000Y-92540000D02*
X332839000Y-92870000D01*
X365772000Y-187648000D02*
X363532000Y-187648000D01*
X365772000Y-187408000D02*
X363532000Y-187408000D01*
X365772000Y-187528000D02*
X363532000Y-187528000D01*
X364652000Y-183358000D02*
X364652000Y-184008000D01*
X364652000Y-188898000D02*
X364652000Y-188248000D01*
X365772000Y-184008000D02*
X365772000Y-188248000D01*
X363532000Y-184008000D02*
X365772000Y-184008000D01*
X363532000Y-188248000D02*
X363532000Y-184008000D01*
X365772000Y-188248000D02*
X363532000Y-188248000D01*
X346722000Y-187648000D02*
X344482000Y-187648000D01*
X346722000Y-187408000D02*
X344482000Y-187408000D01*
X346722000Y-187528000D02*
X344482000Y-187528000D01*
X345602000Y-183358000D02*
X345602000Y-184008000D01*
X345602000Y-188898000D02*
X345602000Y-188248000D01*
X346722000Y-184008000D02*
X346722000Y-188248000D01*
X344482000Y-184008000D02*
X346722000Y-184008000D01*
X344482000Y-188248000D02*
X344482000Y-184008000D01*
X346722000Y-188248000D02*
X344482000Y-188248000D01*
X327672000Y-168610000D02*
X325432000Y-168610000D01*
X327672000Y-168370000D02*
X325432000Y-168370000D01*
X327672000Y-168490000D02*
X325432000Y-168490000D01*
X326552000Y-164320000D02*
X326552000Y-164970000D01*
X326552000Y-169860000D02*
X326552000Y-169210000D01*
X327672000Y-164970000D02*
X327672000Y-169210000D01*
X325432000Y-164970000D02*
X327672000Y-164970000D01*
X325432000Y-169210000D02*
X325432000Y-164970000D01*
X327672000Y-169210000D02*
X325432000Y-169210000D01*
X301479000Y-187648000D02*
X299239000Y-187648000D01*
X301479000Y-187408000D02*
X299239000Y-187408000D01*
X301479000Y-187528000D02*
X299239000Y-187528000D01*
X300359000Y-183358000D02*
X300359000Y-184008000D01*
X300359000Y-188898000D02*
X300359000Y-188248000D01*
X301479000Y-184008000D02*
X301479000Y-188248000D01*
X299239000Y-184008000D02*
X301479000Y-184008000D01*
X299239000Y-188248000D02*
X299239000Y-184008000D01*
X301479000Y-188248000D02*
X299239000Y-188248000D01*
X277666000Y-187648000D02*
X275426000Y-187648000D01*
X277666000Y-187408000D02*
X275426000Y-187408000D01*
X277666000Y-187528000D02*
X275426000Y-187528000D01*
X276546000Y-183358000D02*
X276546000Y-184008000D01*
X276546000Y-188898000D02*
X276546000Y-188248000D01*
X277666000Y-184008000D02*
X277666000Y-188248000D01*
X275426000Y-184008000D02*
X277666000Y-184008000D01*
X275426000Y-188248000D02*
X275426000Y-184008000D01*
X277666000Y-188248000D02*
X275426000Y-188248000D01*
X253854000Y-187648000D02*
X251614000Y-187648000D01*
X253854000Y-187408000D02*
X251614000Y-187408000D01*
X253854000Y-187528000D02*
X251614000Y-187528000D01*
X252734000Y-183358000D02*
X252734000Y-184008000D01*
X252734000Y-188898000D02*
X252734000Y-188248000D01*
X253854000Y-184008000D02*
X253854000Y-188248000D01*
X251614000Y-184008000D02*
X253854000Y-184008000D01*
X251614000Y-188248000D02*
X251614000Y-184008000D01*
X253854000Y-188248000D02*
X251614000Y-188248000D01*
X230041000Y-187648000D02*
X227801000Y-187648000D01*
X230041000Y-187408000D02*
X227801000Y-187408000D01*
X230041000Y-187528000D02*
X227801000Y-187528000D01*
X228921000Y-183358000D02*
X228921000Y-184008000D01*
X228921000Y-188898000D02*
X228921000Y-188248000D01*
X230041000Y-184008000D02*
X230041000Y-188248000D01*
X227801000Y-184008000D02*
X230041000Y-184008000D01*
X227801000Y-188248000D02*
X227801000Y-184008000D01*
X230041000Y-188248000D02*
X227801000Y-188248000D01*
X177654000Y-187648000D02*
X175414000Y-187648000D01*
X177654000Y-187408000D02*
X175414000Y-187408000D01*
X177654000Y-187528000D02*
X175414000Y-187528000D01*
X176534000Y-183358000D02*
X176534000Y-184008000D01*
X176534000Y-188898000D02*
X176534000Y-188248000D01*
X177654000Y-184008000D02*
X177654000Y-188248000D01*
X175414000Y-184008000D02*
X177654000Y-184008000D01*
X175414000Y-188248000D02*
X175414000Y-184008000D01*
X177654000Y-188248000D02*
X175414000Y-188248000D01*
X106216000Y-187648000D02*
X103976000Y-187648000D01*
X106216000Y-187408000D02*
X103976000Y-187408000D01*
X106216000Y-187528000D02*
X103976000Y-187528000D01*
X105096000Y-183358000D02*
X105096000Y-184008000D01*
X105096000Y-188898000D02*
X105096000Y-188248000D01*
X106216000Y-184008000D02*
X106216000Y-188248000D01*
X103976000Y-184008000D02*
X106216000Y-184008000D01*
X103976000Y-188248000D02*
X103976000Y-184008000D01*
X106216000Y-188248000D02*
X103976000Y-188248000D01*
X82403800Y-187648000D02*
X80163800Y-187648000D01*
X82403800Y-187408000D02*
X80163800Y-187408000D01*
X82403800Y-187528000D02*
X80163800Y-187528000D01*
X81283800Y-183358000D02*
X81283800Y-184008000D01*
X81283800Y-188898000D02*
X81283800Y-188248000D01*
X82403800Y-184008000D02*
X82403800Y-188248000D01*
X80163800Y-184008000D02*
X82403800Y-184008000D01*
X80163800Y-188248000D02*
X80163800Y-184008000D01*
X82403800Y-188248000D02*
X80163800Y-188248000D01*
X58591200Y-187648000D02*
X56351200Y-187648000D01*
X58591200Y-187408000D02*
X56351200Y-187408000D01*
X58591200Y-187528000D02*
X56351200Y-187528000D01*
X57471200Y-183358000D02*
X57471200Y-184008000D01*
X57471200Y-188898000D02*
X57471200Y-188248000D01*
X58591200Y-184008000D02*
X58591200Y-188248000D01*
X56351200Y-184008000D02*
X58591200Y-184008000D01*
X56351200Y-188248000D02*
X56351200Y-184008000D01*
X58591200Y-188248000D02*
X56351200Y-188248000D01*
X365772000Y-168598000D02*
X363532000Y-168598000D01*
X365772000Y-168358000D02*
X363532000Y-168358000D01*
X365772000Y-168478000D02*
X363532000Y-168478000D01*
X364652000Y-164308000D02*
X364652000Y-164958000D01*
X364652000Y-169848000D02*
X364652000Y-169198000D01*
X365772000Y-164958000D02*
X365772000Y-169198000D01*
X363532000Y-164958000D02*
X365772000Y-164958000D01*
X363532000Y-169198000D02*
X363532000Y-164958000D01*
X365772000Y-169198000D02*
X363532000Y-169198000D01*
X306241000Y-168598000D02*
X304001000Y-168598000D01*
X306241000Y-168358000D02*
X304001000Y-168358000D01*
X306241000Y-168478000D02*
X304001000Y-168478000D01*
X305121000Y-164308000D02*
X305121000Y-164958000D01*
X305121000Y-169848000D02*
X305121000Y-169198000D01*
X306241000Y-164958000D02*
X306241000Y-169198000D01*
X304001000Y-164958000D02*
X306241000Y-164958000D01*
X304001000Y-169198000D02*
X304001000Y-164958000D01*
X306241000Y-169198000D02*
X304001000Y-169198000D01*
X270522000Y-168598000D02*
X268282000Y-168598000D01*
X270522000Y-168358000D02*
X268282000Y-168358000D01*
X270522000Y-168478000D02*
X268282000Y-168478000D01*
X269402000Y-164308000D02*
X269402000Y-164958000D01*
X269402000Y-169848000D02*
X269402000Y-169198000D01*
X270522000Y-164958000D02*
X270522000Y-169198000D01*
X268282000Y-164958000D02*
X270522000Y-164958000D01*
X268282000Y-169198000D02*
X268282000Y-164958000D01*
X270522000Y-169198000D02*
X268282000Y-169198000D01*
X251472000Y-168598000D02*
X249232000Y-168598000D01*
X251472000Y-168358000D02*
X249232000Y-168358000D01*
X251472000Y-168478000D02*
X249232000Y-168478000D01*
X250352000Y-164308000D02*
X250352000Y-164958000D01*
X250352000Y-169848000D02*
X250352000Y-169198000D01*
X251472000Y-164958000D02*
X251472000Y-169198000D01*
X249232000Y-164958000D02*
X251472000Y-164958000D01*
X249232000Y-169198000D02*
X249232000Y-164958000D01*
X251472000Y-169198000D02*
X249232000Y-169198000D01*
X232422000Y-168598000D02*
X230182000Y-168598000D01*
X232422000Y-168358000D02*
X230182000Y-168358000D01*
X232422000Y-168478000D02*
X230182000Y-168478000D01*
X231302000Y-164308000D02*
X231302000Y-164958000D01*
X231302000Y-169848000D02*
X231302000Y-169198000D01*
X232422000Y-164958000D02*
X232422000Y-169198000D01*
X230182000Y-164958000D02*
X232422000Y-164958000D01*
X230182000Y-169198000D02*
X230182000Y-164958000D01*
X232422000Y-169198000D02*
X230182000Y-169198000D01*
X213372000Y-168598000D02*
X211132000Y-168598000D01*
X213372000Y-168358000D02*
X211132000Y-168358000D01*
X213372000Y-168478000D02*
X211132000Y-168478000D01*
X212252000Y-164308000D02*
X212252000Y-164958000D01*
X212252000Y-169848000D02*
X212252000Y-169198000D01*
X213372000Y-164958000D02*
X213372000Y-169198000D01*
X211132000Y-164958000D02*
X213372000Y-164958000D01*
X211132000Y-169198000D02*
X211132000Y-164958000D01*
X213372000Y-169198000D02*
X211132000Y-169198000D01*
X194322000Y-168598000D02*
X192082000Y-168598000D01*
X194322000Y-168358000D02*
X192082000Y-168358000D01*
X194322000Y-168478000D02*
X192082000Y-168478000D01*
X193202000Y-164308000D02*
X193202000Y-164958000D01*
X193202000Y-169848000D02*
X193202000Y-169198000D01*
X194322000Y-164958000D02*
X194322000Y-169198000D01*
X192082000Y-164958000D02*
X194322000Y-164958000D01*
X192082000Y-169198000D02*
X192082000Y-164958000D01*
X194322000Y-169198000D02*
X192082000Y-169198000D01*
X175272000Y-168598000D02*
X173032000Y-168598000D01*
X175272000Y-168358000D02*
X173032000Y-168358000D01*
X175272000Y-168478000D02*
X173032000Y-168478000D01*
X174152000Y-164308000D02*
X174152000Y-164958000D01*
X174152000Y-169848000D02*
X174152000Y-169198000D01*
X175272000Y-164958000D02*
X175272000Y-169198000D01*
X173032000Y-164958000D02*
X175272000Y-164958000D01*
X173032000Y-169198000D02*
X173032000Y-164958000D01*
X175272000Y-169198000D02*
X173032000Y-169198000D01*
X156222000Y-168598000D02*
X153982000Y-168598000D01*
X156222000Y-168358000D02*
X153982000Y-168358000D01*
X156222000Y-168478000D02*
X153982000Y-168478000D01*
X155102000Y-164308000D02*
X155102000Y-164958000D01*
X155102000Y-169848000D02*
X155102000Y-169198000D01*
X156222000Y-164958000D02*
X156222000Y-169198000D01*
X153982000Y-164958000D02*
X156222000Y-164958000D01*
X153982000Y-169198000D02*
X153982000Y-164958000D01*
X156222000Y-169198000D02*
X153982000Y-169198000D01*
X137172000Y-168598000D02*
X134932000Y-168598000D01*
X137172000Y-168358000D02*
X134932000Y-168358000D01*
X137172000Y-168478000D02*
X134932000Y-168478000D01*
X136052000Y-164308000D02*
X136052000Y-164958000D01*
X136052000Y-169848000D02*
X136052000Y-169198000D01*
X137172000Y-164958000D02*
X137172000Y-169198000D01*
X134932000Y-164958000D02*
X137172000Y-164958000D01*
X134932000Y-169198000D02*
X134932000Y-164958000D01*
X137172000Y-169198000D02*
X134932000Y-169198000D01*
X118122000Y-168598000D02*
X115882000Y-168598000D01*
X118122000Y-168358000D02*
X115882000Y-168358000D01*
X118122000Y-168478000D02*
X115882000Y-168478000D01*
X117002000Y-164308000D02*
X117002000Y-164958000D01*
X117002000Y-169848000D02*
X117002000Y-169198000D01*
X118122000Y-164958000D02*
X118122000Y-169198000D01*
X115882000Y-164958000D02*
X118122000Y-164958000D01*
X115882000Y-169198000D02*
X115882000Y-164958000D01*
X118122000Y-169198000D02*
X115882000Y-169198000D01*
X99072500Y-168598000D02*
X96832500Y-168598000D01*
X99072500Y-168358000D02*
X96832500Y-168358000D01*
X99072500Y-168478000D02*
X96832500Y-168478000D01*
X97952500Y-164308000D02*
X97952500Y-164958000D01*
X97952500Y-169848000D02*
X97952500Y-169198000D01*
X99072500Y-164958000D02*
X99072500Y-169198000D01*
X96832500Y-164958000D02*
X99072500Y-164958000D01*
X96832500Y-169198000D02*
X96832500Y-164958000D01*
X99072500Y-169198000D02*
X96832500Y-169198000D01*
X68116200Y-168598000D02*
X65876200Y-168598000D01*
X68116200Y-168358000D02*
X65876200Y-168358000D01*
X68116200Y-168478000D02*
X65876200Y-168478000D01*
X66996200Y-164308000D02*
X66996200Y-164958000D01*
X66996200Y-169848000D02*
X66996200Y-169198000D01*
X68116200Y-164958000D02*
X68116200Y-169198000D01*
X65876200Y-164958000D02*
X68116200Y-164958000D01*
X65876200Y-169198000D02*
X65876200Y-164958000D01*
X68116200Y-169198000D02*
X65876200Y-169198000D01*
X311004000Y-149548000D02*
X308764000Y-149548000D01*
X311004000Y-149308000D02*
X308764000Y-149308000D01*
X311004000Y-149428000D02*
X308764000Y-149428000D01*
X309884000Y-145258000D02*
X309884000Y-145908000D01*
X309884000Y-150798000D02*
X309884000Y-150148000D01*
X311004000Y-145908000D02*
X311004000Y-150148000D01*
X308764000Y-145908000D02*
X311004000Y-145908000D01*
X308764000Y-150148000D02*
X308764000Y-145908000D01*
X311004000Y-150148000D02*
X308764000Y-150148000D01*
X280048000Y-149548000D02*
X277808000Y-149548000D01*
X280048000Y-149308000D02*
X277808000Y-149308000D01*
X280048000Y-149428000D02*
X277808000Y-149428000D01*
X278928000Y-145258000D02*
X278928000Y-145908000D01*
X278928000Y-150798000D02*
X278928000Y-150148000D01*
X280048000Y-145908000D02*
X280048000Y-150148000D01*
X277808000Y-145908000D02*
X280048000Y-145908000D01*
X277808000Y-150148000D02*
X277808000Y-145908000D01*
X280048000Y-150148000D02*
X277808000Y-150148000D01*
X260998000Y-149548000D02*
X258758000Y-149548000D01*
X260998000Y-149308000D02*
X258758000Y-149308000D01*
X260998000Y-149428000D02*
X258758000Y-149428000D01*
X259878000Y-145258000D02*
X259878000Y-145908000D01*
X259878000Y-150798000D02*
X259878000Y-150148000D01*
X260998000Y-145908000D02*
X260998000Y-150148000D01*
X258758000Y-145908000D02*
X260998000Y-145908000D01*
X258758000Y-150148000D02*
X258758000Y-145908000D01*
X260998000Y-150148000D02*
X258758000Y-150148000D01*
X241948000Y-149548000D02*
X239708000Y-149548000D01*
X241948000Y-149308000D02*
X239708000Y-149308000D01*
X241948000Y-149428000D02*
X239708000Y-149428000D01*
X240828000Y-145258000D02*
X240828000Y-145908000D01*
X240828000Y-150798000D02*
X240828000Y-150148000D01*
X241948000Y-145908000D02*
X241948000Y-150148000D01*
X239708000Y-145908000D02*
X241948000Y-145908000D01*
X239708000Y-150148000D02*
X239708000Y-145908000D01*
X241948000Y-150148000D02*
X239708000Y-150148000D01*
X222898000Y-149548000D02*
X220658000Y-149548000D01*
X222898000Y-149308000D02*
X220658000Y-149308000D01*
X222898000Y-149428000D02*
X220658000Y-149428000D01*
X221778000Y-145258000D02*
X221778000Y-145908000D01*
X221778000Y-150798000D02*
X221778000Y-150148000D01*
X222898000Y-145908000D02*
X222898000Y-150148000D01*
X220658000Y-145908000D02*
X222898000Y-145908000D01*
X220658000Y-150148000D02*
X220658000Y-145908000D01*
X222898000Y-150148000D02*
X220658000Y-150148000D01*
X203848000Y-149548000D02*
X201608000Y-149548000D01*
X203848000Y-149308000D02*
X201608000Y-149308000D01*
X203848000Y-149428000D02*
X201608000Y-149428000D01*
X202728000Y-145258000D02*
X202728000Y-145908000D01*
X202728000Y-150798000D02*
X202728000Y-150148000D01*
X203848000Y-145908000D02*
X203848000Y-150148000D01*
X201608000Y-145908000D02*
X203848000Y-145908000D01*
X201608000Y-150148000D02*
X201608000Y-145908000D01*
X203848000Y-150148000D02*
X201608000Y-150148000D01*
X184798000Y-149548000D02*
X182558000Y-149548000D01*
X184798000Y-149308000D02*
X182558000Y-149308000D01*
X184798000Y-149428000D02*
X182558000Y-149428000D01*
X183678000Y-145258000D02*
X183678000Y-145908000D01*
X183678000Y-150798000D02*
X183678000Y-150148000D01*
X184798000Y-145908000D02*
X184798000Y-150148000D01*
X182558000Y-145908000D02*
X184798000Y-145908000D01*
X182558000Y-150148000D02*
X182558000Y-145908000D01*
X184798000Y-150148000D02*
X182558000Y-150148000D01*
X165748000Y-149548000D02*
X163508000Y-149548000D01*
X165748000Y-149308000D02*
X163508000Y-149308000D01*
X165748000Y-149428000D02*
X163508000Y-149428000D01*
X164628000Y-145258000D02*
X164628000Y-145908000D01*
X164628000Y-150798000D02*
X164628000Y-150148000D01*
X165748000Y-145908000D02*
X165748000Y-150148000D01*
X163508000Y-145908000D02*
X165748000Y-145908000D01*
X163508000Y-150148000D02*
X163508000Y-145908000D01*
X165748000Y-150148000D02*
X163508000Y-150148000D01*
X146698000Y-149548000D02*
X144458000Y-149548000D01*
X146698000Y-149308000D02*
X144458000Y-149308000D01*
X146698000Y-149428000D02*
X144458000Y-149428000D01*
X145578000Y-145258000D02*
X145578000Y-145908000D01*
X145578000Y-150798000D02*
X145578000Y-150148000D01*
X146698000Y-145908000D02*
X146698000Y-150148000D01*
X144458000Y-145908000D02*
X146698000Y-145908000D01*
X144458000Y-150148000D02*
X144458000Y-145908000D01*
X146698000Y-150148000D02*
X144458000Y-150148000D01*
X127648000Y-149548000D02*
X125408000Y-149548000D01*
X127648000Y-149308000D02*
X125408000Y-149308000D01*
X127648000Y-149428000D02*
X125408000Y-149428000D01*
X126528000Y-145258000D02*
X126528000Y-145908000D01*
X126528000Y-150798000D02*
X126528000Y-150148000D01*
X127648000Y-145908000D02*
X127648000Y-150148000D01*
X125408000Y-145908000D02*
X127648000Y-145908000D01*
X125408000Y-150148000D02*
X125408000Y-145908000D01*
X127648000Y-150148000D02*
X125408000Y-150148000D01*
X108598000Y-149548000D02*
X106358000Y-149548000D01*
X108598000Y-149308000D02*
X106358000Y-149308000D01*
X108598000Y-149428000D02*
X106358000Y-149428000D01*
X107478000Y-145258000D02*
X107478000Y-145908000D01*
X107478000Y-150798000D02*
X107478000Y-150148000D01*
X108598000Y-145908000D02*
X108598000Y-150148000D01*
X106358000Y-145908000D02*
X108598000Y-145908000D01*
X106358000Y-150148000D02*
X106358000Y-145908000D01*
X108598000Y-150148000D02*
X106358000Y-150148000D01*
X89547500Y-149548000D02*
X87307500Y-149548000D01*
X89547500Y-149308000D02*
X87307500Y-149308000D01*
X89547500Y-149428000D02*
X87307500Y-149428000D01*
X88427500Y-145258000D02*
X88427500Y-145908000D01*
X88427500Y-150798000D02*
X88427500Y-150148000D01*
X89547500Y-145908000D02*
X89547500Y-150148000D01*
X87307500Y-145908000D02*
X89547500Y-145908000D01*
X87307500Y-150148000D02*
X87307500Y-145908000D01*
X89547500Y-150148000D02*
X87307500Y-150148000D01*
X63353800Y-149548000D02*
X61113800Y-149548000D01*
X63353800Y-149308000D02*
X61113800Y-149308000D01*
X63353800Y-149428000D02*
X61113800Y-149428000D01*
X62233800Y-145258000D02*
X62233800Y-145908000D01*
X62233800Y-150798000D02*
X62233800Y-150148000D01*
X63353800Y-145908000D02*
X63353800Y-150148000D01*
X61113800Y-145908000D02*
X63353800Y-145908000D01*
X61113800Y-150148000D02*
X61113800Y-145908000D01*
X63353800Y-150148000D02*
X61113800Y-150148000D01*
X365772000Y-130498000D02*
X363532000Y-130498000D01*
X365772000Y-130258000D02*
X363532000Y-130258000D01*
X365772000Y-130378000D02*
X363532000Y-130378000D01*
X364652000Y-126208000D02*
X364652000Y-126858000D01*
X364652000Y-131748000D02*
X364652000Y-131098000D01*
X365772000Y-126858000D02*
X365772000Y-131098000D01*
X363532000Y-126858000D02*
X365772000Y-126858000D01*
X363532000Y-131098000D02*
X363532000Y-126858000D01*
X365772000Y-131098000D02*
X363532000Y-131098000D01*
X346722000Y-130498000D02*
X344482000Y-130498000D01*
X346722000Y-130258000D02*
X344482000Y-130258000D01*
X346722000Y-130378000D02*
X344482000Y-130378000D01*
X345602000Y-126208000D02*
X345602000Y-126858000D01*
X345602000Y-131748000D02*
X345602000Y-131098000D01*
X346722000Y-126858000D02*
X346722000Y-131098000D01*
X344482000Y-126858000D02*
X346722000Y-126858000D01*
X344482000Y-131098000D02*
X344482000Y-126858000D01*
X346722000Y-131098000D02*
X344482000Y-131098000D01*
X327672000Y-130498000D02*
X325432000Y-130498000D01*
X327672000Y-130258000D02*
X325432000Y-130258000D01*
X327672000Y-130378000D02*
X325432000Y-130378000D01*
X326552000Y-126208000D02*
X326552000Y-126858000D01*
X326552000Y-131748000D02*
X326552000Y-131098000D01*
X327672000Y-126858000D02*
X327672000Y-131098000D01*
X325432000Y-126858000D02*
X327672000Y-126858000D01*
X325432000Y-131098000D02*
X325432000Y-126858000D01*
X327672000Y-131098000D02*
X325432000Y-131098000D01*
X318148000Y-130498000D02*
X315908000Y-130498000D01*
X318148000Y-130258000D02*
X315908000Y-130258000D01*
X318148000Y-130378000D02*
X315908000Y-130378000D01*
X317028000Y-126208000D02*
X317028000Y-126858000D01*
X317028000Y-131748000D02*
X317028000Y-131098000D01*
X318148000Y-126858000D02*
X318148000Y-131098000D01*
X315908000Y-126858000D02*
X318148000Y-126858000D01*
X315908000Y-131098000D02*
X315908000Y-126858000D01*
X318148000Y-131098000D02*
X315908000Y-131098000D01*
X294335000Y-130498000D02*
X292095000Y-130498000D01*
X294335000Y-130258000D02*
X292095000Y-130258000D01*
X294335000Y-130378000D02*
X292095000Y-130378000D01*
X293215000Y-126208000D02*
X293215000Y-126858000D01*
X293215000Y-131748000D02*
X293215000Y-131098000D01*
X294335000Y-126858000D02*
X294335000Y-131098000D01*
X292095000Y-126858000D02*
X294335000Y-126858000D01*
X292095000Y-131098000D02*
X292095000Y-126858000D01*
X294335000Y-131098000D02*
X292095000Y-131098000D01*
X275285000Y-130498000D02*
X273045000Y-130498000D01*
X275285000Y-130258000D02*
X273045000Y-130258000D01*
X275285000Y-130378000D02*
X273045000Y-130378000D01*
X274165000Y-126208000D02*
X274165000Y-126858000D01*
X274165000Y-131748000D02*
X274165000Y-131098000D01*
X275285000Y-126858000D02*
X275285000Y-131098000D01*
X273045000Y-126858000D02*
X275285000Y-126858000D01*
X273045000Y-131098000D02*
X273045000Y-126858000D01*
X275285000Y-131098000D02*
X273045000Y-131098000D01*
X256235000Y-130498000D02*
X253995000Y-130498000D01*
X256235000Y-130258000D02*
X253995000Y-130258000D01*
X256235000Y-130378000D02*
X253995000Y-130378000D01*
X255115000Y-126208000D02*
X255115000Y-126858000D01*
X255115000Y-131748000D02*
X255115000Y-131098000D01*
X256235000Y-126858000D02*
X256235000Y-131098000D01*
X253995000Y-126858000D02*
X256235000Y-126858000D01*
X253995000Y-131098000D02*
X253995000Y-126858000D01*
X256235000Y-131098000D02*
X253995000Y-131098000D01*
X237185000Y-130498000D02*
X234945000Y-130498000D01*
X237185000Y-130258000D02*
X234945000Y-130258000D01*
X237185000Y-130378000D02*
X234945000Y-130378000D01*
X236065000Y-126208000D02*
X236065000Y-126858000D01*
X236065000Y-131748000D02*
X236065000Y-131098000D01*
X237185000Y-126858000D02*
X237185000Y-131098000D01*
X234945000Y-126858000D02*
X237185000Y-126858000D01*
X234945000Y-131098000D02*
X234945000Y-126858000D01*
X237185000Y-131098000D02*
X234945000Y-131098000D01*
X218135000Y-130498000D02*
X215895000Y-130498000D01*
X218135000Y-130258000D02*
X215895000Y-130258000D01*
X218135000Y-130378000D02*
X215895000Y-130378000D01*
X217015000Y-126208000D02*
X217015000Y-126858000D01*
X217015000Y-131748000D02*
X217015000Y-131098000D01*
X218135000Y-126858000D02*
X218135000Y-131098000D01*
X215895000Y-126858000D02*
X218135000Y-126858000D01*
X215895000Y-131098000D02*
X215895000Y-126858000D01*
X218135000Y-131098000D02*
X215895000Y-131098000D01*
X199085000Y-130498000D02*
X196845000Y-130498000D01*
X199085000Y-130258000D02*
X196845000Y-130258000D01*
X199085000Y-130378000D02*
X196845000Y-130378000D01*
X197965000Y-126208000D02*
X197965000Y-126858000D01*
X197965000Y-131748000D02*
X197965000Y-131098000D01*
X199085000Y-126858000D02*
X199085000Y-131098000D01*
X196845000Y-126858000D02*
X199085000Y-126858000D01*
X196845000Y-131098000D02*
X196845000Y-126858000D01*
X199085000Y-131098000D02*
X196845000Y-131098000D01*
X180035000Y-130498000D02*
X177795000Y-130498000D01*
X180035000Y-130258000D02*
X177795000Y-130258000D01*
X180035000Y-130378000D02*
X177795000Y-130378000D01*
X178915000Y-126208000D02*
X178915000Y-126858000D01*
X178915000Y-131748000D02*
X178915000Y-131098000D01*
X180035000Y-126858000D02*
X180035000Y-131098000D01*
X177795000Y-126858000D02*
X180035000Y-126858000D01*
X177795000Y-131098000D02*
X177795000Y-126858000D01*
X180035000Y-131098000D02*
X177795000Y-131098000D01*
X160985000Y-130498000D02*
X158745000Y-130498000D01*
X160985000Y-130258000D02*
X158745000Y-130258000D01*
X160985000Y-130378000D02*
X158745000Y-130378000D01*
X159865000Y-126208000D02*
X159865000Y-126858000D01*
X159865000Y-131748000D02*
X159865000Y-131098000D01*
X160985000Y-126858000D02*
X160985000Y-131098000D01*
X158745000Y-126858000D02*
X160985000Y-126858000D01*
X158745000Y-131098000D02*
X158745000Y-126858000D01*
X160985000Y-131098000D02*
X158745000Y-131098000D01*
X141935000Y-130498000D02*
X139695000Y-130498000D01*
X141935000Y-130258000D02*
X139695000Y-130258000D01*
X141935000Y-130378000D02*
X139695000Y-130378000D01*
X140815000Y-126208000D02*
X140815000Y-126858000D01*
X140815000Y-131748000D02*
X140815000Y-131098000D01*
X141935000Y-126858000D02*
X141935000Y-131098000D01*
X139695000Y-126858000D02*
X141935000Y-126858000D01*
X139695000Y-131098000D02*
X139695000Y-126858000D01*
X141935000Y-131098000D02*
X139695000Y-131098000D01*
X122885000Y-130498000D02*
X120645000Y-130498000D01*
X122885000Y-130258000D02*
X120645000Y-130258000D01*
X122885000Y-130378000D02*
X120645000Y-130378000D01*
X121765000Y-126208000D02*
X121765000Y-126858000D01*
X121765000Y-131748000D02*
X121765000Y-131098000D01*
X122885000Y-126858000D02*
X122885000Y-131098000D01*
X120645000Y-126858000D02*
X122885000Y-126858000D01*
X120645000Y-131098000D02*
X120645000Y-126858000D01*
X122885000Y-131098000D02*
X120645000Y-131098000D01*
X103835000Y-130498000D02*
X101595000Y-130498000D01*
X103835000Y-130258000D02*
X101595000Y-130258000D01*
X103835000Y-130378000D02*
X101595000Y-130378000D01*
X102715000Y-126208000D02*
X102715000Y-126858000D01*
X102715000Y-131748000D02*
X102715000Y-131098000D01*
X103835000Y-126858000D02*
X103835000Y-131098000D01*
X101595000Y-126858000D02*
X103835000Y-126858000D01*
X101595000Y-131098000D02*
X101595000Y-126858000D01*
X103835000Y-131098000D02*
X101595000Y-131098000D01*
X84785000Y-130498000D02*
X82545000Y-130498000D01*
X84785000Y-130258000D02*
X82545000Y-130258000D01*
X84785000Y-130378000D02*
X82545000Y-130378000D01*
X83665000Y-126208000D02*
X83665000Y-126858000D01*
X83665000Y-131748000D02*
X83665000Y-131098000D01*
X84785000Y-126858000D02*
X84785000Y-131098000D01*
X82545000Y-126858000D02*
X84785000Y-126858000D01*
X82545000Y-131098000D02*
X82545000Y-126858000D01*
X84785000Y-131098000D02*
X82545000Y-131098000D01*
X60972500Y-130498000D02*
X58732500Y-130498000D01*
X60972500Y-130258000D02*
X58732500Y-130258000D01*
X60972500Y-130378000D02*
X58732500Y-130378000D01*
X59852500Y-126208000D02*
X59852500Y-126858000D01*
X59852500Y-131748000D02*
X59852500Y-131098000D01*
X60972500Y-126858000D02*
X60972500Y-131098000D01*
X58732500Y-126858000D02*
X60972500Y-126858000D01*
X58732500Y-131098000D02*
X58732500Y-126858000D01*
X60972500Y-131098000D02*
X58732500Y-131098000D01*
X365772000Y-111448000D02*
X363532000Y-111448000D01*
X365772000Y-111208000D02*
X363532000Y-111208000D01*
X365772000Y-111328000D02*
X363532000Y-111328000D01*
X364652000Y-107158000D02*
X364652000Y-107808000D01*
X364652000Y-112698000D02*
X364652000Y-112048000D01*
X365772000Y-107808000D02*
X365772000Y-112048000D01*
X363532000Y-107808000D02*
X365772000Y-107808000D01*
X363532000Y-112048000D02*
X363532000Y-107808000D01*
X365772000Y-112048000D02*
X363532000Y-112048000D01*
X346722000Y-111448000D02*
X344482000Y-111448000D01*
X346722000Y-111208000D02*
X344482000Y-111208000D01*
X346722000Y-111328000D02*
X344482000Y-111328000D01*
X345602000Y-107158000D02*
X345602000Y-107808000D01*
X345602000Y-112698000D02*
X345602000Y-112048000D01*
X346722000Y-107808000D02*
X346722000Y-112048000D01*
X344482000Y-107808000D02*
X346722000Y-107808000D01*
X344482000Y-112048000D02*
X344482000Y-107808000D01*
X346722000Y-112048000D02*
X344482000Y-112048000D01*
X327672000Y-111448000D02*
X325432000Y-111448000D01*
X327672000Y-111208000D02*
X325432000Y-111208000D01*
X327672000Y-111328000D02*
X325432000Y-111328000D01*
X326552000Y-107158000D02*
X326552000Y-107808000D01*
X326552000Y-112698000D02*
X326552000Y-112048000D01*
X327672000Y-107808000D02*
X327672000Y-112048000D01*
X325432000Y-107808000D02*
X327672000Y-107808000D01*
X325432000Y-112048000D02*
X325432000Y-107808000D01*
X327672000Y-112048000D02*
X325432000Y-112048000D01*
X313385000Y-111448000D02*
X311145000Y-111448000D01*
X313385000Y-111208000D02*
X311145000Y-111208000D01*
X313385000Y-111328000D02*
X311145000Y-111328000D01*
X312265000Y-107158000D02*
X312265000Y-107808000D01*
X312265000Y-112698000D02*
X312265000Y-112048000D01*
X313385000Y-107808000D02*
X313385000Y-112048000D01*
X311145000Y-107808000D02*
X313385000Y-107808000D01*
X311145000Y-112048000D02*
X311145000Y-107808000D01*
X313385000Y-112048000D02*
X311145000Y-112048000D01*
X284810000Y-111448000D02*
X282570000Y-111448000D01*
X284810000Y-111208000D02*
X282570000Y-111208000D01*
X284810000Y-111328000D02*
X282570000Y-111328000D01*
X283690000Y-107158000D02*
X283690000Y-107808000D01*
X283690000Y-112698000D02*
X283690000Y-112048000D01*
X284810000Y-107808000D02*
X284810000Y-112048000D01*
X282570000Y-107808000D02*
X284810000Y-107808000D01*
X282570000Y-112048000D02*
X282570000Y-107808000D01*
X284810000Y-112048000D02*
X282570000Y-112048000D01*
X265760000Y-111448000D02*
X263520000Y-111448000D01*
X265760000Y-111208000D02*
X263520000Y-111208000D01*
X265760000Y-111328000D02*
X263520000Y-111328000D01*
X264640000Y-107158000D02*
X264640000Y-107808000D01*
X264640000Y-112698000D02*
X264640000Y-112048000D01*
X265760000Y-107808000D02*
X265760000Y-112048000D01*
X263520000Y-107808000D02*
X265760000Y-107808000D01*
X263520000Y-112048000D02*
X263520000Y-107808000D01*
X265760000Y-112048000D02*
X263520000Y-112048000D01*
X246710000Y-111448000D02*
X244470000Y-111448000D01*
X246710000Y-111208000D02*
X244470000Y-111208000D01*
X246710000Y-111328000D02*
X244470000Y-111328000D01*
X245590000Y-107158000D02*
X245590000Y-107808000D01*
X245590000Y-112698000D02*
X245590000Y-112048000D01*
X246710000Y-107808000D02*
X246710000Y-112048000D01*
X244470000Y-107808000D02*
X246710000Y-107808000D01*
X244470000Y-112048000D02*
X244470000Y-107808000D01*
X246710000Y-112048000D02*
X244470000Y-112048000D01*
X227660000Y-111448000D02*
X225420000Y-111448000D01*
X227660000Y-111208000D02*
X225420000Y-111208000D01*
X227660000Y-111328000D02*
X225420000Y-111328000D01*
X226540000Y-107158000D02*
X226540000Y-107808000D01*
X226540000Y-112698000D02*
X226540000Y-112048000D01*
X227660000Y-107808000D02*
X227660000Y-112048000D01*
X225420000Y-107808000D02*
X227660000Y-107808000D01*
X225420000Y-112048000D02*
X225420000Y-107808000D01*
X227660000Y-112048000D02*
X225420000Y-112048000D01*
X208610000Y-111448000D02*
X206370000Y-111448000D01*
X208610000Y-111208000D02*
X206370000Y-111208000D01*
X208610000Y-111328000D02*
X206370000Y-111328000D01*
X207490000Y-107158000D02*
X207490000Y-107808000D01*
X207490000Y-112698000D02*
X207490000Y-112048000D01*
X208610000Y-107808000D02*
X208610000Y-112048000D01*
X206370000Y-107808000D02*
X208610000Y-107808000D01*
X206370000Y-112048000D02*
X206370000Y-107808000D01*
X208610000Y-112048000D02*
X206370000Y-112048000D01*
X189560000Y-111448000D02*
X187320000Y-111448000D01*
X189560000Y-111208000D02*
X187320000Y-111208000D01*
X189560000Y-111328000D02*
X187320000Y-111328000D01*
X188440000Y-107158000D02*
X188440000Y-107808000D01*
X188440000Y-112698000D02*
X188440000Y-112048000D01*
X189560000Y-107808000D02*
X189560000Y-112048000D01*
X187320000Y-107808000D02*
X189560000Y-107808000D01*
X187320000Y-112048000D02*
X187320000Y-107808000D01*
X189560000Y-112048000D02*
X187320000Y-112048000D01*
X170510000Y-111448000D02*
X168270000Y-111448000D01*
X170510000Y-111208000D02*
X168270000Y-111208000D01*
X170510000Y-111328000D02*
X168270000Y-111328000D01*
X169390000Y-107158000D02*
X169390000Y-107808000D01*
X169390000Y-112698000D02*
X169390000Y-112048000D01*
X170510000Y-107808000D02*
X170510000Y-112048000D01*
X168270000Y-107808000D02*
X170510000Y-107808000D01*
X168270000Y-112048000D02*
X168270000Y-107808000D01*
X170510000Y-112048000D02*
X168270000Y-112048000D01*
X151460000Y-111448000D02*
X149220000Y-111448000D01*
X151460000Y-111208000D02*
X149220000Y-111208000D01*
X151460000Y-111328000D02*
X149220000Y-111328000D01*
X150340000Y-107158000D02*
X150340000Y-107808000D01*
X150340000Y-112698000D02*
X150340000Y-112048000D01*
X151460000Y-107808000D02*
X151460000Y-112048000D01*
X149220000Y-107808000D02*
X151460000Y-107808000D01*
X149220000Y-112048000D02*
X149220000Y-107808000D01*
X151460000Y-112048000D02*
X149220000Y-112048000D01*
X132410000Y-111448000D02*
X130170000Y-111448000D01*
X132410000Y-111208000D02*
X130170000Y-111208000D01*
X132410000Y-111328000D02*
X130170000Y-111328000D01*
X131290000Y-107158000D02*
X131290000Y-107808000D01*
X131290000Y-112698000D02*
X131290000Y-112048000D01*
X132410000Y-107808000D02*
X132410000Y-112048000D01*
X130170000Y-107808000D02*
X132410000Y-107808000D01*
X130170000Y-112048000D02*
X130170000Y-107808000D01*
X132410000Y-112048000D02*
X130170000Y-112048000D01*
X113360000Y-111448000D02*
X111120000Y-111448000D01*
X113360000Y-111208000D02*
X111120000Y-111208000D01*
X113360000Y-111328000D02*
X111120000Y-111328000D01*
X112240000Y-107158000D02*
X112240000Y-107808000D01*
X112240000Y-112698000D02*
X112240000Y-112048000D01*
X113360000Y-107808000D02*
X113360000Y-112048000D01*
X111120000Y-107808000D02*
X113360000Y-107808000D01*
X111120000Y-112048000D02*
X111120000Y-107808000D01*
X113360000Y-112048000D02*
X111120000Y-112048000D01*
X94310000Y-111448000D02*
X92070000Y-111448000D01*
X94310000Y-111208000D02*
X92070000Y-111208000D01*
X94310000Y-111328000D02*
X92070000Y-111328000D01*
X93190000Y-107158000D02*
X93190000Y-107808000D01*
X93190000Y-112698000D02*
X93190000Y-112048000D01*
X94310000Y-107808000D02*
X94310000Y-112048000D01*
X92070000Y-107808000D02*
X94310000Y-107808000D01*
X92070000Y-112048000D02*
X92070000Y-107808000D01*
X94310000Y-112048000D02*
X92070000Y-112048000D01*
X75260000Y-111448000D02*
X73020000Y-111448000D01*
X75260000Y-111208000D02*
X73020000Y-111208000D01*
X75260000Y-111328000D02*
X73020000Y-111328000D01*
X74140000Y-107158000D02*
X74140000Y-107808000D01*
X74140000Y-112698000D02*
X74140000Y-112048000D01*
X75260000Y-107808000D02*
X75260000Y-112048000D01*
X73020000Y-107808000D02*
X75260000Y-107808000D01*
X73020000Y-112048000D02*
X73020000Y-107808000D01*
X75260000Y-112048000D02*
X73020000Y-112048000D01*
X56210000Y-111448000D02*
X53970000Y-111448000D01*
X56210000Y-111208000D02*
X53970000Y-111208000D01*
X56210000Y-111328000D02*
X53970000Y-111328000D01*
X55090000Y-107158000D02*
X55090000Y-107808000D01*
X55090000Y-112698000D02*
X55090000Y-112048000D01*
X56210000Y-107808000D02*
X56210000Y-112048000D01*
X53970000Y-107808000D02*
X56210000Y-107808000D01*
X53970000Y-112048000D02*
X53970000Y-107808000D01*
X56210000Y-112048000D02*
X53970000Y-112048000D01*
X365772000Y-83445000D02*
X363532000Y-83445000D01*
X365772000Y-83205000D02*
X363532000Y-83205000D01*
X365772000Y-83325000D02*
X363532000Y-83325000D01*
X364652000Y-79155000D02*
X364652000Y-79805000D01*
X364652000Y-84695000D02*
X364652000Y-84045000D01*
X365772000Y-79805000D02*
X365772000Y-84045000D01*
X363532000Y-79805000D02*
X365772000Y-79805000D01*
X363532000Y-84045000D02*
X363532000Y-79805000D01*
X365772000Y-84045000D02*
X363532000Y-84045000D01*
X346722000Y-83445000D02*
X344482000Y-83445000D01*
X346722000Y-83205000D02*
X344482000Y-83205000D01*
X346722000Y-83325000D02*
X344482000Y-83325000D01*
X345602000Y-79155000D02*
X345602000Y-79805000D01*
X345602000Y-84695000D02*
X345602000Y-84045000D01*
X346722000Y-79805000D02*
X346722000Y-84045000D01*
X344482000Y-79805000D02*
X346722000Y-79805000D01*
X344482000Y-84045000D02*
X344482000Y-79805000D01*
X346722000Y-84045000D02*
X344482000Y-84045000D01*
X327672000Y-83445000D02*
X325432000Y-83445000D01*
X327672000Y-83205000D02*
X325432000Y-83205000D01*
X327672000Y-83325000D02*
X325432000Y-83325000D01*
X326552000Y-79155000D02*
X326552000Y-79805000D01*
X326552000Y-84695000D02*
X326552000Y-84045000D01*
X327672000Y-79805000D02*
X327672000Y-84045000D01*
X325432000Y-79805000D02*
X327672000Y-79805000D01*
X325432000Y-84045000D02*
X325432000Y-79805000D01*
X327672000Y-84045000D02*
X325432000Y-84045000D01*
X322910000Y-83445000D02*
X320670000Y-83445000D01*
X322910000Y-83205000D02*
X320670000Y-83205000D01*
X322910000Y-83325000D02*
X320670000Y-83325000D01*
X321790000Y-79155000D02*
X321790000Y-79805000D01*
X321790000Y-84695000D02*
X321790000Y-84045000D01*
X322910000Y-79805000D02*
X322910000Y-84045000D01*
X320670000Y-79805000D02*
X322910000Y-79805000D01*
X320670000Y-84045000D02*
X320670000Y-79805000D01*
X322910000Y-84045000D02*
X320670000Y-84045000D01*
X303860000Y-83445000D02*
X301620000Y-83445000D01*
X303860000Y-83205000D02*
X301620000Y-83205000D01*
X303860000Y-83325000D02*
X301620000Y-83325000D01*
X302740000Y-79155000D02*
X302740000Y-79805000D01*
X302740000Y-84695000D02*
X302740000Y-84045000D01*
X303860000Y-79805000D02*
X303860000Y-84045000D01*
X301620000Y-79805000D02*
X303860000Y-79805000D01*
X301620000Y-84045000D02*
X301620000Y-79805000D01*
X303860000Y-84045000D02*
X301620000Y-84045000D01*
X284810000Y-83445000D02*
X282570000Y-83445000D01*
X284810000Y-83205000D02*
X282570000Y-83205000D01*
X284810000Y-83325000D02*
X282570000Y-83325000D01*
X283690000Y-79155000D02*
X283690000Y-79805000D01*
X283690000Y-84695000D02*
X283690000Y-84045000D01*
X284810000Y-79805000D02*
X284810000Y-84045000D01*
X282570000Y-79805000D02*
X284810000Y-79805000D01*
X282570000Y-84045000D02*
X282570000Y-79805000D01*
X284810000Y-84045000D02*
X282570000Y-84045000D01*
X265760000Y-83445000D02*
X263520000Y-83445000D01*
X265760000Y-83205000D02*
X263520000Y-83205000D01*
X265760000Y-83325000D02*
X263520000Y-83325000D01*
X264640000Y-79155000D02*
X264640000Y-79805000D01*
X264640000Y-84695000D02*
X264640000Y-84045000D01*
X265760000Y-79805000D02*
X265760000Y-84045000D01*
X263520000Y-79805000D02*
X265760000Y-79805000D01*
X263520000Y-84045000D02*
X263520000Y-79805000D01*
X265760000Y-84045000D02*
X263520000Y-84045000D01*
X237185000Y-83445000D02*
X234945000Y-83445000D01*
X237185000Y-83205000D02*
X234945000Y-83205000D01*
X237185000Y-83325000D02*
X234945000Y-83325000D01*
X236065000Y-79155000D02*
X236065000Y-79805000D01*
X236065000Y-84695000D02*
X236065000Y-84045000D01*
X237185000Y-79805000D02*
X237185000Y-84045000D01*
X234945000Y-79805000D02*
X237185000Y-79805000D01*
X234945000Y-84045000D02*
X234945000Y-79805000D01*
X237185000Y-84045000D02*
X234945000Y-84045000D01*
X218135000Y-83445000D02*
X215895000Y-83445000D01*
X218135000Y-83205000D02*
X215895000Y-83205000D01*
X218135000Y-83325000D02*
X215895000Y-83325000D01*
X217015000Y-79155000D02*
X217015000Y-79805000D01*
X217015000Y-84695000D02*
X217015000Y-84045000D01*
X218135000Y-79805000D02*
X218135000Y-84045000D01*
X215895000Y-79805000D02*
X218135000Y-79805000D01*
X215895000Y-84045000D02*
X215895000Y-79805000D01*
X218135000Y-84045000D02*
X215895000Y-84045000D01*
X180035000Y-83445000D02*
X177795000Y-83445000D01*
X180035000Y-83205000D02*
X177795000Y-83205000D01*
X180035000Y-83325000D02*
X177795000Y-83325000D01*
X178915000Y-79155000D02*
X178915000Y-79805000D01*
X178915000Y-84695000D02*
X178915000Y-84045000D01*
X180035000Y-79805000D02*
X180035000Y-84045000D01*
X177795000Y-79805000D02*
X180035000Y-79805000D01*
X177795000Y-84045000D02*
X177795000Y-79805000D01*
X180035000Y-84045000D02*
X177795000Y-84045000D01*
X160985000Y-83445000D02*
X158745000Y-83445000D01*
X160985000Y-83205000D02*
X158745000Y-83205000D01*
X160985000Y-83325000D02*
X158745000Y-83325000D01*
X159865000Y-79155000D02*
X159865000Y-79805000D01*
X159865000Y-84695000D02*
X159865000Y-84045000D01*
X160985000Y-79805000D02*
X160985000Y-84045000D01*
X158745000Y-79805000D02*
X160985000Y-79805000D01*
X158745000Y-84045000D02*
X158745000Y-79805000D01*
X160985000Y-84045000D02*
X158745000Y-84045000D01*
X151460000Y-83445000D02*
X149220000Y-83445000D01*
X151460000Y-83205000D02*
X149220000Y-83205000D01*
X151460000Y-83325000D02*
X149220000Y-83325000D01*
X150340000Y-79155000D02*
X150340000Y-79805000D01*
X150340000Y-84695000D02*
X150340000Y-84045000D01*
X151460000Y-79805000D02*
X151460000Y-84045000D01*
X149220000Y-79805000D02*
X151460000Y-79805000D01*
X149220000Y-84045000D02*
X149220000Y-79805000D01*
X151460000Y-84045000D02*
X149220000Y-84045000D01*
X113039000Y-83445000D02*
X110799000Y-83445000D01*
X113039000Y-83205000D02*
X110799000Y-83205000D01*
X113039000Y-83325000D02*
X110799000Y-83325000D01*
X111919000Y-79155000D02*
X111919000Y-79805000D01*
X111919000Y-84695000D02*
X111919000Y-84045000D01*
X113039000Y-79805000D02*
X113039000Y-84045000D01*
X110799000Y-79805000D02*
X113039000Y-79805000D01*
X110799000Y-84045000D02*
X110799000Y-79805000D01*
X113039000Y-84045000D02*
X110799000Y-84045000D01*
X94310000Y-83445000D02*
X92070000Y-83445000D01*
X94310000Y-83205000D02*
X92070000Y-83205000D01*
X94310000Y-83325000D02*
X92070000Y-83325000D01*
X93190000Y-79155000D02*
X93190000Y-79805000D01*
X93190000Y-84695000D02*
X93190000Y-84045000D01*
X94310000Y-79805000D02*
X94310000Y-84045000D01*
X92070000Y-79805000D02*
X94310000Y-79805000D01*
X92070000Y-84045000D02*
X92070000Y-79805000D01*
X94310000Y-84045000D02*
X92070000Y-84045000D01*
X75260000Y-83445000D02*
X73020000Y-83445000D01*
X75260000Y-83205000D02*
X73020000Y-83205000D01*
X75260000Y-83325000D02*
X73020000Y-83325000D01*
X74140000Y-79155000D02*
X74140000Y-79805000D01*
X74140000Y-84695000D02*
X74140000Y-84045000D01*
X75260000Y-79805000D02*
X75260000Y-84045000D01*
X73020000Y-79805000D02*
X75260000Y-79805000D01*
X73020000Y-84045000D02*
X73020000Y-79805000D01*
X75260000Y-84045000D02*
X73020000Y-84045000D01*
X56210000Y-83445000D02*
X53970000Y-83445000D01*
X56210000Y-83205000D02*
X53970000Y-83205000D01*
X56210000Y-83325000D02*
X53970000Y-83325000D01*
X55090000Y-79155000D02*
X55090000Y-79805000D01*
X55090000Y-84695000D02*
X55090000Y-84045000D01*
X56210000Y-79805000D02*
X56210000Y-84045000D01*
X53970000Y-79805000D02*
X56210000Y-79805000D01*
X53970000Y-84045000D02*
X53970000Y-79805000D01*
X56210000Y-84045000D02*
X53970000Y-84045000D01*
D11*
X131730904Y-82954880D02*
X131730904Y-83764404D01*
X131683285Y-83859642D01*
X131635666Y-83907261D01*
X131540428Y-83954880D01*
X131349952Y-83954880D01*
X131254714Y-83907261D01*
X131207095Y-83859642D01*
X131159476Y-83764404D01*
X131159476Y-82954880D01*
X130159476Y-83954880D02*
X130730904Y-83954880D01*
X130445190Y-83954880D02*
X130445190Y-82954880D01*
X130540428Y-83097738D01*
X130635666Y-83192976D01*
X130730904Y-83240595D01*
X130995666Y-95122166D02*
X130995666Y-94422166D01*
X130762333Y-94922166D01*
X130529000Y-94422166D01*
X130529000Y-95122166D01*
X130195666Y-94755500D02*
X129962333Y-94755500D01*
X129862333Y-95122166D02*
X130195666Y-95122166D01*
X130195666Y-94422166D01*
X129862333Y-94422166D01*
X129195666Y-94455500D02*
X129262333Y-94422166D01*
X129362333Y-94422166D01*
X129462333Y-94455500D01*
X129529000Y-94522166D01*
X129562333Y-94588833D01*
X129595666Y-94722166D01*
X129595666Y-94822166D01*
X129562333Y-94955500D01*
X129529000Y-95022166D01*
X129462333Y-95088833D01*
X129362333Y-95122166D01*
X129295666Y-95122166D01*
X129195666Y-95088833D01*
X129162333Y-95055500D01*
X129162333Y-94822166D01*
X129295666Y-94822166D01*
X128895666Y-94922166D02*
X128562333Y-94922166D01*
X128962333Y-95122166D02*
X128729000Y-94422166D01*
X128495666Y-95122166D01*
X128329000Y-94422166D02*
X127895666Y-94422166D01*
X128129000Y-94688833D01*
X128029000Y-94688833D01*
X127962333Y-94722166D01*
X127929000Y-94755500D01*
X127895666Y-94822166D01*
X127895666Y-94988833D01*
X127929000Y-95055500D01*
X127962333Y-95088833D01*
X128029000Y-95122166D01*
X128229000Y-95122166D01*
X128295666Y-95088833D01*
X128329000Y-95055500D01*
X127629000Y-94488833D02*
X127595666Y-94455500D01*
X127529000Y-94422166D01*
X127362333Y-94422166D01*
X127295666Y-94455500D01*
X127262333Y-94488833D01*
X127229000Y-94555500D01*
X127229000Y-94622166D01*
X127262333Y-94722166D01*
X127662333Y-95122166D01*
X127229000Y-95122166D01*
X126929000Y-94422166D02*
X126929000Y-94988833D01*
X126895666Y-95055500D01*
X126862333Y-95088833D01*
X126795666Y-95122166D01*
X126662333Y-95122166D01*
X126595666Y-95088833D01*
X126562333Y-95055500D01*
X126529000Y-94988833D01*
X126529000Y-94422166D01*
X125895666Y-94655500D02*
X125895666Y-95122166D01*
X126062333Y-94388833D02*
X126229000Y-94888833D01*
X125795666Y-94888833D01*
X355325666Y-94322380D02*
X355659000Y-93846190D01*
X355897095Y-94322380D02*
X355897095Y-93322380D01*
X355516142Y-93322380D01*
X355420904Y-93370000D01*
X355373285Y-93417619D01*
X355325666Y-93512857D01*
X355325666Y-93655714D01*
X355373285Y-93750952D01*
X355420904Y-93798571D01*
X355516142Y-93846190D01*
X355897095Y-93846190D01*
X354944714Y-93417619D02*
X354897095Y-93370000D01*
X354801857Y-93322380D01*
X354563761Y-93322380D01*
X354468523Y-93370000D01*
X354420904Y-93417619D01*
X354373285Y-93512857D01*
X354373285Y-93608095D01*
X354420904Y-93750952D01*
X354992333Y-94322380D01*
X354373285Y-94322380D01*
X336275666Y-94322380D02*
X336609000Y-93846190D01*
X336847095Y-94322380D02*
X336847095Y-93322380D01*
X336466142Y-93322380D01*
X336370904Y-93370000D01*
X336323285Y-93417619D01*
X336275666Y-93512857D01*
X336275666Y-93655714D01*
X336323285Y-93750952D01*
X336370904Y-93798571D01*
X336466142Y-93846190D01*
X336847095Y-93846190D01*
X335323285Y-94322380D02*
X335894714Y-94322380D01*
X335609000Y-94322380D02*
X335609000Y-93322380D01*
X335704238Y-93465238D01*
X335799476Y-93560476D01*
X335894714Y-93608095D01*
X367224380Y-184913714D02*
X366224380Y-184913714D01*
X366224380Y-185151809D01*
X366272000Y-185294666D01*
X366367238Y-185389904D01*
X366462476Y-185437523D01*
X366652952Y-185485142D01*
X366795809Y-185485142D01*
X366986285Y-185437523D01*
X367081523Y-185389904D01*
X367176761Y-185294666D01*
X367224380Y-185151809D01*
X367224380Y-184913714D01*
X366652952Y-186056571D02*
X366605333Y-185961333D01*
X366557714Y-185913714D01*
X366462476Y-185866095D01*
X366414857Y-185866095D01*
X366319619Y-185913714D01*
X366272000Y-185961333D01*
X366224380Y-186056571D01*
X366224380Y-186247047D01*
X366272000Y-186342285D01*
X366319619Y-186389904D01*
X366414857Y-186437523D01*
X366462476Y-186437523D01*
X366557714Y-186389904D01*
X366605333Y-186342285D01*
X366652952Y-186247047D01*
X366652952Y-186056571D01*
X366700571Y-185961333D01*
X366748190Y-185913714D01*
X366843428Y-185866095D01*
X367033904Y-185866095D01*
X367129142Y-185913714D01*
X367176761Y-185961333D01*
X367224380Y-186056571D01*
X367224380Y-186247047D01*
X367176761Y-186342285D01*
X367129142Y-186389904D01*
X367033904Y-186437523D01*
X366843428Y-186437523D01*
X366748190Y-186389904D01*
X366700571Y-186342285D01*
X366652952Y-186247047D01*
X366224380Y-186770857D02*
X366224380Y-187437523D01*
X367224380Y-187008952D01*
X366904380Y-189676095D02*
X365904380Y-189676095D01*
X366904380Y-190247523D02*
X366332952Y-189818952D01*
X365904380Y-190247523D02*
X366475809Y-189676095D01*
X348174380Y-184913714D02*
X347174380Y-184913714D01*
X347174380Y-185151809D01*
X347222000Y-185294666D01*
X347317238Y-185389904D01*
X347412476Y-185437523D01*
X347602952Y-185485142D01*
X347745809Y-185485142D01*
X347936285Y-185437523D01*
X348031523Y-185389904D01*
X348126761Y-185294666D01*
X348174380Y-185151809D01*
X348174380Y-184913714D01*
X347602952Y-186056571D02*
X347555333Y-185961333D01*
X347507714Y-185913714D01*
X347412476Y-185866095D01*
X347364857Y-185866095D01*
X347269619Y-185913714D01*
X347222000Y-185961333D01*
X347174380Y-186056571D01*
X347174380Y-186247047D01*
X347222000Y-186342285D01*
X347269619Y-186389904D01*
X347364857Y-186437523D01*
X347412476Y-186437523D01*
X347507714Y-186389904D01*
X347555333Y-186342285D01*
X347602952Y-186247047D01*
X347602952Y-186056571D01*
X347650571Y-185961333D01*
X347698190Y-185913714D01*
X347793428Y-185866095D01*
X347983904Y-185866095D01*
X348079142Y-185913714D01*
X348126761Y-185961333D01*
X348174380Y-186056571D01*
X348174380Y-186247047D01*
X348126761Y-186342285D01*
X348079142Y-186389904D01*
X347983904Y-186437523D01*
X347793428Y-186437523D01*
X347698190Y-186389904D01*
X347650571Y-186342285D01*
X347602952Y-186247047D01*
X347174380Y-187294666D02*
X347174380Y-187104190D01*
X347222000Y-187008952D01*
X347269619Y-186961333D01*
X347412476Y-186866095D01*
X347602952Y-186818476D01*
X347983904Y-186818476D01*
X348079142Y-186866095D01*
X348126761Y-186913714D01*
X348174380Y-187008952D01*
X348174380Y-187199428D01*
X348126761Y-187294666D01*
X348079142Y-187342285D01*
X347983904Y-187389904D01*
X347745809Y-187389904D01*
X347650571Y-187342285D01*
X347602952Y-187294666D01*
X347555333Y-187199428D01*
X347555333Y-187008952D01*
X347602952Y-186913714D01*
X347650571Y-186866095D01*
X347745809Y-186818476D01*
X347854380Y-189676095D02*
X346854380Y-189676095D01*
X347854380Y-190247523D02*
X347282952Y-189818952D01*
X346854380Y-190247523D02*
X347425809Y-189676095D01*
X329124380Y-165875714D02*
X328124380Y-165875714D01*
X328124380Y-166113809D01*
X328172000Y-166256666D01*
X328267238Y-166351904D01*
X328362476Y-166399523D01*
X328552952Y-166447142D01*
X328695809Y-166447142D01*
X328886285Y-166399523D01*
X328981523Y-166351904D01*
X329076761Y-166256666D01*
X329124380Y-166113809D01*
X329124380Y-165875714D01*
X328552952Y-167018571D02*
X328505333Y-166923333D01*
X328457714Y-166875714D01*
X328362476Y-166828095D01*
X328314857Y-166828095D01*
X328219619Y-166875714D01*
X328172000Y-166923333D01*
X328124380Y-167018571D01*
X328124380Y-167209047D01*
X328172000Y-167304285D01*
X328219619Y-167351904D01*
X328314857Y-167399523D01*
X328362476Y-167399523D01*
X328457714Y-167351904D01*
X328505333Y-167304285D01*
X328552952Y-167209047D01*
X328552952Y-167018571D01*
X328600571Y-166923333D01*
X328648190Y-166875714D01*
X328743428Y-166828095D01*
X328933904Y-166828095D01*
X329029142Y-166875714D01*
X329076761Y-166923333D01*
X329124380Y-167018571D01*
X329124380Y-167209047D01*
X329076761Y-167304285D01*
X329029142Y-167351904D01*
X328933904Y-167399523D01*
X328743428Y-167399523D01*
X328648190Y-167351904D01*
X328600571Y-167304285D01*
X328552952Y-167209047D01*
X328124380Y-168304285D02*
X328124380Y-167828095D01*
X328600571Y-167780476D01*
X328552952Y-167828095D01*
X328505333Y-167923333D01*
X328505333Y-168161428D01*
X328552952Y-168256666D01*
X328600571Y-168304285D01*
X328695809Y-168351904D01*
X328933904Y-168351904D01*
X329029142Y-168304285D01*
X329076761Y-168256666D01*
X329124380Y-168161428D01*
X329124380Y-167923333D01*
X329076761Y-167828095D01*
X329029142Y-167780476D01*
X328804380Y-170638095D02*
X327804380Y-170638095D01*
X328804380Y-171209523D02*
X328232952Y-170780952D01*
X327804380Y-171209523D02*
X328375809Y-170638095D01*
X302931380Y-184913714D02*
X301931380Y-184913714D01*
X301931380Y-185151809D01*
X301979000Y-185294666D01*
X302074238Y-185389904D01*
X302169476Y-185437523D01*
X302359952Y-185485142D01*
X302502809Y-185485142D01*
X302693285Y-185437523D01*
X302788523Y-185389904D01*
X302883761Y-185294666D01*
X302931380Y-185151809D01*
X302931380Y-184913714D01*
X302359952Y-186056571D02*
X302312333Y-185961333D01*
X302264714Y-185913714D01*
X302169476Y-185866095D01*
X302121857Y-185866095D01*
X302026619Y-185913714D01*
X301979000Y-185961333D01*
X301931380Y-186056571D01*
X301931380Y-186247047D01*
X301979000Y-186342285D01*
X302026619Y-186389904D01*
X302121857Y-186437523D01*
X302169476Y-186437523D01*
X302264714Y-186389904D01*
X302312333Y-186342285D01*
X302359952Y-186247047D01*
X302359952Y-186056571D01*
X302407571Y-185961333D01*
X302455190Y-185913714D01*
X302550428Y-185866095D01*
X302740904Y-185866095D01*
X302836142Y-185913714D01*
X302883761Y-185961333D01*
X302931380Y-186056571D01*
X302931380Y-186247047D01*
X302883761Y-186342285D01*
X302836142Y-186389904D01*
X302740904Y-186437523D01*
X302550428Y-186437523D01*
X302455190Y-186389904D01*
X302407571Y-186342285D01*
X302359952Y-186247047D01*
X302264714Y-187294666D02*
X302931380Y-187294666D01*
X301883761Y-187056571D02*
X302598047Y-186818476D01*
X302598047Y-187437523D01*
X302611380Y-189676095D02*
X301611380Y-189676095D01*
X302611380Y-190247523D02*
X302039952Y-189818952D01*
X301611380Y-190247523D02*
X302182809Y-189676095D01*
X279118380Y-184913714D02*
X278118380Y-184913714D01*
X278118380Y-185151809D01*
X278166000Y-185294666D01*
X278261238Y-185389904D01*
X278356476Y-185437523D01*
X278546952Y-185485142D01*
X278689809Y-185485142D01*
X278880285Y-185437523D01*
X278975523Y-185389904D01*
X279070761Y-185294666D01*
X279118380Y-185151809D01*
X279118380Y-184913714D01*
X278546952Y-186056571D02*
X278499333Y-185961333D01*
X278451714Y-185913714D01*
X278356476Y-185866095D01*
X278308857Y-185866095D01*
X278213619Y-185913714D01*
X278166000Y-185961333D01*
X278118380Y-186056571D01*
X278118380Y-186247047D01*
X278166000Y-186342285D01*
X278213619Y-186389904D01*
X278308857Y-186437523D01*
X278356476Y-186437523D01*
X278451714Y-186389904D01*
X278499333Y-186342285D01*
X278546952Y-186247047D01*
X278546952Y-186056571D01*
X278594571Y-185961333D01*
X278642190Y-185913714D01*
X278737428Y-185866095D01*
X278927904Y-185866095D01*
X279023142Y-185913714D01*
X279070761Y-185961333D01*
X279118380Y-186056571D01*
X279118380Y-186247047D01*
X279070761Y-186342285D01*
X279023142Y-186389904D01*
X278927904Y-186437523D01*
X278737428Y-186437523D01*
X278642190Y-186389904D01*
X278594571Y-186342285D01*
X278546952Y-186247047D01*
X278118380Y-186770857D02*
X278118380Y-187389904D01*
X278499333Y-187056571D01*
X278499333Y-187199428D01*
X278546952Y-187294666D01*
X278594571Y-187342285D01*
X278689809Y-187389904D01*
X278927904Y-187389904D01*
X279023142Y-187342285D01*
X279070761Y-187294666D01*
X279118380Y-187199428D01*
X279118380Y-186913714D01*
X279070761Y-186818476D01*
X279023142Y-186770857D01*
X278798380Y-189676095D02*
X277798380Y-189676095D01*
X278798380Y-190247523D02*
X278226952Y-189818952D01*
X277798380Y-190247523D02*
X278369809Y-189676095D01*
X255306380Y-184913714D02*
X254306380Y-184913714D01*
X254306380Y-185151809D01*
X254354000Y-185294666D01*
X254449238Y-185389904D01*
X254544476Y-185437523D01*
X254734952Y-185485142D01*
X254877809Y-185485142D01*
X255068285Y-185437523D01*
X255163523Y-185389904D01*
X255258761Y-185294666D01*
X255306380Y-185151809D01*
X255306380Y-184913714D01*
X254734952Y-186056571D02*
X254687333Y-185961333D01*
X254639714Y-185913714D01*
X254544476Y-185866095D01*
X254496857Y-185866095D01*
X254401619Y-185913714D01*
X254354000Y-185961333D01*
X254306380Y-186056571D01*
X254306380Y-186247047D01*
X254354000Y-186342285D01*
X254401619Y-186389904D01*
X254496857Y-186437523D01*
X254544476Y-186437523D01*
X254639714Y-186389904D01*
X254687333Y-186342285D01*
X254734952Y-186247047D01*
X254734952Y-186056571D01*
X254782571Y-185961333D01*
X254830190Y-185913714D01*
X254925428Y-185866095D01*
X255115904Y-185866095D01*
X255211142Y-185913714D01*
X255258761Y-185961333D01*
X255306380Y-186056571D01*
X255306380Y-186247047D01*
X255258761Y-186342285D01*
X255211142Y-186389904D01*
X255115904Y-186437523D01*
X254925428Y-186437523D01*
X254830190Y-186389904D01*
X254782571Y-186342285D01*
X254734952Y-186247047D01*
X254401619Y-186818476D02*
X254354000Y-186866095D01*
X254306380Y-186961333D01*
X254306380Y-187199428D01*
X254354000Y-187294666D01*
X254401619Y-187342285D01*
X254496857Y-187389904D01*
X254592095Y-187389904D01*
X254734952Y-187342285D01*
X255306380Y-186770857D01*
X255306380Y-187389904D01*
X254986380Y-189676095D02*
X253986380Y-189676095D01*
X254986380Y-190247523D02*
X254414952Y-189818952D01*
X253986380Y-190247523D02*
X254557809Y-189676095D01*
X231493380Y-184913714D02*
X230493380Y-184913714D01*
X230493380Y-185151809D01*
X230541000Y-185294666D01*
X230636238Y-185389904D01*
X230731476Y-185437523D01*
X230921952Y-185485142D01*
X231064809Y-185485142D01*
X231255285Y-185437523D01*
X231350523Y-185389904D01*
X231445761Y-185294666D01*
X231493380Y-185151809D01*
X231493380Y-184913714D01*
X230921952Y-186056571D02*
X230874333Y-185961333D01*
X230826714Y-185913714D01*
X230731476Y-185866095D01*
X230683857Y-185866095D01*
X230588619Y-185913714D01*
X230541000Y-185961333D01*
X230493380Y-186056571D01*
X230493380Y-186247047D01*
X230541000Y-186342285D01*
X230588619Y-186389904D01*
X230683857Y-186437523D01*
X230731476Y-186437523D01*
X230826714Y-186389904D01*
X230874333Y-186342285D01*
X230921952Y-186247047D01*
X230921952Y-186056571D01*
X230969571Y-185961333D01*
X231017190Y-185913714D01*
X231112428Y-185866095D01*
X231302904Y-185866095D01*
X231398142Y-185913714D01*
X231445761Y-185961333D01*
X231493380Y-186056571D01*
X231493380Y-186247047D01*
X231445761Y-186342285D01*
X231398142Y-186389904D01*
X231302904Y-186437523D01*
X231112428Y-186437523D01*
X231017190Y-186389904D01*
X230969571Y-186342285D01*
X230921952Y-186247047D01*
X231493380Y-187389904D02*
X231493380Y-186818476D01*
X231493380Y-187104190D02*
X230493380Y-187104190D01*
X230636238Y-187008952D01*
X230731476Y-186913714D01*
X230779095Y-186818476D01*
X231173380Y-189676095D02*
X230173380Y-189676095D01*
X231173380Y-190247523D02*
X230601952Y-189818952D01*
X230173380Y-190247523D02*
X230744809Y-189676095D01*
X179106380Y-184278714D02*
X178106380Y-184278714D01*
X178106380Y-184516809D01*
X178154000Y-184659666D01*
X178249238Y-184754904D01*
X178344476Y-184802523D01*
X178534952Y-184850142D01*
X178677809Y-184850142D01*
X178868285Y-184802523D01*
X178963523Y-184754904D01*
X179058761Y-184659666D01*
X179106380Y-184516809D01*
X179106380Y-184278714D01*
X178534952Y-185421571D02*
X178487333Y-185326333D01*
X178439714Y-185278714D01*
X178344476Y-185231095D01*
X178296857Y-185231095D01*
X178201619Y-185278714D01*
X178154000Y-185326333D01*
X178106380Y-185421571D01*
X178106380Y-185612047D01*
X178154000Y-185707285D01*
X178201619Y-185754904D01*
X178296857Y-185802523D01*
X178344476Y-185802523D01*
X178439714Y-185754904D01*
X178487333Y-185707285D01*
X178534952Y-185612047D01*
X178534952Y-185421571D01*
X178582571Y-185326333D01*
X178630190Y-185278714D01*
X178725428Y-185231095D01*
X178915904Y-185231095D01*
X179011142Y-185278714D01*
X179058761Y-185326333D01*
X179106380Y-185421571D01*
X179106380Y-185612047D01*
X179058761Y-185707285D01*
X179011142Y-185754904D01*
X178915904Y-185802523D01*
X178725428Y-185802523D01*
X178630190Y-185754904D01*
X178582571Y-185707285D01*
X178534952Y-185612047D01*
X178106380Y-186421571D02*
X178106380Y-186516809D01*
X178154000Y-186612047D01*
X178201619Y-186659666D01*
X178296857Y-186707285D01*
X178487333Y-186754904D01*
X178725428Y-186754904D01*
X178915904Y-186707285D01*
X179011142Y-186659666D01*
X179058761Y-186612047D01*
X179106380Y-186516809D01*
X179106380Y-186421571D01*
X179058761Y-186326333D01*
X179011142Y-186278714D01*
X178915904Y-186231095D01*
X178725428Y-186183476D01*
X178487333Y-186183476D01*
X178296857Y-186231095D01*
X178201619Y-186278714D01*
X178154000Y-186326333D01*
X178106380Y-186421571D01*
X178786380Y-189676095D02*
X177786380Y-189676095D01*
X178786380Y-190247523D02*
X178214952Y-189818952D01*
X177786380Y-190247523D02*
X178357809Y-189676095D01*
X106763619Y-187342285D02*
X107763619Y-187342285D01*
X107763619Y-187104190D01*
X107716000Y-186961333D01*
X107620761Y-186866095D01*
X107525523Y-186818476D01*
X107335047Y-186770857D01*
X107192190Y-186770857D01*
X107001714Y-186818476D01*
X106906476Y-186866095D01*
X106811238Y-186961333D01*
X106763619Y-187104190D01*
X106763619Y-187342285D01*
X107763619Y-186437523D02*
X107763619Y-185770857D01*
X106763619Y-186199428D01*
X106763619Y-185342285D02*
X106763619Y-185151809D01*
X106811238Y-185056571D01*
X106858857Y-185008952D01*
X107001714Y-184913714D01*
X107192190Y-184866095D01*
X107573142Y-184866095D01*
X107668380Y-184913714D01*
X107716000Y-184961333D01*
X107763619Y-185056571D01*
X107763619Y-185247047D01*
X107716000Y-185342285D01*
X107668380Y-185389904D01*
X107573142Y-185437523D01*
X107335047Y-185437523D01*
X107239809Y-185389904D01*
X107192190Y-185342285D01*
X107144571Y-185247047D01*
X107144571Y-185056571D01*
X107192190Y-184961333D01*
X107239809Y-184913714D01*
X107335047Y-184866095D01*
X106443619Y-190199904D02*
X107443619Y-190199904D01*
X106443619Y-189628476D02*
X107015047Y-190057047D01*
X107443619Y-189628476D02*
X106872190Y-190199904D01*
X83856180Y-184913714D02*
X82856180Y-184913714D01*
X82856180Y-185151809D01*
X82903800Y-185294666D01*
X82999038Y-185389904D01*
X83094276Y-185437523D01*
X83284752Y-185485142D01*
X83427609Y-185485142D01*
X83618085Y-185437523D01*
X83713323Y-185389904D01*
X83808561Y-185294666D01*
X83856180Y-185151809D01*
X83856180Y-184913714D01*
X82856180Y-185818476D02*
X82856180Y-186485142D01*
X83856180Y-186056571D01*
X83284752Y-187008952D02*
X83237133Y-186913714D01*
X83189514Y-186866095D01*
X83094276Y-186818476D01*
X83046657Y-186818476D01*
X82951419Y-186866095D01*
X82903800Y-186913714D01*
X82856180Y-187008952D01*
X82856180Y-187199428D01*
X82903800Y-187294666D01*
X82951419Y-187342285D01*
X83046657Y-187389904D01*
X83094276Y-187389904D01*
X83189514Y-187342285D01*
X83237133Y-187294666D01*
X83284752Y-187199428D01*
X83284752Y-187008952D01*
X83332371Y-186913714D01*
X83379990Y-186866095D01*
X83475228Y-186818476D01*
X83665704Y-186818476D01*
X83760942Y-186866095D01*
X83808561Y-186913714D01*
X83856180Y-187008952D01*
X83856180Y-187199428D01*
X83808561Y-187294666D01*
X83760942Y-187342285D01*
X83665704Y-187389904D01*
X83475228Y-187389904D01*
X83379990Y-187342285D01*
X83332371Y-187294666D01*
X83284752Y-187199428D01*
X83536180Y-189676095D02*
X82536180Y-189676095D01*
X83536180Y-190247523D02*
X82964752Y-189818952D01*
X82536180Y-190247523D02*
X83107609Y-189676095D01*
X60043580Y-184913714D02*
X59043580Y-184913714D01*
X59043580Y-185151809D01*
X59091200Y-185294666D01*
X59186438Y-185389904D01*
X59281676Y-185437523D01*
X59472152Y-185485142D01*
X59615009Y-185485142D01*
X59805485Y-185437523D01*
X59900723Y-185389904D01*
X59995961Y-185294666D01*
X60043580Y-185151809D01*
X60043580Y-184913714D01*
X59043580Y-185818476D02*
X59043580Y-186485142D01*
X60043580Y-186056571D01*
X59043580Y-186770857D02*
X59043580Y-187437523D01*
X60043580Y-187008952D01*
X59723580Y-189676095D02*
X58723580Y-189676095D01*
X59723580Y-190247523D02*
X59152152Y-189818952D01*
X58723580Y-190247523D02*
X59295009Y-189676095D01*
X367224380Y-165863714D02*
X366224380Y-165863714D01*
X366224380Y-166101809D01*
X366272000Y-166244666D01*
X366367238Y-166339904D01*
X366462476Y-166387523D01*
X366652952Y-166435142D01*
X366795809Y-166435142D01*
X366986285Y-166387523D01*
X367081523Y-166339904D01*
X367176761Y-166244666D01*
X367224380Y-166101809D01*
X367224380Y-165863714D01*
X366224380Y-166768476D02*
X366224380Y-167435142D01*
X367224380Y-167006571D01*
X366224380Y-168244666D02*
X366224380Y-168054190D01*
X366272000Y-167958952D01*
X366319619Y-167911333D01*
X366462476Y-167816095D01*
X366652952Y-167768476D01*
X367033904Y-167768476D01*
X367129142Y-167816095D01*
X367176761Y-167863714D01*
X367224380Y-167958952D01*
X367224380Y-168149428D01*
X367176761Y-168244666D01*
X367129142Y-168292285D01*
X367033904Y-168339904D01*
X366795809Y-168339904D01*
X366700571Y-168292285D01*
X366652952Y-168244666D01*
X366605333Y-168149428D01*
X366605333Y-167958952D01*
X366652952Y-167863714D01*
X366700571Y-167816095D01*
X366795809Y-167768476D01*
X366904380Y-170626095D02*
X365904380Y-170626095D01*
X366904380Y-171197523D02*
X366332952Y-170768952D01*
X365904380Y-171197523D02*
X366475809Y-170626095D01*
X307693380Y-165863714D02*
X306693380Y-165863714D01*
X306693380Y-166101809D01*
X306741000Y-166244666D01*
X306836238Y-166339904D01*
X306931476Y-166387523D01*
X307121952Y-166435142D01*
X307264809Y-166435142D01*
X307455285Y-166387523D01*
X307550523Y-166339904D01*
X307645761Y-166244666D01*
X307693380Y-166101809D01*
X307693380Y-165863714D01*
X306693380Y-166768476D02*
X306693380Y-167435142D01*
X307693380Y-167006571D01*
X306693380Y-168292285D02*
X306693380Y-167816095D01*
X307169571Y-167768476D01*
X307121952Y-167816095D01*
X307074333Y-167911333D01*
X307074333Y-168149428D01*
X307121952Y-168244666D01*
X307169571Y-168292285D01*
X307264809Y-168339904D01*
X307502904Y-168339904D01*
X307598142Y-168292285D01*
X307645761Y-168244666D01*
X307693380Y-168149428D01*
X307693380Y-167911333D01*
X307645761Y-167816095D01*
X307598142Y-167768476D01*
X307373380Y-170626095D02*
X306373380Y-170626095D01*
X307373380Y-171197523D02*
X306801952Y-170768952D01*
X306373380Y-171197523D02*
X306944809Y-170626095D01*
X271974380Y-165863714D02*
X270974380Y-165863714D01*
X270974380Y-166101809D01*
X271022000Y-166244666D01*
X271117238Y-166339904D01*
X271212476Y-166387523D01*
X271402952Y-166435142D01*
X271545809Y-166435142D01*
X271736285Y-166387523D01*
X271831523Y-166339904D01*
X271926761Y-166244666D01*
X271974380Y-166101809D01*
X271974380Y-165863714D01*
X270974380Y-166768476D02*
X270974380Y-167435142D01*
X271974380Y-167006571D01*
X271307714Y-168244666D02*
X271974380Y-168244666D01*
X270926761Y-168006571D02*
X271641047Y-167768476D01*
X271641047Y-168387523D01*
X271654380Y-170626095D02*
X270654380Y-170626095D01*
X271654380Y-171197523D02*
X271082952Y-170768952D01*
X270654380Y-171197523D02*
X271225809Y-170626095D01*
X252924380Y-165863714D02*
X251924380Y-165863714D01*
X251924380Y-166101809D01*
X251972000Y-166244666D01*
X252067238Y-166339904D01*
X252162476Y-166387523D01*
X252352952Y-166435142D01*
X252495809Y-166435142D01*
X252686285Y-166387523D01*
X252781523Y-166339904D01*
X252876761Y-166244666D01*
X252924380Y-166101809D01*
X252924380Y-165863714D01*
X251924380Y-166768476D02*
X251924380Y-167435142D01*
X252924380Y-167006571D01*
X251924380Y-167720857D02*
X251924380Y-168339904D01*
X252305333Y-168006571D01*
X252305333Y-168149428D01*
X252352952Y-168244666D01*
X252400571Y-168292285D01*
X252495809Y-168339904D01*
X252733904Y-168339904D01*
X252829142Y-168292285D01*
X252876761Y-168244666D01*
X252924380Y-168149428D01*
X252924380Y-167863714D01*
X252876761Y-167768476D01*
X252829142Y-167720857D01*
X252604380Y-170626095D02*
X251604380Y-170626095D01*
X252604380Y-171197523D02*
X252032952Y-170768952D01*
X251604380Y-171197523D02*
X252175809Y-170626095D01*
X233874380Y-165863714D02*
X232874380Y-165863714D01*
X232874380Y-166101809D01*
X232922000Y-166244666D01*
X233017238Y-166339904D01*
X233112476Y-166387523D01*
X233302952Y-166435142D01*
X233445809Y-166435142D01*
X233636285Y-166387523D01*
X233731523Y-166339904D01*
X233826761Y-166244666D01*
X233874380Y-166101809D01*
X233874380Y-165863714D01*
X232874380Y-166768476D02*
X232874380Y-167435142D01*
X233874380Y-167006571D01*
X232969619Y-167768476D02*
X232922000Y-167816095D01*
X232874380Y-167911333D01*
X232874380Y-168149428D01*
X232922000Y-168244666D01*
X232969619Y-168292285D01*
X233064857Y-168339904D01*
X233160095Y-168339904D01*
X233302952Y-168292285D01*
X233874380Y-167720857D01*
X233874380Y-168339904D01*
X233554380Y-170626095D02*
X232554380Y-170626095D01*
X233554380Y-171197523D02*
X232982952Y-170768952D01*
X232554380Y-171197523D02*
X233125809Y-170626095D01*
X214824380Y-165863714D02*
X213824380Y-165863714D01*
X213824380Y-166101809D01*
X213872000Y-166244666D01*
X213967238Y-166339904D01*
X214062476Y-166387523D01*
X214252952Y-166435142D01*
X214395809Y-166435142D01*
X214586285Y-166387523D01*
X214681523Y-166339904D01*
X214776761Y-166244666D01*
X214824380Y-166101809D01*
X214824380Y-165863714D01*
X213824380Y-166768476D02*
X213824380Y-167435142D01*
X214824380Y-167006571D01*
X214824380Y-168339904D02*
X214824380Y-167768476D01*
X214824380Y-168054190D02*
X213824380Y-168054190D01*
X213967238Y-167958952D01*
X214062476Y-167863714D01*
X214110095Y-167768476D01*
X214504380Y-170626095D02*
X213504380Y-170626095D01*
X214504380Y-171197523D02*
X213932952Y-170768952D01*
X213504380Y-171197523D02*
X214075809Y-170626095D01*
X195774380Y-165863714D02*
X194774380Y-165863714D01*
X194774380Y-166101809D01*
X194822000Y-166244666D01*
X194917238Y-166339904D01*
X195012476Y-166387523D01*
X195202952Y-166435142D01*
X195345809Y-166435142D01*
X195536285Y-166387523D01*
X195631523Y-166339904D01*
X195726761Y-166244666D01*
X195774380Y-166101809D01*
X195774380Y-165863714D01*
X194774380Y-166768476D02*
X194774380Y-167435142D01*
X195774380Y-167006571D01*
X194774380Y-168006571D02*
X194774380Y-168101809D01*
X194822000Y-168197047D01*
X194869619Y-168244666D01*
X194964857Y-168292285D01*
X195155333Y-168339904D01*
X195393428Y-168339904D01*
X195583904Y-168292285D01*
X195679142Y-168244666D01*
X195726761Y-168197047D01*
X195774380Y-168101809D01*
X195774380Y-168006571D01*
X195726761Y-167911333D01*
X195679142Y-167863714D01*
X195583904Y-167816095D01*
X195393428Y-167768476D01*
X195155333Y-167768476D01*
X194964857Y-167816095D01*
X194869619Y-167863714D01*
X194822000Y-167911333D01*
X194774380Y-168006571D01*
X195454380Y-170626095D02*
X194454380Y-170626095D01*
X195454380Y-171197523D02*
X194882952Y-170768952D01*
X194454380Y-171197523D02*
X195025809Y-170626095D01*
X176724380Y-165863714D02*
X175724380Y-165863714D01*
X175724380Y-166101809D01*
X175772000Y-166244666D01*
X175867238Y-166339904D01*
X175962476Y-166387523D01*
X176152952Y-166435142D01*
X176295809Y-166435142D01*
X176486285Y-166387523D01*
X176581523Y-166339904D01*
X176676761Y-166244666D01*
X176724380Y-166101809D01*
X176724380Y-165863714D01*
X175724380Y-167292285D02*
X175724380Y-167101809D01*
X175772000Y-167006571D01*
X175819619Y-166958952D01*
X175962476Y-166863714D01*
X176152952Y-166816095D01*
X176533904Y-166816095D01*
X176629142Y-166863714D01*
X176676761Y-166911333D01*
X176724380Y-167006571D01*
X176724380Y-167197047D01*
X176676761Y-167292285D01*
X176629142Y-167339904D01*
X176533904Y-167387523D01*
X176295809Y-167387523D01*
X176200571Y-167339904D01*
X176152952Y-167292285D01*
X176105333Y-167197047D01*
X176105333Y-167006571D01*
X176152952Y-166911333D01*
X176200571Y-166863714D01*
X176295809Y-166816095D01*
X176724380Y-167863714D02*
X176724380Y-168054190D01*
X176676761Y-168149428D01*
X176629142Y-168197047D01*
X176486285Y-168292285D01*
X176295809Y-168339904D01*
X175914857Y-168339904D01*
X175819619Y-168292285D01*
X175772000Y-168244666D01*
X175724380Y-168149428D01*
X175724380Y-167958952D01*
X175772000Y-167863714D01*
X175819619Y-167816095D01*
X175914857Y-167768476D01*
X176152952Y-167768476D01*
X176248190Y-167816095D01*
X176295809Y-167863714D01*
X176343428Y-167958952D01*
X176343428Y-168149428D01*
X176295809Y-168244666D01*
X176248190Y-168292285D01*
X176152952Y-168339904D01*
X176404380Y-170626095D02*
X175404380Y-170626095D01*
X176404380Y-171197523D02*
X175832952Y-170768952D01*
X175404380Y-171197523D02*
X175975809Y-170626095D01*
X157674380Y-165863714D02*
X156674380Y-165863714D01*
X156674380Y-166101809D01*
X156722000Y-166244666D01*
X156817238Y-166339904D01*
X156912476Y-166387523D01*
X157102952Y-166435142D01*
X157245809Y-166435142D01*
X157436285Y-166387523D01*
X157531523Y-166339904D01*
X157626761Y-166244666D01*
X157674380Y-166101809D01*
X157674380Y-165863714D01*
X156674380Y-167292285D02*
X156674380Y-167101809D01*
X156722000Y-167006571D01*
X156769619Y-166958952D01*
X156912476Y-166863714D01*
X157102952Y-166816095D01*
X157483904Y-166816095D01*
X157579142Y-166863714D01*
X157626761Y-166911333D01*
X157674380Y-167006571D01*
X157674380Y-167197047D01*
X157626761Y-167292285D01*
X157579142Y-167339904D01*
X157483904Y-167387523D01*
X157245809Y-167387523D01*
X157150571Y-167339904D01*
X157102952Y-167292285D01*
X157055333Y-167197047D01*
X157055333Y-167006571D01*
X157102952Y-166911333D01*
X157150571Y-166863714D01*
X157245809Y-166816095D01*
X157102952Y-167958952D02*
X157055333Y-167863714D01*
X157007714Y-167816095D01*
X156912476Y-167768476D01*
X156864857Y-167768476D01*
X156769619Y-167816095D01*
X156722000Y-167863714D01*
X156674380Y-167958952D01*
X156674380Y-168149428D01*
X156722000Y-168244666D01*
X156769619Y-168292285D01*
X156864857Y-168339904D01*
X156912476Y-168339904D01*
X157007714Y-168292285D01*
X157055333Y-168244666D01*
X157102952Y-168149428D01*
X157102952Y-167958952D01*
X157150571Y-167863714D01*
X157198190Y-167816095D01*
X157293428Y-167768476D01*
X157483904Y-167768476D01*
X157579142Y-167816095D01*
X157626761Y-167863714D01*
X157674380Y-167958952D01*
X157674380Y-168149428D01*
X157626761Y-168244666D01*
X157579142Y-168292285D01*
X157483904Y-168339904D01*
X157293428Y-168339904D01*
X157198190Y-168292285D01*
X157150571Y-168244666D01*
X157102952Y-168149428D01*
X157354380Y-170626095D02*
X156354380Y-170626095D01*
X157354380Y-171197523D02*
X156782952Y-170768952D01*
X156354380Y-171197523D02*
X156925809Y-170626095D01*
X138624380Y-165863714D02*
X137624380Y-165863714D01*
X137624380Y-166101809D01*
X137672000Y-166244666D01*
X137767238Y-166339904D01*
X137862476Y-166387523D01*
X138052952Y-166435142D01*
X138195809Y-166435142D01*
X138386285Y-166387523D01*
X138481523Y-166339904D01*
X138576761Y-166244666D01*
X138624380Y-166101809D01*
X138624380Y-165863714D01*
X137624380Y-167292285D02*
X137624380Y-167101809D01*
X137672000Y-167006571D01*
X137719619Y-166958952D01*
X137862476Y-166863714D01*
X138052952Y-166816095D01*
X138433904Y-166816095D01*
X138529142Y-166863714D01*
X138576761Y-166911333D01*
X138624380Y-167006571D01*
X138624380Y-167197047D01*
X138576761Y-167292285D01*
X138529142Y-167339904D01*
X138433904Y-167387523D01*
X138195809Y-167387523D01*
X138100571Y-167339904D01*
X138052952Y-167292285D01*
X138005333Y-167197047D01*
X138005333Y-167006571D01*
X138052952Y-166911333D01*
X138100571Y-166863714D01*
X138195809Y-166816095D01*
X137624380Y-167720857D02*
X137624380Y-168387523D01*
X138624380Y-167958952D01*
X138304380Y-170626095D02*
X137304380Y-170626095D01*
X138304380Y-171197523D02*
X137732952Y-170768952D01*
X137304380Y-171197523D02*
X137875809Y-170626095D01*
X119574380Y-165863714D02*
X118574380Y-165863714D01*
X118574380Y-166101809D01*
X118622000Y-166244666D01*
X118717238Y-166339904D01*
X118812476Y-166387523D01*
X119002952Y-166435142D01*
X119145809Y-166435142D01*
X119336285Y-166387523D01*
X119431523Y-166339904D01*
X119526761Y-166244666D01*
X119574380Y-166101809D01*
X119574380Y-165863714D01*
X118574380Y-167292285D02*
X118574380Y-167101809D01*
X118622000Y-167006571D01*
X118669619Y-166958952D01*
X118812476Y-166863714D01*
X119002952Y-166816095D01*
X119383904Y-166816095D01*
X119479142Y-166863714D01*
X119526761Y-166911333D01*
X119574380Y-167006571D01*
X119574380Y-167197047D01*
X119526761Y-167292285D01*
X119479142Y-167339904D01*
X119383904Y-167387523D01*
X119145809Y-167387523D01*
X119050571Y-167339904D01*
X119002952Y-167292285D01*
X118955333Y-167197047D01*
X118955333Y-167006571D01*
X119002952Y-166911333D01*
X119050571Y-166863714D01*
X119145809Y-166816095D01*
X118574380Y-168244666D02*
X118574380Y-168054190D01*
X118622000Y-167958952D01*
X118669619Y-167911333D01*
X118812476Y-167816095D01*
X119002952Y-167768476D01*
X119383904Y-167768476D01*
X119479142Y-167816095D01*
X119526761Y-167863714D01*
X119574380Y-167958952D01*
X119574380Y-168149428D01*
X119526761Y-168244666D01*
X119479142Y-168292285D01*
X119383904Y-168339904D01*
X119145809Y-168339904D01*
X119050571Y-168292285D01*
X119002952Y-168244666D01*
X118955333Y-168149428D01*
X118955333Y-167958952D01*
X119002952Y-167863714D01*
X119050571Y-167816095D01*
X119145809Y-167768476D01*
X119254380Y-170626095D02*
X118254380Y-170626095D01*
X119254380Y-171197523D02*
X118682952Y-170768952D01*
X118254380Y-171197523D02*
X118825809Y-170626095D01*
X100524880Y-165863714D02*
X99524880Y-165863714D01*
X99524880Y-166101809D01*
X99572500Y-166244666D01*
X99667738Y-166339904D01*
X99762976Y-166387523D01*
X99953452Y-166435142D01*
X100096309Y-166435142D01*
X100286785Y-166387523D01*
X100382023Y-166339904D01*
X100477261Y-166244666D01*
X100524880Y-166101809D01*
X100524880Y-165863714D01*
X99524880Y-167292285D02*
X99524880Y-167101809D01*
X99572500Y-167006571D01*
X99620119Y-166958952D01*
X99762976Y-166863714D01*
X99953452Y-166816095D01*
X100334404Y-166816095D01*
X100429642Y-166863714D01*
X100477261Y-166911333D01*
X100524880Y-167006571D01*
X100524880Y-167197047D01*
X100477261Y-167292285D01*
X100429642Y-167339904D01*
X100334404Y-167387523D01*
X100096309Y-167387523D01*
X100001071Y-167339904D01*
X99953452Y-167292285D01*
X99905833Y-167197047D01*
X99905833Y-167006571D01*
X99953452Y-166911333D01*
X100001071Y-166863714D01*
X100096309Y-166816095D01*
X99524880Y-168292285D02*
X99524880Y-167816095D01*
X100001071Y-167768476D01*
X99953452Y-167816095D01*
X99905833Y-167911333D01*
X99905833Y-168149428D01*
X99953452Y-168244666D01*
X100001071Y-168292285D01*
X100096309Y-168339904D01*
X100334404Y-168339904D01*
X100429642Y-168292285D01*
X100477261Y-168244666D01*
X100524880Y-168149428D01*
X100524880Y-167911333D01*
X100477261Y-167816095D01*
X100429642Y-167768476D01*
X100204880Y-170626095D02*
X99204880Y-170626095D01*
X100204880Y-171197523D02*
X99633452Y-170768952D01*
X99204880Y-171197523D02*
X99776309Y-170626095D01*
X69568580Y-165863714D02*
X68568580Y-165863714D01*
X68568580Y-166101809D01*
X68616200Y-166244666D01*
X68711438Y-166339904D01*
X68806676Y-166387523D01*
X68997152Y-166435142D01*
X69140009Y-166435142D01*
X69330485Y-166387523D01*
X69425723Y-166339904D01*
X69520961Y-166244666D01*
X69568580Y-166101809D01*
X69568580Y-165863714D01*
X68568580Y-167292285D02*
X68568580Y-167101809D01*
X68616200Y-167006571D01*
X68663819Y-166958952D01*
X68806676Y-166863714D01*
X68997152Y-166816095D01*
X69378104Y-166816095D01*
X69473342Y-166863714D01*
X69520961Y-166911333D01*
X69568580Y-167006571D01*
X69568580Y-167197047D01*
X69520961Y-167292285D01*
X69473342Y-167339904D01*
X69378104Y-167387523D01*
X69140009Y-167387523D01*
X69044771Y-167339904D01*
X68997152Y-167292285D01*
X68949533Y-167197047D01*
X68949533Y-167006571D01*
X68997152Y-166911333D01*
X69044771Y-166863714D01*
X69140009Y-166816095D01*
X68901914Y-168244666D02*
X69568580Y-168244666D01*
X68520961Y-168006571D02*
X69235247Y-167768476D01*
X69235247Y-168387523D01*
X69248580Y-170626095D02*
X68248580Y-170626095D01*
X69248580Y-171197523D02*
X68677152Y-170768952D01*
X68248580Y-171197523D02*
X68820009Y-170626095D01*
X312456380Y-146813714D02*
X311456380Y-146813714D01*
X311456380Y-147051809D01*
X311504000Y-147194666D01*
X311599238Y-147289904D01*
X311694476Y-147337523D01*
X311884952Y-147385142D01*
X312027809Y-147385142D01*
X312218285Y-147337523D01*
X312313523Y-147289904D01*
X312408761Y-147194666D01*
X312456380Y-147051809D01*
X312456380Y-146813714D01*
X311456380Y-148242285D02*
X311456380Y-148051809D01*
X311504000Y-147956571D01*
X311551619Y-147908952D01*
X311694476Y-147813714D01*
X311884952Y-147766095D01*
X312265904Y-147766095D01*
X312361142Y-147813714D01*
X312408761Y-147861333D01*
X312456380Y-147956571D01*
X312456380Y-148147047D01*
X312408761Y-148242285D01*
X312361142Y-148289904D01*
X312265904Y-148337523D01*
X312027809Y-148337523D01*
X311932571Y-148289904D01*
X311884952Y-148242285D01*
X311837333Y-148147047D01*
X311837333Y-147956571D01*
X311884952Y-147861333D01*
X311932571Y-147813714D01*
X312027809Y-147766095D01*
X311456380Y-148670857D02*
X311456380Y-149289904D01*
X311837333Y-148956571D01*
X311837333Y-149099428D01*
X311884952Y-149194666D01*
X311932571Y-149242285D01*
X312027809Y-149289904D01*
X312265904Y-149289904D01*
X312361142Y-149242285D01*
X312408761Y-149194666D01*
X312456380Y-149099428D01*
X312456380Y-148813714D01*
X312408761Y-148718476D01*
X312361142Y-148670857D01*
X312136380Y-151576095D02*
X311136380Y-151576095D01*
X312136380Y-152147523D02*
X311564952Y-151718952D01*
X311136380Y-152147523D02*
X311707809Y-151576095D01*
X281500380Y-146813714D02*
X280500380Y-146813714D01*
X280500380Y-147051809D01*
X280548000Y-147194666D01*
X280643238Y-147289904D01*
X280738476Y-147337523D01*
X280928952Y-147385142D01*
X281071809Y-147385142D01*
X281262285Y-147337523D01*
X281357523Y-147289904D01*
X281452761Y-147194666D01*
X281500380Y-147051809D01*
X281500380Y-146813714D01*
X280500380Y-148242285D02*
X280500380Y-148051809D01*
X280548000Y-147956571D01*
X280595619Y-147908952D01*
X280738476Y-147813714D01*
X280928952Y-147766095D01*
X281309904Y-147766095D01*
X281405142Y-147813714D01*
X281452761Y-147861333D01*
X281500380Y-147956571D01*
X281500380Y-148147047D01*
X281452761Y-148242285D01*
X281405142Y-148289904D01*
X281309904Y-148337523D01*
X281071809Y-148337523D01*
X280976571Y-148289904D01*
X280928952Y-148242285D01*
X280881333Y-148147047D01*
X280881333Y-147956571D01*
X280928952Y-147861333D01*
X280976571Y-147813714D01*
X281071809Y-147766095D01*
X280595619Y-148718476D02*
X280548000Y-148766095D01*
X280500380Y-148861333D01*
X280500380Y-149099428D01*
X280548000Y-149194666D01*
X280595619Y-149242285D01*
X280690857Y-149289904D01*
X280786095Y-149289904D01*
X280928952Y-149242285D01*
X281500380Y-148670857D01*
X281500380Y-149289904D01*
X281180380Y-151576095D02*
X280180380Y-151576095D01*
X281180380Y-152147523D02*
X280608952Y-151718952D01*
X280180380Y-152147523D02*
X280751809Y-151576095D01*
X262450380Y-146813714D02*
X261450380Y-146813714D01*
X261450380Y-147051809D01*
X261498000Y-147194666D01*
X261593238Y-147289904D01*
X261688476Y-147337523D01*
X261878952Y-147385142D01*
X262021809Y-147385142D01*
X262212285Y-147337523D01*
X262307523Y-147289904D01*
X262402761Y-147194666D01*
X262450380Y-147051809D01*
X262450380Y-146813714D01*
X261450380Y-148242285D02*
X261450380Y-148051809D01*
X261498000Y-147956571D01*
X261545619Y-147908952D01*
X261688476Y-147813714D01*
X261878952Y-147766095D01*
X262259904Y-147766095D01*
X262355142Y-147813714D01*
X262402761Y-147861333D01*
X262450380Y-147956571D01*
X262450380Y-148147047D01*
X262402761Y-148242285D01*
X262355142Y-148289904D01*
X262259904Y-148337523D01*
X262021809Y-148337523D01*
X261926571Y-148289904D01*
X261878952Y-148242285D01*
X261831333Y-148147047D01*
X261831333Y-147956571D01*
X261878952Y-147861333D01*
X261926571Y-147813714D01*
X262021809Y-147766095D01*
X262450380Y-149289904D02*
X262450380Y-148718476D01*
X262450380Y-149004190D02*
X261450380Y-149004190D01*
X261593238Y-148908952D01*
X261688476Y-148813714D01*
X261736095Y-148718476D01*
X262130380Y-151576095D02*
X261130380Y-151576095D01*
X262130380Y-152147523D02*
X261558952Y-151718952D01*
X261130380Y-152147523D02*
X261701809Y-151576095D01*
X243400380Y-146813714D02*
X242400380Y-146813714D01*
X242400380Y-147051809D01*
X242448000Y-147194666D01*
X242543238Y-147289904D01*
X242638476Y-147337523D01*
X242828952Y-147385142D01*
X242971809Y-147385142D01*
X243162285Y-147337523D01*
X243257523Y-147289904D01*
X243352761Y-147194666D01*
X243400380Y-147051809D01*
X243400380Y-146813714D01*
X242400380Y-148242285D02*
X242400380Y-148051809D01*
X242448000Y-147956571D01*
X242495619Y-147908952D01*
X242638476Y-147813714D01*
X242828952Y-147766095D01*
X243209904Y-147766095D01*
X243305142Y-147813714D01*
X243352761Y-147861333D01*
X243400380Y-147956571D01*
X243400380Y-148147047D01*
X243352761Y-148242285D01*
X243305142Y-148289904D01*
X243209904Y-148337523D01*
X242971809Y-148337523D01*
X242876571Y-148289904D01*
X242828952Y-148242285D01*
X242781333Y-148147047D01*
X242781333Y-147956571D01*
X242828952Y-147861333D01*
X242876571Y-147813714D01*
X242971809Y-147766095D01*
X242400380Y-148956571D02*
X242400380Y-149051809D01*
X242448000Y-149147047D01*
X242495619Y-149194666D01*
X242590857Y-149242285D01*
X242781333Y-149289904D01*
X243019428Y-149289904D01*
X243209904Y-149242285D01*
X243305142Y-149194666D01*
X243352761Y-149147047D01*
X243400380Y-149051809D01*
X243400380Y-148956571D01*
X243352761Y-148861333D01*
X243305142Y-148813714D01*
X243209904Y-148766095D01*
X243019428Y-148718476D01*
X242781333Y-148718476D01*
X242590857Y-148766095D01*
X242495619Y-148813714D01*
X242448000Y-148861333D01*
X242400380Y-148956571D01*
X243080380Y-151576095D02*
X242080380Y-151576095D01*
X243080380Y-152147523D02*
X242508952Y-151718952D01*
X242080380Y-152147523D02*
X242651809Y-151576095D01*
X224350380Y-146813714D02*
X223350380Y-146813714D01*
X223350380Y-147051809D01*
X223398000Y-147194666D01*
X223493238Y-147289904D01*
X223588476Y-147337523D01*
X223778952Y-147385142D01*
X223921809Y-147385142D01*
X224112285Y-147337523D01*
X224207523Y-147289904D01*
X224302761Y-147194666D01*
X224350380Y-147051809D01*
X224350380Y-146813714D01*
X223350380Y-148289904D02*
X223350380Y-147813714D01*
X223826571Y-147766095D01*
X223778952Y-147813714D01*
X223731333Y-147908952D01*
X223731333Y-148147047D01*
X223778952Y-148242285D01*
X223826571Y-148289904D01*
X223921809Y-148337523D01*
X224159904Y-148337523D01*
X224255142Y-148289904D01*
X224302761Y-148242285D01*
X224350380Y-148147047D01*
X224350380Y-147908952D01*
X224302761Y-147813714D01*
X224255142Y-147766095D01*
X224350380Y-148813714D02*
X224350380Y-149004190D01*
X224302761Y-149099428D01*
X224255142Y-149147047D01*
X224112285Y-149242285D01*
X223921809Y-149289904D01*
X223540857Y-149289904D01*
X223445619Y-149242285D01*
X223398000Y-149194666D01*
X223350380Y-149099428D01*
X223350380Y-148908952D01*
X223398000Y-148813714D01*
X223445619Y-148766095D01*
X223540857Y-148718476D01*
X223778952Y-148718476D01*
X223874190Y-148766095D01*
X223921809Y-148813714D01*
X223969428Y-148908952D01*
X223969428Y-149099428D01*
X223921809Y-149194666D01*
X223874190Y-149242285D01*
X223778952Y-149289904D01*
X224030380Y-151576095D02*
X223030380Y-151576095D01*
X224030380Y-152147523D02*
X223458952Y-151718952D01*
X223030380Y-152147523D02*
X223601809Y-151576095D01*
X205300380Y-146813714D02*
X204300380Y-146813714D01*
X204300380Y-147051809D01*
X204348000Y-147194666D01*
X204443238Y-147289904D01*
X204538476Y-147337523D01*
X204728952Y-147385142D01*
X204871809Y-147385142D01*
X205062285Y-147337523D01*
X205157523Y-147289904D01*
X205252761Y-147194666D01*
X205300380Y-147051809D01*
X205300380Y-146813714D01*
X204300380Y-148289904D02*
X204300380Y-147813714D01*
X204776571Y-147766095D01*
X204728952Y-147813714D01*
X204681333Y-147908952D01*
X204681333Y-148147047D01*
X204728952Y-148242285D01*
X204776571Y-148289904D01*
X204871809Y-148337523D01*
X205109904Y-148337523D01*
X205205142Y-148289904D01*
X205252761Y-148242285D01*
X205300380Y-148147047D01*
X205300380Y-147908952D01*
X205252761Y-147813714D01*
X205205142Y-147766095D01*
X204728952Y-148908952D02*
X204681333Y-148813714D01*
X204633714Y-148766095D01*
X204538476Y-148718476D01*
X204490857Y-148718476D01*
X204395619Y-148766095D01*
X204348000Y-148813714D01*
X204300380Y-148908952D01*
X204300380Y-149099428D01*
X204348000Y-149194666D01*
X204395619Y-149242285D01*
X204490857Y-149289904D01*
X204538476Y-149289904D01*
X204633714Y-149242285D01*
X204681333Y-149194666D01*
X204728952Y-149099428D01*
X204728952Y-148908952D01*
X204776571Y-148813714D01*
X204824190Y-148766095D01*
X204919428Y-148718476D01*
X205109904Y-148718476D01*
X205205142Y-148766095D01*
X205252761Y-148813714D01*
X205300380Y-148908952D01*
X205300380Y-149099428D01*
X205252761Y-149194666D01*
X205205142Y-149242285D01*
X205109904Y-149289904D01*
X204919428Y-149289904D01*
X204824190Y-149242285D01*
X204776571Y-149194666D01*
X204728952Y-149099428D01*
X204980380Y-151576095D02*
X203980380Y-151576095D01*
X204980380Y-152147523D02*
X204408952Y-151718952D01*
X203980380Y-152147523D02*
X204551809Y-151576095D01*
X186250380Y-146813714D02*
X185250380Y-146813714D01*
X185250380Y-147051809D01*
X185298000Y-147194666D01*
X185393238Y-147289904D01*
X185488476Y-147337523D01*
X185678952Y-147385142D01*
X185821809Y-147385142D01*
X186012285Y-147337523D01*
X186107523Y-147289904D01*
X186202761Y-147194666D01*
X186250380Y-147051809D01*
X186250380Y-146813714D01*
X185250380Y-148289904D02*
X185250380Y-147813714D01*
X185726571Y-147766095D01*
X185678952Y-147813714D01*
X185631333Y-147908952D01*
X185631333Y-148147047D01*
X185678952Y-148242285D01*
X185726571Y-148289904D01*
X185821809Y-148337523D01*
X186059904Y-148337523D01*
X186155142Y-148289904D01*
X186202761Y-148242285D01*
X186250380Y-148147047D01*
X186250380Y-147908952D01*
X186202761Y-147813714D01*
X186155142Y-147766095D01*
X185250380Y-148670857D02*
X185250380Y-149337523D01*
X186250380Y-148908952D01*
X185930380Y-151576095D02*
X184930380Y-151576095D01*
X185930380Y-152147523D02*
X185358952Y-151718952D01*
X184930380Y-152147523D02*
X185501809Y-151576095D01*
X167200380Y-146813714D02*
X166200380Y-146813714D01*
X166200380Y-147051809D01*
X166248000Y-147194666D01*
X166343238Y-147289904D01*
X166438476Y-147337523D01*
X166628952Y-147385142D01*
X166771809Y-147385142D01*
X166962285Y-147337523D01*
X167057523Y-147289904D01*
X167152761Y-147194666D01*
X167200380Y-147051809D01*
X167200380Y-146813714D01*
X166200380Y-148289904D02*
X166200380Y-147813714D01*
X166676571Y-147766095D01*
X166628952Y-147813714D01*
X166581333Y-147908952D01*
X166581333Y-148147047D01*
X166628952Y-148242285D01*
X166676571Y-148289904D01*
X166771809Y-148337523D01*
X167009904Y-148337523D01*
X167105142Y-148289904D01*
X167152761Y-148242285D01*
X167200380Y-148147047D01*
X167200380Y-147908952D01*
X167152761Y-147813714D01*
X167105142Y-147766095D01*
X166200380Y-149194666D02*
X166200380Y-149004190D01*
X166248000Y-148908952D01*
X166295619Y-148861333D01*
X166438476Y-148766095D01*
X166628952Y-148718476D01*
X167009904Y-148718476D01*
X167105142Y-148766095D01*
X167152761Y-148813714D01*
X167200380Y-148908952D01*
X167200380Y-149099428D01*
X167152761Y-149194666D01*
X167105142Y-149242285D01*
X167009904Y-149289904D01*
X166771809Y-149289904D01*
X166676571Y-149242285D01*
X166628952Y-149194666D01*
X166581333Y-149099428D01*
X166581333Y-148908952D01*
X166628952Y-148813714D01*
X166676571Y-148766095D01*
X166771809Y-148718476D01*
X166880380Y-151576095D02*
X165880380Y-151576095D01*
X166880380Y-152147523D02*
X166308952Y-151718952D01*
X165880380Y-152147523D02*
X166451809Y-151576095D01*
X148150380Y-146813714D02*
X147150380Y-146813714D01*
X147150380Y-147051809D01*
X147198000Y-147194666D01*
X147293238Y-147289904D01*
X147388476Y-147337523D01*
X147578952Y-147385142D01*
X147721809Y-147385142D01*
X147912285Y-147337523D01*
X148007523Y-147289904D01*
X148102761Y-147194666D01*
X148150380Y-147051809D01*
X148150380Y-146813714D01*
X147150380Y-148289904D02*
X147150380Y-147813714D01*
X147626571Y-147766095D01*
X147578952Y-147813714D01*
X147531333Y-147908952D01*
X147531333Y-148147047D01*
X147578952Y-148242285D01*
X147626571Y-148289904D01*
X147721809Y-148337523D01*
X147959904Y-148337523D01*
X148055142Y-148289904D01*
X148102761Y-148242285D01*
X148150380Y-148147047D01*
X148150380Y-147908952D01*
X148102761Y-147813714D01*
X148055142Y-147766095D01*
X147150380Y-149242285D02*
X147150380Y-148766095D01*
X147626571Y-148718476D01*
X147578952Y-148766095D01*
X147531333Y-148861333D01*
X147531333Y-149099428D01*
X147578952Y-149194666D01*
X147626571Y-149242285D01*
X147721809Y-149289904D01*
X147959904Y-149289904D01*
X148055142Y-149242285D01*
X148102761Y-149194666D01*
X148150380Y-149099428D01*
X148150380Y-148861333D01*
X148102761Y-148766095D01*
X148055142Y-148718476D01*
X147830380Y-151576095D02*
X146830380Y-151576095D01*
X147830380Y-152147523D02*
X147258952Y-151718952D01*
X146830380Y-152147523D02*
X147401809Y-151576095D01*
X129100380Y-146813714D02*
X128100380Y-146813714D01*
X128100380Y-147051809D01*
X128148000Y-147194666D01*
X128243238Y-147289904D01*
X128338476Y-147337523D01*
X128528952Y-147385142D01*
X128671809Y-147385142D01*
X128862285Y-147337523D01*
X128957523Y-147289904D01*
X129052761Y-147194666D01*
X129100380Y-147051809D01*
X129100380Y-146813714D01*
X128100380Y-148289904D02*
X128100380Y-147813714D01*
X128576571Y-147766095D01*
X128528952Y-147813714D01*
X128481333Y-147908952D01*
X128481333Y-148147047D01*
X128528952Y-148242285D01*
X128576571Y-148289904D01*
X128671809Y-148337523D01*
X128909904Y-148337523D01*
X129005142Y-148289904D01*
X129052761Y-148242285D01*
X129100380Y-148147047D01*
X129100380Y-147908952D01*
X129052761Y-147813714D01*
X129005142Y-147766095D01*
X128433714Y-149194666D02*
X129100380Y-149194666D01*
X128052761Y-148956571D02*
X128767047Y-148718476D01*
X128767047Y-149337523D01*
X128780380Y-151576095D02*
X127780380Y-151576095D01*
X128780380Y-152147523D02*
X128208952Y-151718952D01*
X127780380Y-152147523D02*
X128351809Y-151576095D01*
X110050380Y-146813714D02*
X109050380Y-146813714D01*
X109050380Y-147051809D01*
X109098000Y-147194666D01*
X109193238Y-147289904D01*
X109288476Y-147337523D01*
X109478952Y-147385142D01*
X109621809Y-147385142D01*
X109812285Y-147337523D01*
X109907523Y-147289904D01*
X110002761Y-147194666D01*
X110050380Y-147051809D01*
X110050380Y-146813714D01*
X109050380Y-148289904D02*
X109050380Y-147813714D01*
X109526571Y-147766095D01*
X109478952Y-147813714D01*
X109431333Y-147908952D01*
X109431333Y-148147047D01*
X109478952Y-148242285D01*
X109526571Y-148289904D01*
X109621809Y-148337523D01*
X109859904Y-148337523D01*
X109955142Y-148289904D01*
X110002761Y-148242285D01*
X110050380Y-148147047D01*
X110050380Y-147908952D01*
X110002761Y-147813714D01*
X109955142Y-147766095D01*
X109050380Y-148670857D02*
X109050380Y-149289904D01*
X109431333Y-148956571D01*
X109431333Y-149099428D01*
X109478952Y-149194666D01*
X109526571Y-149242285D01*
X109621809Y-149289904D01*
X109859904Y-149289904D01*
X109955142Y-149242285D01*
X110002761Y-149194666D01*
X110050380Y-149099428D01*
X110050380Y-148813714D01*
X110002761Y-148718476D01*
X109955142Y-148670857D01*
X109730380Y-151576095D02*
X108730380Y-151576095D01*
X109730380Y-152147523D02*
X109158952Y-151718952D01*
X108730380Y-152147523D02*
X109301809Y-151576095D01*
X90999880Y-146813714D02*
X89999880Y-146813714D01*
X89999880Y-147051809D01*
X90047500Y-147194666D01*
X90142738Y-147289904D01*
X90237976Y-147337523D01*
X90428452Y-147385142D01*
X90571309Y-147385142D01*
X90761785Y-147337523D01*
X90857023Y-147289904D01*
X90952261Y-147194666D01*
X90999880Y-147051809D01*
X90999880Y-146813714D01*
X89999880Y-148289904D02*
X89999880Y-147813714D01*
X90476071Y-147766095D01*
X90428452Y-147813714D01*
X90380833Y-147908952D01*
X90380833Y-148147047D01*
X90428452Y-148242285D01*
X90476071Y-148289904D01*
X90571309Y-148337523D01*
X90809404Y-148337523D01*
X90904642Y-148289904D01*
X90952261Y-148242285D01*
X90999880Y-148147047D01*
X90999880Y-147908952D01*
X90952261Y-147813714D01*
X90904642Y-147766095D01*
X90095119Y-148718476D02*
X90047500Y-148766095D01*
X89999880Y-148861333D01*
X89999880Y-149099428D01*
X90047500Y-149194666D01*
X90095119Y-149242285D01*
X90190357Y-149289904D01*
X90285595Y-149289904D01*
X90428452Y-149242285D01*
X90999880Y-148670857D01*
X90999880Y-149289904D01*
X90679880Y-151576095D02*
X89679880Y-151576095D01*
X90679880Y-152147523D02*
X90108452Y-151718952D01*
X89679880Y-152147523D02*
X90251309Y-151576095D01*
X64806180Y-146813714D02*
X63806180Y-146813714D01*
X63806180Y-147051809D01*
X63853800Y-147194666D01*
X63949038Y-147289904D01*
X64044276Y-147337523D01*
X64234752Y-147385142D01*
X64377609Y-147385142D01*
X64568085Y-147337523D01*
X64663323Y-147289904D01*
X64758561Y-147194666D01*
X64806180Y-147051809D01*
X64806180Y-146813714D01*
X63806180Y-148289904D02*
X63806180Y-147813714D01*
X64282371Y-147766095D01*
X64234752Y-147813714D01*
X64187133Y-147908952D01*
X64187133Y-148147047D01*
X64234752Y-148242285D01*
X64282371Y-148289904D01*
X64377609Y-148337523D01*
X64615704Y-148337523D01*
X64710942Y-148289904D01*
X64758561Y-148242285D01*
X64806180Y-148147047D01*
X64806180Y-147908952D01*
X64758561Y-147813714D01*
X64710942Y-147766095D01*
X64806180Y-149289904D02*
X64806180Y-148718476D01*
X64806180Y-149004190D02*
X63806180Y-149004190D01*
X63949038Y-148908952D01*
X64044276Y-148813714D01*
X64091895Y-148718476D01*
X64486180Y-151576095D02*
X63486180Y-151576095D01*
X64486180Y-152147523D02*
X63914752Y-151718952D01*
X63486180Y-152147523D02*
X64057609Y-151576095D01*
X367224380Y-127763714D02*
X366224380Y-127763714D01*
X366224380Y-128001809D01*
X366272000Y-128144666D01*
X366367238Y-128239904D01*
X366462476Y-128287523D01*
X366652952Y-128335142D01*
X366795809Y-128335142D01*
X366986285Y-128287523D01*
X367081523Y-128239904D01*
X367176761Y-128144666D01*
X367224380Y-128001809D01*
X367224380Y-127763714D01*
X366224380Y-129239904D02*
X366224380Y-128763714D01*
X366700571Y-128716095D01*
X366652952Y-128763714D01*
X366605333Y-128858952D01*
X366605333Y-129097047D01*
X366652952Y-129192285D01*
X366700571Y-129239904D01*
X366795809Y-129287523D01*
X367033904Y-129287523D01*
X367129142Y-129239904D01*
X367176761Y-129192285D01*
X367224380Y-129097047D01*
X367224380Y-128858952D01*
X367176761Y-128763714D01*
X367129142Y-128716095D01*
X366224380Y-129906571D02*
X366224380Y-130001809D01*
X366272000Y-130097047D01*
X366319619Y-130144666D01*
X366414857Y-130192285D01*
X366605333Y-130239904D01*
X366843428Y-130239904D01*
X367033904Y-130192285D01*
X367129142Y-130144666D01*
X367176761Y-130097047D01*
X367224380Y-130001809D01*
X367224380Y-129906571D01*
X367176761Y-129811333D01*
X367129142Y-129763714D01*
X367033904Y-129716095D01*
X366843428Y-129668476D01*
X366605333Y-129668476D01*
X366414857Y-129716095D01*
X366319619Y-129763714D01*
X366272000Y-129811333D01*
X366224380Y-129906571D01*
X366904380Y-132526095D02*
X365904380Y-132526095D01*
X366904380Y-133097523D02*
X366332952Y-132668952D01*
X365904380Y-133097523D02*
X366475809Y-132526095D01*
X348174380Y-127763714D02*
X347174380Y-127763714D01*
X347174380Y-128001809D01*
X347222000Y-128144666D01*
X347317238Y-128239904D01*
X347412476Y-128287523D01*
X347602952Y-128335142D01*
X347745809Y-128335142D01*
X347936285Y-128287523D01*
X348031523Y-128239904D01*
X348126761Y-128144666D01*
X348174380Y-128001809D01*
X348174380Y-127763714D01*
X347507714Y-129192285D02*
X348174380Y-129192285D01*
X347126761Y-128954190D02*
X347841047Y-128716095D01*
X347841047Y-129335142D01*
X348174380Y-129763714D02*
X348174380Y-129954190D01*
X348126761Y-130049428D01*
X348079142Y-130097047D01*
X347936285Y-130192285D01*
X347745809Y-130239904D01*
X347364857Y-130239904D01*
X347269619Y-130192285D01*
X347222000Y-130144666D01*
X347174380Y-130049428D01*
X347174380Y-129858952D01*
X347222000Y-129763714D01*
X347269619Y-129716095D01*
X347364857Y-129668476D01*
X347602952Y-129668476D01*
X347698190Y-129716095D01*
X347745809Y-129763714D01*
X347793428Y-129858952D01*
X347793428Y-130049428D01*
X347745809Y-130144666D01*
X347698190Y-130192285D01*
X347602952Y-130239904D01*
X347854380Y-132526095D02*
X346854380Y-132526095D01*
X347854380Y-133097523D02*
X347282952Y-132668952D01*
X346854380Y-133097523D02*
X347425809Y-132526095D01*
X329124380Y-127763714D02*
X328124380Y-127763714D01*
X328124380Y-128001809D01*
X328172000Y-128144666D01*
X328267238Y-128239904D01*
X328362476Y-128287523D01*
X328552952Y-128335142D01*
X328695809Y-128335142D01*
X328886285Y-128287523D01*
X328981523Y-128239904D01*
X329076761Y-128144666D01*
X329124380Y-128001809D01*
X329124380Y-127763714D01*
X328457714Y-129192285D02*
X329124380Y-129192285D01*
X328076761Y-128954190D02*
X328791047Y-128716095D01*
X328791047Y-129335142D01*
X328552952Y-129858952D02*
X328505333Y-129763714D01*
X328457714Y-129716095D01*
X328362476Y-129668476D01*
X328314857Y-129668476D01*
X328219619Y-129716095D01*
X328172000Y-129763714D01*
X328124380Y-129858952D01*
X328124380Y-130049428D01*
X328172000Y-130144666D01*
X328219619Y-130192285D01*
X328314857Y-130239904D01*
X328362476Y-130239904D01*
X328457714Y-130192285D01*
X328505333Y-130144666D01*
X328552952Y-130049428D01*
X328552952Y-129858952D01*
X328600571Y-129763714D01*
X328648190Y-129716095D01*
X328743428Y-129668476D01*
X328933904Y-129668476D01*
X329029142Y-129716095D01*
X329076761Y-129763714D01*
X329124380Y-129858952D01*
X329124380Y-130049428D01*
X329076761Y-130144666D01*
X329029142Y-130192285D01*
X328933904Y-130239904D01*
X328743428Y-130239904D01*
X328648190Y-130192285D01*
X328600571Y-130144666D01*
X328552952Y-130049428D01*
X328804380Y-132526095D02*
X327804380Y-132526095D01*
X328804380Y-133097523D02*
X328232952Y-132668952D01*
X327804380Y-133097523D02*
X328375809Y-132526095D01*
X319600380Y-127763714D02*
X318600380Y-127763714D01*
X318600380Y-128001809D01*
X318648000Y-128144666D01*
X318743238Y-128239904D01*
X318838476Y-128287523D01*
X319028952Y-128335142D01*
X319171809Y-128335142D01*
X319362285Y-128287523D01*
X319457523Y-128239904D01*
X319552761Y-128144666D01*
X319600380Y-128001809D01*
X319600380Y-127763714D01*
X318933714Y-129192285D02*
X319600380Y-129192285D01*
X318552761Y-128954190D02*
X319267047Y-128716095D01*
X319267047Y-129335142D01*
X318600380Y-129620857D02*
X318600380Y-130287523D01*
X319600380Y-129858952D01*
X319280380Y-132526095D02*
X318280380Y-132526095D01*
X319280380Y-133097523D02*
X318708952Y-132668952D01*
X318280380Y-133097523D02*
X318851809Y-132526095D01*
X295787380Y-127763714D02*
X294787380Y-127763714D01*
X294787380Y-128001809D01*
X294835000Y-128144666D01*
X294930238Y-128239904D01*
X295025476Y-128287523D01*
X295215952Y-128335142D01*
X295358809Y-128335142D01*
X295549285Y-128287523D01*
X295644523Y-128239904D01*
X295739761Y-128144666D01*
X295787380Y-128001809D01*
X295787380Y-127763714D01*
X295120714Y-129192285D02*
X295787380Y-129192285D01*
X294739761Y-128954190D02*
X295454047Y-128716095D01*
X295454047Y-129335142D01*
X294787380Y-130144666D02*
X294787380Y-129954190D01*
X294835000Y-129858952D01*
X294882619Y-129811333D01*
X295025476Y-129716095D01*
X295215952Y-129668476D01*
X295596904Y-129668476D01*
X295692142Y-129716095D01*
X295739761Y-129763714D01*
X295787380Y-129858952D01*
X295787380Y-130049428D01*
X295739761Y-130144666D01*
X295692142Y-130192285D01*
X295596904Y-130239904D01*
X295358809Y-130239904D01*
X295263571Y-130192285D01*
X295215952Y-130144666D01*
X295168333Y-130049428D01*
X295168333Y-129858952D01*
X295215952Y-129763714D01*
X295263571Y-129716095D01*
X295358809Y-129668476D01*
X295467380Y-132526095D02*
X294467380Y-132526095D01*
X295467380Y-133097523D02*
X294895952Y-132668952D01*
X294467380Y-133097523D02*
X295038809Y-132526095D01*
X276737380Y-127763714D02*
X275737380Y-127763714D01*
X275737380Y-128001809D01*
X275785000Y-128144666D01*
X275880238Y-128239904D01*
X275975476Y-128287523D01*
X276165952Y-128335142D01*
X276308809Y-128335142D01*
X276499285Y-128287523D01*
X276594523Y-128239904D01*
X276689761Y-128144666D01*
X276737380Y-128001809D01*
X276737380Y-127763714D01*
X276070714Y-129192285D02*
X276737380Y-129192285D01*
X275689761Y-128954190D02*
X276404047Y-128716095D01*
X276404047Y-129335142D01*
X275737380Y-130192285D02*
X275737380Y-129716095D01*
X276213571Y-129668476D01*
X276165952Y-129716095D01*
X276118333Y-129811333D01*
X276118333Y-130049428D01*
X276165952Y-130144666D01*
X276213571Y-130192285D01*
X276308809Y-130239904D01*
X276546904Y-130239904D01*
X276642142Y-130192285D01*
X276689761Y-130144666D01*
X276737380Y-130049428D01*
X276737380Y-129811333D01*
X276689761Y-129716095D01*
X276642142Y-129668476D01*
X276417380Y-132526095D02*
X275417380Y-132526095D01*
X276417380Y-133097523D02*
X275845952Y-132668952D01*
X275417380Y-133097523D02*
X275988809Y-132526095D01*
X257687380Y-127763714D02*
X256687380Y-127763714D01*
X256687380Y-128001809D01*
X256735000Y-128144666D01*
X256830238Y-128239904D01*
X256925476Y-128287523D01*
X257115952Y-128335142D01*
X257258809Y-128335142D01*
X257449285Y-128287523D01*
X257544523Y-128239904D01*
X257639761Y-128144666D01*
X257687380Y-128001809D01*
X257687380Y-127763714D01*
X257020714Y-129192285D02*
X257687380Y-129192285D01*
X256639761Y-128954190D02*
X257354047Y-128716095D01*
X257354047Y-129335142D01*
X257020714Y-130144666D02*
X257687380Y-130144666D01*
X256639761Y-129906571D02*
X257354047Y-129668476D01*
X257354047Y-130287523D01*
X257367380Y-132526095D02*
X256367380Y-132526095D01*
X257367380Y-133097523D02*
X256795952Y-132668952D01*
X256367380Y-133097523D02*
X256938809Y-132526095D01*
X238637380Y-127763714D02*
X237637380Y-127763714D01*
X237637380Y-128001809D01*
X237685000Y-128144666D01*
X237780238Y-128239904D01*
X237875476Y-128287523D01*
X238065952Y-128335142D01*
X238208809Y-128335142D01*
X238399285Y-128287523D01*
X238494523Y-128239904D01*
X238589761Y-128144666D01*
X238637380Y-128001809D01*
X238637380Y-127763714D01*
X237970714Y-129192285D02*
X238637380Y-129192285D01*
X237589761Y-128954190D02*
X238304047Y-128716095D01*
X238304047Y-129335142D01*
X237637380Y-129620857D02*
X237637380Y-130239904D01*
X238018333Y-129906571D01*
X238018333Y-130049428D01*
X238065952Y-130144666D01*
X238113571Y-130192285D01*
X238208809Y-130239904D01*
X238446904Y-130239904D01*
X238542142Y-130192285D01*
X238589761Y-130144666D01*
X238637380Y-130049428D01*
X238637380Y-129763714D01*
X238589761Y-129668476D01*
X238542142Y-129620857D01*
X238317380Y-132526095D02*
X237317380Y-132526095D01*
X238317380Y-133097523D02*
X237745952Y-132668952D01*
X237317380Y-133097523D02*
X237888809Y-132526095D01*
X219587380Y-127763714D02*
X218587380Y-127763714D01*
X218587380Y-128001809D01*
X218635000Y-128144666D01*
X218730238Y-128239904D01*
X218825476Y-128287523D01*
X219015952Y-128335142D01*
X219158809Y-128335142D01*
X219349285Y-128287523D01*
X219444523Y-128239904D01*
X219539761Y-128144666D01*
X219587380Y-128001809D01*
X219587380Y-127763714D01*
X218920714Y-129192285D02*
X219587380Y-129192285D01*
X218539761Y-128954190D02*
X219254047Y-128716095D01*
X219254047Y-129335142D01*
X218682619Y-129668476D02*
X218635000Y-129716095D01*
X218587380Y-129811333D01*
X218587380Y-130049428D01*
X218635000Y-130144666D01*
X218682619Y-130192285D01*
X218777857Y-130239904D01*
X218873095Y-130239904D01*
X219015952Y-130192285D01*
X219587380Y-129620857D01*
X219587380Y-130239904D01*
X219267380Y-132526095D02*
X218267380Y-132526095D01*
X219267380Y-133097523D02*
X218695952Y-132668952D01*
X218267380Y-133097523D02*
X218838809Y-132526095D01*
X200537380Y-127763714D02*
X199537380Y-127763714D01*
X199537380Y-128001809D01*
X199585000Y-128144666D01*
X199680238Y-128239904D01*
X199775476Y-128287523D01*
X199965952Y-128335142D01*
X200108809Y-128335142D01*
X200299285Y-128287523D01*
X200394523Y-128239904D01*
X200489761Y-128144666D01*
X200537380Y-128001809D01*
X200537380Y-127763714D01*
X199870714Y-129192285D02*
X200537380Y-129192285D01*
X199489761Y-128954190D02*
X200204047Y-128716095D01*
X200204047Y-129335142D01*
X200537380Y-130239904D02*
X200537380Y-129668476D01*
X200537380Y-129954190D02*
X199537380Y-129954190D01*
X199680238Y-129858952D01*
X199775476Y-129763714D01*
X199823095Y-129668476D01*
X200217380Y-132526095D02*
X199217380Y-132526095D01*
X200217380Y-133097523D02*
X199645952Y-132668952D01*
X199217380Y-133097523D02*
X199788809Y-132526095D01*
X181487380Y-127763714D02*
X180487380Y-127763714D01*
X180487380Y-128001809D01*
X180535000Y-128144666D01*
X180630238Y-128239904D01*
X180725476Y-128287523D01*
X180915952Y-128335142D01*
X181058809Y-128335142D01*
X181249285Y-128287523D01*
X181344523Y-128239904D01*
X181439761Y-128144666D01*
X181487380Y-128001809D01*
X181487380Y-127763714D01*
X180820714Y-129192285D02*
X181487380Y-129192285D01*
X180439761Y-128954190D02*
X181154047Y-128716095D01*
X181154047Y-129335142D01*
X180487380Y-129906571D02*
X180487380Y-130001809D01*
X180535000Y-130097047D01*
X180582619Y-130144666D01*
X180677857Y-130192285D01*
X180868333Y-130239904D01*
X181106428Y-130239904D01*
X181296904Y-130192285D01*
X181392142Y-130144666D01*
X181439761Y-130097047D01*
X181487380Y-130001809D01*
X181487380Y-129906571D01*
X181439761Y-129811333D01*
X181392142Y-129763714D01*
X181296904Y-129716095D01*
X181106428Y-129668476D01*
X180868333Y-129668476D01*
X180677857Y-129716095D01*
X180582619Y-129763714D01*
X180535000Y-129811333D01*
X180487380Y-129906571D01*
X181167380Y-132526095D02*
X180167380Y-132526095D01*
X181167380Y-133097523D02*
X180595952Y-132668952D01*
X180167380Y-133097523D02*
X180738809Y-132526095D01*
X162437380Y-127763714D02*
X161437380Y-127763714D01*
X161437380Y-128001809D01*
X161485000Y-128144666D01*
X161580238Y-128239904D01*
X161675476Y-128287523D01*
X161865952Y-128335142D01*
X162008809Y-128335142D01*
X162199285Y-128287523D01*
X162294523Y-128239904D01*
X162389761Y-128144666D01*
X162437380Y-128001809D01*
X162437380Y-127763714D01*
X161437380Y-128668476D02*
X161437380Y-129287523D01*
X161818333Y-128954190D01*
X161818333Y-129097047D01*
X161865952Y-129192285D01*
X161913571Y-129239904D01*
X162008809Y-129287523D01*
X162246904Y-129287523D01*
X162342142Y-129239904D01*
X162389761Y-129192285D01*
X162437380Y-129097047D01*
X162437380Y-128811333D01*
X162389761Y-128716095D01*
X162342142Y-128668476D01*
X162437380Y-129763714D02*
X162437380Y-129954190D01*
X162389761Y-130049428D01*
X162342142Y-130097047D01*
X162199285Y-130192285D01*
X162008809Y-130239904D01*
X161627857Y-130239904D01*
X161532619Y-130192285D01*
X161485000Y-130144666D01*
X161437380Y-130049428D01*
X161437380Y-129858952D01*
X161485000Y-129763714D01*
X161532619Y-129716095D01*
X161627857Y-129668476D01*
X161865952Y-129668476D01*
X161961190Y-129716095D01*
X162008809Y-129763714D01*
X162056428Y-129858952D01*
X162056428Y-130049428D01*
X162008809Y-130144666D01*
X161961190Y-130192285D01*
X161865952Y-130239904D01*
X162117380Y-132526095D02*
X161117380Y-132526095D01*
X162117380Y-133097523D02*
X161545952Y-132668952D01*
X161117380Y-133097523D02*
X161688809Y-132526095D01*
X143387380Y-127763714D02*
X142387380Y-127763714D01*
X142387380Y-128001809D01*
X142435000Y-128144666D01*
X142530238Y-128239904D01*
X142625476Y-128287523D01*
X142815952Y-128335142D01*
X142958809Y-128335142D01*
X143149285Y-128287523D01*
X143244523Y-128239904D01*
X143339761Y-128144666D01*
X143387380Y-128001809D01*
X143387380Y-127763714D01*
X142387380Y-128668476D02*
X142387380Y-129287523D01*
X142768333Y-128954190D01*
X142768333Y-129097047D01*
X142815952Y-129192285D01*
X142863571Y-129239904D01*
X142958809Y-129287523D01*
X143196904Y-129287523D01*
X143292142Y-129239904D01*
X143339761Y-129192285D01*
X143387380Y-129097047D01*
X143387380Y-128811333D01*
X143339761Y-128716095D01*
X143292142Y-128668476D01*
X142815952Y-129858952D02*
X142768333Y-129763714D01*
X142720714Y-129716095D01*
X142625476Y-129668476D01*
X142577857Y-129668476D01*
X142482619Y-129716095D01*
X142435000Y-129763714D01*
X142387380Y-129858952D01*
X142387380Y-130049428D01*
X142435000Y-130144666D01*
X142482619Y-130192285D01*
X142577857Y-130239904D01*
X142625476Y-130239904D01*
X142720714Y-130192285D01*
X142768333Y-130144666D01*
X142815952Y-130049428D01*
X142815952Y-129858952D01*
X142863571Y-129763714D01*
X142911190Y-129716095D01*
X143006428Y-129668476D01*
X143196904Y-129668476D01*
X143292142Y-129716095D01*
X143339761Y-129763714D01*
X143387380Y-129858952D01*
X143387380Y-130049428D01*
X143339761Y-130144666D01*
X143292142Y-130192285D01*
X143196904Y-130239904D01*
X143006428Y-130239904D01*
X142911190Y-130192285D01*
X142863571Y-130144666D01*
X142815952Y-130049428D01*
X143067380Y-132526095D02*
X142067380Y-132526095D01*
X143067380Y-133097523D02*
X142495952Y-132668952D01*
X142067380Y-133097523D02*
X142638809Y-132526095D01*
X124337380Y-127763714D02*
X123337380Y-127763714D01*
X123337380Y-128001809D01*
X123385000Y-128144666D01*
X123480238Y-128239904D01*
X123575476Y-128287523D01*
X123765952Y-128335142D01*
X123908809Y-128335142D01*
X124099285Y-128287523D01*
X124194523Y-128239904D01*
X124289761Y-128144666D01*
X124337380Y-128001809D01*
X124337380Y-127763714D01*
X123337380Y-128668476D02*
X123337380Y-129287523D01*
X123718333Y-128954190D01*
X123718333Y-129097047D01*
X123765952Y-129192285D01*
X123813571Y-129239904D01*
X123908809Y-129287523D01*
X124146904Y-129287523D01*
X124242142Y-129239904D01*
X124289761Y-129192285D01*
X124337380Y-129097047D01*
X124337380Y-128811333D01*
X124289761Y-128716095D01*
X124242142Y-128668476D01*
X123337380Y-129620857D02*
X123337380Y-130287523D01*
X124337380Y-129858952D01*
X124017380Y-132526095D02*
X123017380Y-132526095D01*
X124017380Y-133097523D02*
X123445952Y-132668952D01*
X123017380Y-133097523D02*
X123588809Y-132526095D01*
X105287380Y-127763714D02*
X104287380Y-127763714D01*
X104287380Y-128001809D01*
X104335000Y-128144666D01*
X104430238Y-128239904D01*
X104525476Y-128287523D01*
X104715952Y-128335142D01*
X104858809Y-128335142D01*
X105049285Y-128287523D01*
X105144523Y-128239904D01*
X105239761Y-128144666D01*
X105287380Y-128001809D01*
X105287380Y-127763714D01*
X104287380Y-128668476D02*
X104287380Y-129287523D01*
X104668333Y-128954190D01*
X104668333Y-129097047D01*
X104715952Y-129192285D01*
X104763571Y-129239904D01*
X104858809Y-129287523D01*
X105096904Y-129287523D01*
X105192142Y-129239904D01*
X105239761Y-129192285D01*
X105287380Y-129097047D01*
X105287380Y-128811333D01*
X105239761Y-128716095D01*
X105192142Y-128668476D01*
X104287380Y-130144666D02*
X104287380Y-129954190D01*
X104335000Y-129858952D01*
X104382619Y-129811333D01*
X104525476Y-129716095D01*
X104715952Y-129668476D01*
X105096904Y-129668476D01*
X105192142Y-129716095D01*
X105239761Y-129763714D01*
X105287380Y-129858952D01*
X105287380Y-130049428D01*
X105239761Y-130144666D01*
X105192142Y-130192285D01*
X105096904Y-130239904D01*
X104858809Y-130239904D01*
X104763571Y-130192285D01*
X104715952Y-130144666D01*
X104668333Y-130049428D01*
X104668333Y-129858952D01*
X104715952Y-129763714D01*
X104763571Y-129716095D01*
X104858809Y-129668476D01*
X104967380Y-132526095D02*
X103967380Y-132526095D01*
X104967380Y-133097523D02*
X104395952Y-132668952D01*
X103967380Y-133097523D02*
X104538809Y-132526095D01*
X86237380Y-127763714D02*
X85237380Y-127763714D01*
X85237380Y-128001809D01*
X85285000Y-128144666D01*
X85380238Y-128239904D01*
X85475476Y-128287523D01*
X85665952Y-128335142D01*
X85808809Y-128335142D01*
X85999285Y-128287523D01*
X86094523Y-128239904D01*
X86189761Y-128144666D01*
X86237380Y-128001809D01*
X86237380Y-127763714D01*
X85237380Y-128668476D02*
X85237380Y-129287523D01*
X85618333Y-128954190D01*
X85618333Y-129097047D01*
X85665952Y-129192285D01*
X85713571Y-129239904D01*
X85808809Y-129287523D01*
X86046904Y-129287523D01*
X86142142Y-129239904D01*
X86189761Y-129192285D01*
X86237380Y-129097047D01*
X86237380Y-128811333D01*
X86189761Y-128716095D01*
X86142142Y-128668476D01*
X85237380Y-130192285D02*
X85237380Y-129716095D01*
X85713571Y-129668476D01*
X85665952Y-129716095D01*
X85618333Y-129811333D01*
X85618333Y-130049428D01*
X85665952Y-130144666D01*
X85713571Y-130192285D01*
X85808809Y-130239904D01*
X86046904Y-130239904D01*
X86142142Y-130192285D01*
X86189761Y-130144666D01*
X86237380Y-130049428D01*
X86237380Y-129811333D01*
X86189761Y-129716095D01*
X86142142Y-129668476D01*
X85917380Y-132526095D02*
X84917380Y-132526095D01*
X85917380Y-133097523D02*
X85345952Y-132668952D01*
X84917380Y-133097523D02*
X85488809Y-132526095D01*
X62424880Y-127763714D02*
X61424880Y-127763714D01*
X61424880Y-128001809D01*
X61472500Y-128144666D01*
X61567738Y-128239904D01*
X61662976Y-128287523D01*
X61853452Y-128335142D01*
X61996309Y-128335142D01*
X62186785Y-128287523D01*
X62282023Y-128239904D01*
X62377261Y-128144666D01*
X62424880Y-128001809D01*
X62424880Y-127763714D01*
X61424880Y-128668476D02*
X61424880Y-129287523D01*
X61805833Y-128954190D01*
X61805833Y-129097047D01*
X61853452Y-129192285D01*
X61901071Y-129239904D01*
X61996309Y-129287523D01*
X62234404Y-129287523D01*
X62329642Y-129239904D01*
X62377261Y-129192285D01*
X62424880Y-129097047D01*
X62424880Y-128811333D01*
X62377261Y-128716095D01*
X62329642Y-128668476D01*
X61758214Y-130144666D02*
X62424880Y-130144666D01*
X61377261Y-129906571D02*
X62091547Y-129668476D01*
X62091547Y-130287523D01*
X62104880Y-132526095D02*
X61104880Y-132526095D01*
X62104880Y-133097523D02*
X61533452Y-132668952D01*
X61104880Y-133097523D02*
X61676309Y-132526095D01*
X367224380Y-108713714D02*
X366224380Y-108713714D01*
X366224380Y-108951809D01*
X366272000Y-109094666D01*
X366367238Y-109189904D01*
X366462476Y-109237523D01*
X366652952Y-109285142D01*
X366795809Y-109285142D01*
X366986285Y-109237523D01*
X367081523Y-109189904D01*
X367176761Y-109094666D01*
X367224380Y-108951809D01*
X367224380Y-108713714D01*
X366224380Y-109618476D02*
X366224380Y-110237523D01*
X366605333Y-109904190D01*
X366605333Y-110047047D01*
X366652952Y-110142285D01*
X366700571Y-110189904D01*
X366795809Y-110237523D01*
X367033904Y-110237523D01*
X367129142Y-110189904D01*
X367176761Y-110142285D01*
X367224380Y-110047047D01*
X367224380Y-109761333D01*
X367176761Y-109666095D01*
X367129142Y-109618476D01*
X366224380Y-110570857D02*
X366224380Y-111189904D01*
X366605333Y-110856571D01*
X366605333Y-110999428D01*
X366652952Y-111094666D01*
X366700571Y-111142285D01*
X366795809Y-111189904D01*
X367033904Y-111189904D01*
X367129142Y-111142285D01*
X367176761Y-111094666D01*
X367224380Y-110999428D01*
X367224380Y-110713714D01*
X367176761Y-110618476D01*
X367129142Y-110570857D01*
X366904380Y-113476095D02*
X365904380Y-113476095D01*
X366904380Y-114047523D02*
X366332952Y-113618952D01*
X365904380Y-114047523D02*
X366475809Y-113476095D01*
X348174380Y-108713714D02*
X347174380Y-108713714D01*
X347174380Y-108951809D01*
X347222000Y-109094666D01*
X347317238Y-109189904D01*
X347412476Y-109237523D01*
X347602952Y-109285142D01*
X347745809Y-109285142D01*
X347936285Y-109237523D01*
X348031523Y-109189904D01*
X348126761Y-109094666D01*
X348174380Y-108951809D01*
X348174380Y-108713714D01*
X347174380Y-109618476D02*
X347174380Y-110237523D01*
X347555333Y-109904190D01*
X347555333Y-110047047D01*
X347602952Y-110142285D01*
X347650571Y-110189904D01*
X347745809Y-110237523D01*
X347983904Y-110237523D01*
X348079142Y-110189904D01*
X348126761Y-110142285D01*
X348174380Y-110047047D01*
X348174380Y-109761333D01*
X348126761Y-109666095D01*
X348079142Y-109618476D01*
X347269619Y-110618476D02*
X347222000Y-110666095D01*
X347174380Y-110761333D01*
X347174380Y-110999428D01*
X347222000Y-111094666D01*
X347269619Y-111142285D01*
X347364857Y-111189904D01*
X347460095Y-111189904D01*
X347602952Y-111142285D01*
X348174380Y-110570857D01*
X348174380Y-111189904D01*
X347854380Y-113476095D02*
X346854380Y-113476095D01*
X347854380Y-114047523D02*
X347282952Y-113618952D01*
X346854380Y-114047523D02*
X347425809Y-113476095D01*
X329124380Y-108713714D02*
X328124380Y-108713714D01*
X328124380Y-108951809D01*
X328172000Y-109094666D01*
X328267238Y-109189904D01*
X328362476Y-109237523D01*
X328552952Y-109285142D01*
X328695809Y-109285142D01*
X328886285Y-109237523D01*
X328981523Y-109189904D01*
X329076761Y-109094666D01*
X329124380Y-108951809D01*
X329124380Y-108713714D01*
X328124380Y-109618476D02*
X328124380Y-110237523D01*
X328505333Y-109904190D01*
X328505333Y-110047047D01*
X328552952Y-110142285D01*
X328600571Y-110189904D01*
X328695809Y-110237523D01*
X328933904Y-110237523D01*
X329029142Y-110189904D01*
X329076761Y-110142285D01*
X329124380Y-110047047D01*
X329124380Y-109761333D01*
X329076761Y-109666095D01*
X329029142Y-109618476D01*
X329124380Y-111189904D02*
X329124380Y-110618476D01*
X329124380Y-110904190D02*
X328124380Y-110904190D01*
X328267238Y-110808952D01*
X328362476Y-110713714D01*
X328410095Y-110618476D01*
X328804380Y-113476095D02*
X327804380Y-113476095D01*
X328804380Y-114047523D02*
X328232952Y-113618952D01*
X327804380Y-114047523D02*
X328375809Y-113476095D01*
X314837380Y-108713714D02*
X313837380Y-108713714D01*
X313837380Y-108951809D01*
X313885000Y-109094666D01*
X313980238Y-109189904D01*
X314075476Y-109237523D01*
X314265952Y-109285142D01*
X314408809Y-109285142D01*
X314599285Y-109237523D01*
X314694523Y-109189904D01*
X314789761Y-109094666D01*
X314837380Y-108951809D01*
X314837380Y-108713714D01*
X313837380Y-109618476D02*
X313837380Y-110237523D01*
X314218333Y-109904190D01*
X314218333Y-110047047D01*
X314265952Y-110142285D01*
X314313571Y-110189904D01*
X314408809Y-110237523D01*
X314646904Y-110237523D01*
X314742142Y-110189904D01*
X314789761Y-110142285D01*
X314837380Y-110047047D01*
X314837380Y-109761333D01*
X314789761Y-109666095D01*
X314742142Y-109618476D01*
X313837380Y-110856571D02*
X313837380Y-110951809D01*
X313885000Y-111047047D01*
X313932619Y-111094666D01*
X314027857Y-111142285D01*
X314218333Y-111189904D01*
X314456428Y-111189904D01*
X314646904Y-111142285D01*
X314742142Y-111094666D01*
X314789761Y-111047047D01*
X314837380Y-110951809D01*
X314837380Y-110856571D01*
X314789761Y-110761333D01*
X314742142Y-110713714D01*
X314646904Y-110666095D01*
X314456428Y-110618476D01*
X314218333Y-110618476D01*
X314027857Y-110666095D01*
X313932619Y-110713714D01*
X313885000Y-110761333D01*
X313837380Y-110856571D01*
X314517380Y-113476095D02*
X313517380Y-113476095D01*
X314517380Y-114047523D02*
X313945952Y-113618952D01*
X313517380Y-114047523D02*
X314088809Y-113476095D01*
X286262380Y-108713714D02*
X285262380Y-108713714D01*
X285262380Y-108951809D01*
X285310000Y-109094666D01*
X285405238Y-109189904D01*
X285500476Y-109237523D01*
X285690952Y-109285142D01*
X285833809Y-109285142D01*
X286024285Y-109237523D01*
X286119523Y-109189904D01*
X286214761Y-109094666D01*
X286262380Y-108951809D01*
X286262380Y-108713714D01*
X285357619Y-109666095D02*
X285310000Y-109713714D01*
X285262380Y-109808952D01*
X285262380Y-110047047D01*
X285310000Y-110142285D01*
X285357619Y-110189904D01*
X285452857Y-110237523D01*
X285548095Y-110237523D01*
X285690952Y-110189904D01*
X286262380Y-109618476D01*
X286262380Y-110237523D01*
X286262380Y-110713714D02*
X286262380Y-110904190D01*
X286214761Y-110999428D01*
X286167142Y-111047047D01*
X286024285Y-111142285D01*
X285833809Y-111189904D01*
X285452857Y-111189904D01*
X285357619Y-111142285D01*
X285310000Y-111094666D01*
X285262380Y-110999428D01*
X285262380Y-110808952D01*
X285310000Y-110713714D01*
X285357619Y-110666095D01*
X285452857Y-110618476D01*
X285690952Y-110618476D01*
X285786190Y-110666095D01*
X285833809Y-110713714D01*
X285881428Y-110808952D01*
X285881428Y-110999428D01*
X285833809Y-111094666D01*
X285786190Y-111142285D01*
X285690952Y-111189904D01*
X285942380Y-113476095D02*
X284942380Y-113476095D01*
X285942380Y-114047523D02*
X285370952Y-113618952D01*
X284942380Y-114047523D02*
X285513809Y-113476095D01*
X267212380Y-108713714D02*
X266212380Y-108713714D01*
X266212380Y-108951809D01*
X266260000Y-109094666D01*
X266355238Y-109189904D01*
X266450476Y-109237523D01*
X266640952Y-109285142D01*
X266783809Y-109285142D01*
X266974285Y-109237523D01*
X267069523Y-109189904D01*
X267164761Y-109094666D01*
X267212380Y-108951809D01*
X267212380Y-108713714D01*
X266307619Y-109666095D02*
X266260000Y-109713714D01*
X266212380Y-109808952D01*
X266212380Y-110047047D01*
X266260000Y-110142285D01*
X266307619Y-110189904D01*
X266402857Y-110237523D01*
X266498095Y-110237523D01*
X266640952Y-110189904D01*
X267212380Y-109618476D01*
X267212380Y-110237523D01*
X266640952Y-110808952D02*
X266593333Y-110713714D01*
X266545714Y-110666095D01*
X266450476Y-110618476D01*
X266402857Y-110618476D01*
X266307619Y-110666095D01*
X266260000Y-110713714D01*
X266212380Y-110808952D01*
X266212380Y-110999428D01*
X266260000Y-111094666D01*
X266307619Y-111142285D01*
X266402857Y-111189904D01*
X266450476Y-111189904D01*
X266545714Y-111142285D01*
X266593333Y-111094666D01*
X266640952Y-110999428D01*
X266640952Y-110808952D01*
X266688571Y-110713714D01*
X266736190Y-110666095D01*
X266831428Y-110618476D01*
X267021904Y-110618476D01*
X267117142Y-110666095D01*
X267164761Y-110713714D01*
X267212380Y-110808952D01*
X267212380Y-110999428D01*
X267164761Y-111094666D01*
X267117142Y-111142285D01*
X267021904Y-111189904D01*
X266831428Y-111189904D01*
X266736190Y-111142285D01*
X266688571Y-111094666D01*
X266640952Y-110999428D01*
X266892380Y-113476095D02*
X265892380Y-113476095D01*
X266892380Y-114047523D02*
X266320952Y-113618952D01*
X265892380Y-114047523D02*
X266463809Y-113476095D01*
X248162380Y-108713714D02*
X247162380Y-108713714D01*
X247162380Y-108951809D01*
X247210000Y-109094666D01*
X247305238Y-109189904D01*
X247400476Y-109237523D01*
X247590952Y-109285142D01*
X247733809Y-109285142D01*
X247924285Y-109237523D01*
X248019523Y-109189904D01*
X248114761Y-109094666D01*
X248162380Y-108951809D01*
X248162380Y-108713714D01*
X247257619Y-109666095D02*
X247210000Y-109713714D01*
X247162380Y-109808952D01*
X247162380Y-110047047D01*
X247210000Y-110142285D01*
X247257619Y-110189904D01*
X247352857Y-110237523D01*
X247448095Y-110237523D01*
X247590952Y-110189904D01*
X248162380Y-109618476D01*
X248162380Y-110237523D01*
X247162380Y-110570857D02*
X247162380Y-111237523D01*
X248162380Y-110808952D01*
X247842380Y-113476095D02*
X246842380Y-113476095D01*
X247842380Y-114047523D02*
X247270952Y-113618952D01*
X246842380Y-114047523D02*
X247413809Y-113476095D01*
X229112380Y-108713714D02*
X228112380Y-108713714D01*
X228112380Y-108951809D01*
X228160000Y-109094666D01*
X228255238Y-109189904D01*
X228350476Y-109237523D01*
X228540952Y-109285142D01*
X228683809Y-109285142D01*
X228874285Y-109237523D01*
X228969523Y-109189904D01*
X229064761Y-109094666D01*
X229112380Y-108951809D01*
X229112380Y-108713714D01*
X228207619Y-109666095D02*
X228160000Y-109713714D01*
X228112380Y-109808952D01*
X228112380Y-110047047D01*
X228160000Y-110142285D01*
X228207619Y-110189904D01*
X228302857Y-110237523D01*
X228398095Y-110237523D01*
X228540952Y-110189904D01*
X229112380Y-109618476D01*
X229112380Y-110237523D01*
X228112380Y-111094666D02*
X228112380Y-110904190D01*
X228160000Y-110808952D01*
X228207619Y-110761333D01*
X228350476Y-110666095D01*
X228540952Y-110618476D01*
X228921904Y-110618476D01*
X229017142Y-110666095D01*
X229064761Y-110713714D01*
X229112380Y-110808952D01*
X229112380Y-110999428D01*
X229064761Y-111094666D01*
X229017142Y-111142285D01*
X228921904Y-111189904D01*
X228683809Y-111189904D01*
X228588571Y-111142285D01*
X228540952Y-111094666D01*
X228493333Y-110999428D01*
X228493333Y-110808952D01*
X228540952Y-110713714D01*
X228588571Y-110666095D01*
X228683809Y-110618476D01*
X228792380Y-113476095D02*
X227792380Y-113476095D01*
X228792380Y-114047523D02*
X228220952Y-113618952D01*
X227792380Y-114047523D02*
X228363809Y-113476095D01*
X210062380Y-108713714D02*
X209062380Y-108713714D01*
X209062380Y-108951809D01*
X209110000Y-109094666D01*
X209205238Y-109189904D01*
X209300476Y-109237523D01*
X209490952Y-109285142D01*
X209633809Y-109285142D01*
X209824285Y-109237523D01*
X209919523Y-109189904D01*
X210014761Y-109094666D01*
X210062380Y-108951809D01*
X210062380Y-108713714D01*
X209157619Y-109666095D02*
X209110000Y-109713714D01*
X209062380Y-109808952D01*
X209062380Y-110047047D01*
X209110000Y-110142285D01*
X209157619Y-110189904D01*
X209252857Y-110237523D01*
X209348095Y-110237523D01*
X209490952Y-110189904D01*
X210062380Y-109618476D01*
X210062380Y-110237523D01*
X209062380Y-111142285D02*
X209062380Y-110666095D01*
X209538571Y-110618476D01*
X209490952Y-110666095D01*
X209443333Y-110761333D01*
X209443333Y-110999428D01*
X209490952Y-111094666D01*
X209538571Y-111142285D01*
X209633809Y-111189904D01*
X209871904Y-111189904D01*
X209967142Y-111142285D01*
X210014761Y-111094666D01*
X210062380Y-110999428D01*
X210062380Y-110761333D01*
X210014761Y-110666095D01*
X209967142Y-110618476D01*
X209742380Y-113476095D02*
X208742380Y-113476095D01*
X209742380Y-114047523D02*
X209170952Y-113618952D01*
X208742380Y-114047523D02*
X209313809Y-113476095D01*
X191012380Y-108713714D02*
X190012380Y-108713714D01*
X190012380Y-108951809D01*
X190060000Y-109094666D01*
X190155238Y-109189904D01*
X190250476Y-109237523D01*
X190440952Y-109285142D01*
X190583809Y-109285142D01*
X190774285Y-109237523D01*
X190869523Y-109189904D01*
X190964761Y-109094666D01*
X191012380Y-108951809D01*
X191012380Y-108713714D01*
X190107619Y-109666095D02*
X190060000Y-109713714D01*
X190012380Y-109808952D01*
X190012380Y-110047047D01*
X190060000Y-110142285D01*
X190107619Y-110189904D01*
X190202857Y-110237523D01*
X190298095Y-110237523D01*
X190440952Y-110189904D01*
X191012380Y-109618476D01*
X191012380Y-110237523D01*
X190345714Y-111094666D02*
X191012380Y-111094666D01*
X189964761Y-110856571D02*
X190679047Y-110618476D01*
X190679047Y-111237523D01*
X190692380Y-113476095D02*
X189692380Y-113476095D01*
X190692380Y-114047523D02*
X190120952Y-113618952D01*
X189692380Y-114047523D02*
X190263809Y-113476095D01*
X171962380Y-108713714D02*
X170962380Y-108713714D01*
X170962380Y-108951809D01*
X171010000Y-109094666D01*
X171105238Y-109189904D01*
X171200476Y-109237523D01*
X171390952Y-109285142D01*
X171533809Y-109285142D01*
X171724285Y-109237523D01*
X171819523Y-109189904D01*
X171914761Y-109094666D01*
X171962380Y-108951809D01*
X171962380Y-108713714D01*
X171057619Y-109666095D02*
X171010000Y-109713714D01*
X170962380Y-109808952D01*
X170962380Y-110047047D01*
X171010000Y-110142285D01*
X171057619Y-110189904D01*
X171152857Y-110237523D01*
X171248095Y-110237523D01*
X171390952Y-110189904D01*
X171962380Y-109618476D01*
X171962380Y-110237523D01*
X170962380Y-110570857D02*
X170962380Y-111189904D01*
X171343333Y-110856571D01*
X171343333Y-110999428D01*
X171390952Y-111094666D01*
X171438571Y-111142285D01*
X171533809Y-111189904D01*
X171771904Y-111189904D01*
X171867142Y-111142285D01*
X171914761Y-111094666D01*
X171962380Y-110999428D01*
X171962380Y-110713714D01*
X171914761Y-110618476D01*
X171867142Y-110570857D01*
X171642380Y-113476095D02*
X170642380Y-113476095D01*
X171642380Y-114047523D02*
X171070952Y-113618952D01*
X170642380Y-114047523D02*
X171213809Y-113476095D01*
X152912380Y-108713714D02*
X151912380Y-108713714D01*
X151912380Y-108951809D01*
X151960000Y-109094666D01*
X152055238Y-109189904D01*
X152150476Y-109237523D01*
X152340952Y-109285142D01*
X152483809Y-109285142D01*
X152674285Y-109237523D01*
X152769523Y-109189904D01*
X152864761Y-109094666D01*
X152912380Y-108951809D01*
X152912380Y-108713714D01*
X152007619Y-109666095D02*
X151960000Y-109713714D01*
X151912380Y-109808952D01*
X151912380Y-110047047D01*
X151960000Y-110142285D01*
X152007619Y-110189904D01*
X152102857Y-110237523D01*
X152198095Y-110237523D01*
X152340952Y-110189904D01*
X152912380Y-109618476D01*
X152912380Y-110237523D01*
X152007619Y-110618476D02*
X151960000Y-110666095D01*
X151912380Y-110761333D01*
X151912380Y-110999428D01*
X151960000Y-111094666D01*
X152007619Y-111142285D01*
X152102857Y-111189904D01*
X152198095Y-111189904D01*
X152340952Y-111142285D01*
X152912380Y-110570857D01*
X152912380Y-111189904D01*
X152592380Y-113476095D02*
X151592380Y-113476095D01*
X152592380Y-114047523D02*
X152020952Y-113618952D01*
X151592380Y-114047523D02*
X152163809Y-113476095D01*
X133862380Y-108713714D02*
X132862380Y-108713714D01*
X132862380Y-108951809D01*
X132910000Y-109094666D01*
X133005238Y-109189904D01*
X133100476Y-109237523D01*
X133290952Y-109285142D01*
X133433809Y-109285142D01*
X133624285Y-109237523D01*
X133719523Y-109189904D01*
X133814761Y-109094666D01*
X133862380Y-108951809D01*
X133862380Y-108713714D01*
X132957619Y-109666095D02*
X132910000Y-109713714D01*
X132862380Y-109808952D01*
X132862380Y-110047047D01*
X132910000Y-110142285D01*
X132957619Y-110189904D01*
X133052857Y-110237523D01*
X133148095Y-110237523D01*
X133290952Y-110189904D01*
X133862380Y-109618476D01*
X133862380Y-110237523D01*
X133862380Y-111189904D02*
X133862380Y-110618476D01*
X133862380Y-110904190D02*
X132862380Y-110904190D01*
X133005238Y-110808952D01*
X133100476Y-110713714D01*
X133148095Y-110618476D01*
X133542380Y-113476095D02*
X132542380Y-113476095D01*
X133542380Y-114047523D02*
X132970952Y-113618952D01*
X132542380Y-114047523D02*
X133113809Y-113476095D01*
X114812380Y-108713714D02*
X113812380Y-108713714D01*
X113812380Y-108951809D01*
X113860000Y-109094666D01*
X113955238Y-109189904D01*
X114050476Y-109237523D01*
X114240952Y-109285142D01*
X114383809Y-109285142D01*
X114574285Y-109237523D01*
X114669523Y-109189904D01*
X114764761Y-109094666D01*
X114812380Y-108951809D01*
X114812380Y-108713714D01*
X113907619Y-109666095D02*
X113860000Y-109713714D01*
X113812380Y-109808952D01*
X113812380Y-110047047D01*
X113860000Y-110142285D01*
X113907619Y-110189904D01*
X114002857Y-110237523D01*
X114098095Y-110237523D01*
X114240952Y-110189904D01*
X114812380Y-109618476D01*
X114812380Y-110237523D01*
X113812380Y-110856571D02*
X113812380Y-110951809D01*
X113860000Y-111047047D01*
X113907619Y-111094666D01*
X114002857Y-111142285D01*
X114193333Y-111189904D01*
X114431428Y-111189904D01*
X114621904Y-111142285D01*
X114717142Y-111094666D01*
X114764761Y-111047047D01*
X114812380Y-110951809D01*
X114812380Y-110856571D01*
X114764761Y-110761333D01*
X114717142Y-110713714D01*
X114621904Y-110666095D01*
X114431428Y-110618476D01*
X114193333Y-110618476D01*
X114002857Y-110666095D01*
X113907619Y-110713714D01*
X113860000Y-110761333D01*
X113812380Y-110856571D01*
X114492380Y-113476095D02*
X113492380Y-113476095D01*
X114492380Y-114047523D02*
X113920952Y-113618952D01*
X113492380Y-114047523D02*
X114063809Y-113476095D01*
X95762380Y-108713714D02*
X94762380Y-108713714D01*
X94762380Y-108951809D01*
X94810000Y-109094666D01*
X94905238Y-109189904D01*
X95000476Y-109237523D01*
X95190952Y-109285142D01*
X95333809Y-109285142D01*
X95524285Y-109237523D01*
X95619523Y-109189904D01*
X95714761Y-109094666D01*
X95762380Y-108951809D01*
X95762380Y-108713714D01*
X95762380Y-110237523D02*
X95762380Y-109666095D01*
X95762380Y-109951809D02*
X94762380Y-109951809D01*
X94905238Y-109856571D01*
X95000476Y-109761333D01*
X95048095Y-109666095D01*
X95762380Y-110713714D02*
X95762380Y-110904190D01*
X95714761Y-110999428D01*
X95667142Y-111047047D01*
X95524285Y-111142285D01*
X95333809Y-111189904D01*
X94952857Y-111189904D01*
X94857619Y-111142285D01*
X94810000Y-111094666D01*
X94762380Y-110999428D01*
X94762380Y-110808952D01*
X94810000Y-110713714D01*
X94857619Y-110666095D01*
X94952857Y-110618476D01*
X95190952Y-110618476D01*
X95286190Y-110666095D01*
X95333809Y-110713714D01*
X95381428Y-110808952D01*
X95381428Y-110999428D01*
X95333809Y-111094666D01*
X95286190Y-111142285D01*
X95190952Y-111189904D01*
X95442380Y-113476095D02*
X94442380Y-113476095D01*
X95442380Y-114047523D02*
X94870952Y-113618952D01*
X94442380Y-114047523D02*
X95013809Y-113476095D01*
X76712380Y-108713714D02*
X75712380Y-108713714D01*
X75712380Y-108951809D01*
X75760000Y-109094666D01*
X75855238Y-109189904D01*
X75950476Y-109237523D01*
X76140952Y-109285142D01*
X76283809Y-109285142D01*
X76474285Y-109237523D01*
X76569523Y-109189904D01*
X76664761Y-109094666D01*
X76712380Y-108951809D01*
X76712380Y-108713714D01*
X76712380Y-110237523D02*
X76712380Y-109666095D01*
X76712380Y-109951809D02*
X75712380Y-109951809D01*
X75855238Y-109856571D01*
X75950476Y-109761333D01*
X75998095Y-109666095D01*
X76140952Y-110808952D02*
X76093333Y-110713714D01*
X76045714Y-110666095D01*
X75950476Y-110618476D01*
X75902857Y-110618476D01*
X75807619Y-110666095D01*
X75760000Y-110713714D01*
X75712380Y-110808952D01*
X75712380Y-110999428D01*
X75760000Y-111094666D01*
X75807619Y-111142285D01*
X75902857Y-111189904D01*
X75950476Y-111189904D01*
X76045714Y-111142285D01*
X76093333Y-111094666D01*
X76140952Y-110999428D01*
X76140952Y-110808952D01*
X76188571Y-110713714D01*
X76236190Y-110666095D01*
X76331428Y-110618476D01*
X76521904Y-110618476D01*
X76617142Y-110666095D01*
X76664761Y-110713714D01*
X76712380Y-110808952D01*
X76712380Y-110999428D01*
X76664761Y-111094666D01*
X76617142Y-111142285D01*
X76521904Y-111189904D01*
X76331428Y-111189904D01*
X76236190Y-111142285D01*
X76188571Y-111094666D01*
X76140952Y-110999428D01*
X76392380Y-113476095D02*
X75392380Y-113476095D01*
X76392380Y-114047523D02*
X75820952Y-113618952D01*
X75392380Y-114047523D02*
X75963809Y-113476095D01*
X57662380Y-108713714D02*
X56662380Y-108713714D01*
X56662380Y-108951809D01*
X56710000Y-109094666D01*
X56805238Y-109189904D01*
X56900476Y-109237523D01*
X57090952Y-109285142D01*
X57233809Y-109285142D01*
X57424285Y-109237523D01*
X57519523Y-109189904D01*
X57614761Y-109094666D01*
X57662380Y-108951809D01*
X57662380Y-108713714D01*
X57662380Y-110237523D02*
X57662380Y-109666095D01*
X57662380Y-109951809D02*
X56662380Y-109951809D01*
X56805238Y-109856571D01*
X56900476Y-109761333D01*
X56948095Y-109666095D01*
X56662380Y-110570857D02*
X56662380Y-111237523D01*
X57662380Y-110808952D01*
X57342380Y-113476095D02*
X56342380Y-113476095D01*
X57342380Y-114047523D02*
X56770952Y-113618952D01*
X56342380Y-114047523D02*
X56913809Y-113476095D01*
X367224380Y-80710714D02*
X366224380Y-80710714D01*
X366224380Y-80948809D01*
X366272000Y-81091666D01*
X366367238Y-81186904D01*
X366462476Y-81234523D01*
X366652952Y-81282142D01*
X366795809Y-81282142D01*
X366986285Y-81234523D01*
X367081523Y-81186904D01*
X367176761Y-81091666D01*
X367224380Y-80948809D01*
X367224380Y-80710714D01*
X367224380Y-82234523D02*
X367224380Y-81663095D01*
X367224380Y-81948809D02*
X366224380Y-81948809D01*
X366367238Y-81853571D01*
X366462476Y-81758333D01*
X366510095Y-81663095D01*
X366224380Y-83091666D02*
X366224380Y-82901190D01*
X366272000Y-82805952D01*
X366319619Y-82758333D01*
X366462476Y-82663095D01*
X366652952Y-82615476D01*
X367033904Y-82615476D01*
X367129142Y-82663095D01*
X367176761Y-82710714D01*
X367224380Y-82805952D01*
X367224380Y-82996428D01*
X367176761Y-83091666D01*
X367129142Y-83139285D01*
X367033904Y-83186904D01*
X366795809Y-83186904D01*
X366700571Y-83139285D01*
X366652952Y-83091666D01*
X366605333Y-82996428D01*
X366605333Y-82805952D01*
X366652952Y-82710714D01*
X366700571Y-82663095D01*
X366795809Y-82615476D01*
X366904380Y-85473095D02*
X365904380Y-85473095D01*
X366904380Y-86044523D02*
X366332952Y-85615952D01*
X365904380Y-86044523D02*
X366475809Y-85473095D01*
X348174380Y-80710714D02*
X347174380Y-80710714D01*
X347174380Y-80948809D01*
X347222000Y-81091666D01*
X347317238Y-81186904D01*
X347412476Y-81234523D01*
X347602952Y-81282142D01*
X347745809Y-81282142D01*
X347936285Y-81234523D01*
X348031523Y-81186904D01*
X348126761Y-81091666D01*
X348174380Y-80948809D01*
X348174380Y-80710714D01*
X348174380Y-82234523D02*
X348174380Y-81663095D01*
X348174380Y-81948809D02*
X347174380Y-81948809D01*
X347317238Y-81853571D01*
X347412476Y-81758333D01*
X347460095Y-81663095D01*
X347174380Y-83139285D02*
X347174380Y-82663095D01*
X347650571Y-82615476D01*
X347602952Y-82663095D01*
X347555333Y-82758333D01*
X347555333Y-82996428D01*
X347602952Y-83091666D01*
X347650571Y-83139285D01*
X347745809Y-83186904D01*
X347983904Y-83186904D01*
X348079142Y-83139285D01*
X348126761Y-83091666D01*
X348174380Y-82996428D01*
X348174380Y-82758333D01*
X348126761Y-82663095D01*
X348079142Y-82615476D01*
X347854380Y-85473095D02*
X346854380Y-85473095D01*
X347854380Y-86044523D02*
X347282952Y-85615952D01*
X346854380Y-86044523D02*
X347425809Y-85473095D01*
X329124380Y-80710714D02*
X328124380Y-80710714D01*
X328124380Y-80948809D01*
X328172000Y-81091666D01*
X328267238Y-81186904D01*
X328362476Y-81234523D01*
X328552952Y-81282142D01*
X328695809Y-81282142D01*
X328886285Y-81234523D01*
X328981523Y-81186904D01*
X329076761Y-81091666D01*
X329124380Y-80948809D01*
X329124380Y-80710714D01*
X329124380Y-82234523D02*
X329124380Y-81663095D01*
X329124380Y-81948809D02*
X328124380Y-81948809D01*
X328267238Y-81853571D01*
X328362476Y-81758333D01*
X328410095Y-81663095D01*
X328457714Y-83091666D02*
X329124380Y-83091666D01*
X328076761Y-82853571D02*
X328791047Y-82615476D01*
X328791047Y-83234523D01*
X328804380Y-85473095D02*
X327804380Y-85473095D01*
X328804380Y-86044523D02*
X328232952Y-85615952D01*
X327804380Y-86044523D02*
X328375809Y-85473095D01*
X324362380Y-80710714D02*
X323362380Y-80710714D01*
X323362380Y-80948809D01*
X323410000Y-81091666D01*
X323505238Y-81186904D01*
X323600476Y-81234523D01*
X323790952Y-81282142D01*
X323933809Y-81282142D01*
X324124285Y-81234523D01*
X324219523Y-81186904D01*
X324314761Y-81091666D01*
X324362380Y-80948809D01*
X324362380Y-80710714D01*
X324362380Y-82234523D02*
X324362380Y-81663095D01*
X324362380Y-81948809D02*
X323362380Y-81948809D01*
X323505238Y-81853571D01*
X323600476Y-81758333D01*
X323648095Y-81663095D01*
X323362380Y-82567857D02*
X323362380Y-83186904D01*
X323743333Y-82853571D01*
X323743333Y-82996428D01*
X323790952Y-83091666D01*
X323838571Y-83139285D01*
X323933809Y-83186904D01*
X324171904Y-83186904D01*
X324267142Y-83139285D01*
X324314761Y-83091666D01*
X324362380Y-82996428D01*
X324362380Y-82710714D01*
X324314761Y-82615476D01*
X324267142Y-82567857D01*
X324042380Y-85473095D02*
X323042380Y-85473095D01*
X324042380Y-86044523D02*
X323470952Y-85615952D01*
X323042380Y-86044523D02*
X323613809Y-85473095D01*
X305312380Y-80710714D02*
X304312380Y-80710714D01*
X304312380Y-80948809D01*
X304360000Y-81091666D01*
X304455238Y-81186904D01*
X304550476Y-81234523D01*
X304740952Y-81282142D01*
X304883809Y-81282142D01*
X305074285Y-81234523D01*
X305169523Y-81186904D01*
X305264761Y-81091666D01*
X305312380Y-80948809D01*
X305312380Y-80710714D01*
X305312380Y-82234523D02*
X305312380Y-81663095D01*
X305312380Y-81948809D02*
X304312380Y-81948809D01*
X304455238Y-81853571D01*
X304550476Y-81758333D01*
X304598095Y-81663095D01*
X304407619Y-82615476D02*
X304360000Y-82663095D01*
X304312380Y-82758333D01*
X304312380Y-82996428D01*
X304360000Y-83091666D01*
X304407619Y-83139285D01*
X304502857Y-83186904D01*
X304598095Y-83186904D01*
X304740952Y-83139285D01*
X305312380Y-82567857D01*
X305312380Y-83186904D01*
X304992380Y-85473095D02*
X303992380Y-85473095D01*
X304992380Y-86044523D02*
X304420952Y-85615952D01*
X303992380Y-86044523D02*
X304563809Y-85473095D01*
X286262380Y-80710714D02*
X285262380Y-80710714D01*
X285262380Y-80948809D01*
X285310000Y-81091666D01*
X285405238Y-81186904D01*
X285500476Y-81234523D01*
X285690952Y-81282142D01*
X285833809Y-81282142D01*
X286024285Y-81234523D01*
X286119523Y-81186904D01*
X286214761Y-81091666D01*
X286262380Y-80948809D01*
X286262380Y-80710714D01*
X286262380Y-82234523D02*
X286262380Y-81663095D01*
X286262380Y-81948809D02*
X285262380Y-81948809D01*
X285405238Y-81853571D01*
X285500476Y-81758333D01*
X285548095Y-81663095D01*
X286262380Y-83186904D02*
X286262380Y-82615476D01*
X286262380Y-82901190D02*
X285262380Y-82901190D01*
X285405238Y-82805952D01*
X285500476Y-82710714D01*
X285548095Y-82615476D01*
X285942380Y-85473095D02*
X284942380Y-85473095D01*
X285942380Y-86044523D02*
X285370952Y-85615952D01*
X284942380Y-86044523D02*
X285513809Y-85473095D01*
X267212380Y-80710714D02*
X266212380Y-80710714D01*
X266212380Y-80948809D01*
X266260000Y-81091666D01*
X266355238Y-81186904D01*
X266450476Y-81234523D01*
X266640952Y-81282142D01*
X266783809Y-81282142D01*
X266974285Y-81234523D01*
X267069523Y-81186904D01*
X267164761Y-81091666D01*
X267212380Y-80948809D01*
X267212380Y-80710714D01*
X267212380Y-82234523D02*
X267212380Y-81663095D01*
X267212380Y-81948809D02*
X266212380Y-81948809D01*
X266355238Y-81853571D01*
X266450476Y-81758333D01*
X266498095Y-81663095D01*
X266212380Y-82853571D02*
X266212380Y-82948809D01*
X266260000Y-83044047D01*
X266307619Y-83091666D01*
X266402857Y-83139285D01*
X266593333Y-83186904D01*
X266831428Y-83186904D01*
X267021904Y-83139285D01*
X267117142Y-83091666D01*
X267164761Y-83044047D01*
X267212380Y-82948809D01*
X267212380Y-82853571D01*
X267164761Y-82758333D01*
X267117142Y-82710714D01*
X267021904Y-82663095D01*
X266831428Y-82615476D01*
X266593333Y-82615476D01*
X266402857Y-82663095D01*
X266307619Y-82710714D01*
X266260000Y-82758333D01*
X266212380Y-82853571D01*
X266892380Y-85473095D02*
X265892380Y-85473095D01*
X266892380Y-86044523D02*
X266320952Y-85615952D01*
X265892380Y-86044523D02*
X266463809Y-85473095D01*
X238637380Y-81186904D02*
X237637380Y-81186904D01*
X237637380Y-81425000D01*
X237685000Y-81567857D01*
X237780238Y-81663095D01*
X237875476Y-81710714D01*
X238065952Y-81758333D01*
X238208809Y-81758333D01*
X238399285Y-81710714D01*
X238494523Y-81663095D01*
X238589761Y-81567857D01*
X238637380Y-81425000D01*
X238637380Y-81186904D01*
X238637380Y-82234523D02*
X238637380Y-82425000D01*
X238589761Y-82520238D01*
X238542142Y-82567857D01*
X238399285Y-82663095D01*
X238208809Y-82710714D01*
X237827857Y-82710714D01*
X237732619Y-82663095D01*
X237685000Y-82615476D01*
X237637380Y-82520238D01*
X237637380Y-82329761D01*
X237685000Y-82234523D01*
X237732619Y-82186904D01*
X237827857Y-82139285D01*
X238065952Y-82139285D01*
X238161190Y-82186904D01*
X238208809Y-82234523D01*
X238256428Y-82329761D01*
X238256428Y-82520238D01*
X238208809Y-82615476D01*
X238161190Y-82663095D01*
X238065952Y-82710714D01*
X238317380Y-85473095D02*
X237317380Y-85473095D01*
X238317380Y-86044523D02*
X237745952Y-85615952D01*
X237317380Y-86044523D02*
X237888809Y-85473095D01*
X219587380Y-81186904D02*
X218587380Y-81186904D01*
X218587380Y-81425000D01*
X218635000Y-81567857D01*
X218730238Y-81663095D01*
X218825476Y-81710714D01*
X219015952Y-81758333D01*
X219158809Y-81758333D01*
X219349285Y-81710714D01*
X219444523Y-81663095D01*
X219539761Y-81567857D01*
X219587380Y-81425000D01*
X219587380Y-81186904D01*
X219015952Y-82329761D02*
X218968333Y-82234523D01*
X218920714Y-82186904D01*
X218825476Y-82139285D01*
X218777857Y-82139285D01*
X218682619Y-82186904D01*
X218635000Y-82234523D01*
X218587380Y-82329761D01*
X218587380Y-82520238D01*
X218635000Y-82615476D01*
X218682619Y-82663095D01*
X218777857Y-82710714D01*
X218825476Y-82710714D01*
X218920714Y-82663095D01*
X218968333Y-82615476D01*
X219015952Y-82520238D01*
X219015952Y-82329761D01*
X219063571Y-82234523D01*
X219111190Y-82186904D01*
X219206428Y-82139285D01*
X219396904Y-82139285D01*
X219492142Y-82186904D01*
X219539761Y-82234523D01*
X219587380Y-82329761D01*
X219587380Y-82520238D01*
X219539761Y-82615476D01*
X219492142Y-82663095D01*
X219396904Y-82710714D01*
X219206428Y-82710714D01*
X219111190Y-82663095D01*
X219063571Y-82615476D01*
X219015952Y-82520238D01*
X219267380Y-85473095D02*
X218267380Y-85473095D01*
X219267380Y-86044523D02*
X218695952Y-85615952D01*
X218267380Y-86044523D02*
X218838809Y-85473095D01*
X181487380Y-81186904D02*
X180487380Y-81186904D01*
X180487380Y-81425000D01*
X180535000Y-81567857D01*
X180630238Y-81663095D01*
X180725476Y-81710714D01*
X180915952Y-81758333D01*
X181058809Y-81758333D01*
X181249285Y-81710714D01*
X181344523Y-81663095D01*
X181439761Y-81567857D01*
X181487380Y-81425000D01*
X181487380Y-81186904D01*
X180487380Y-82091666D02*
X180487380Y-82758333D01*
X181487380Y-82329761D01*
X181167380Y-85473095D02*
X180167380Y-85473095D01*
X181167380Y-86044523D02*
X180595952Y-85615952D01*
X180167380Y-86044523D02*
X180738809Y-85473095D01*
X162437380Y-81186904D02*
X161437380Y-81186904D01*
X161437380Y-81425000D01*
X161485000Y-81567857D01*
X161580238Y-81663095D01*
X161675476Y-81710714D01*
X161865952Y-81758333D01*
X162008809Y-81758333D01*
X162199285Y-81710714D01*
X162294523Y-81663095D01*
X162389761Y-81567857D01*
X162437380Y-81425000D01*
X162437380Y-81186904D01*
X161437380Y-82615476D02*
X161437380Y-82425000D01*
X161485000Y-82329761D01*
X161532619Y-82282142D01*
X161675476Y-82186904D01*
X161865952Y-82139285D01*
X162246904Y-82139285D01*
X162342142Y-82186904D01*
X162389761Y-82234523D01*
X162437380Y-82329761D01*
X162437380Y-82520238D01*
X162389761Y-82615476D01*
X162342142Y-82663095D01*
X162246904Y-82710714D01*
X162008809Y-82710714D01*
X161913571Y-82663095D01*
X161865952Y-82615476D01*
X161818333Y-82520238D01*
X161818333Y-82329761D01*
X161865952Y-82234523D01*
X161913571Y-82186904D01*
X162008809Y-82139285D01*
X162117380Y-85473095D02*
X161117380Y-85473095D01*
X162117380Y-86044523D02*
X161545952Y-85615952D01*
X161117380Y-86044523D02*
X161688809Y-85473095D01*
X152912380Y-81186904D02*
X151912380Y-81186904D01*
X151912380Y-81425000D01*
X151960000Y-81567857D01*
X152055238Y-81663095D01*
X152150476Y-81710714D01*
X152340952Y-81758333D01*
X152483809Y-81758333D01*
X152674285Y-81710714D01*
X152769523Y-81663095D01*
X152864761Y-81567857D01*
X152912380Y-81425000D01*
X152912380Y-81186904D01*
X151912380Y-82663095D02*
X151912380Y-82186904D01*
X152388571Y-82139285D01*
X152340952Y-82186904D01*
X152293333Y-82282142D01*
X152293333Y-82520238D01*
X152340952Y-82615476D01*
X152388571Y-82663095D01*
X152483809Y-82710714D01*
X152721904Y-82710714D01*
X152817142Y-82663095D01*
X152864761Y-82615476D01*
X152912380Y-82520238D01*
X152912380Y-82282142D01*
X152864761Y-82186904D01*
X152817142Y-82139285D01*
X152592380Y-85473095D02*
X151592380Y-85473095D01*
X152592380Y-86044523D02*
X152020952Y-85615952D01*
X151592380Y-86044523D02*
X152163809Y-85473095D01*
X114491380Y-81186904D02*
X113491380Y-81186904D01*
X113491380Y-81425000D01*
X113539000Y-81567857D01*
X113634238Y-81663095D01*
X113729476Y-81710714D01*
X113919952Y-81758333D01*
X114062809Y-81758333D01*
X114253285Y-81710714D01*
X114348523Y-81663095D01*
X114443761Y-81567857D01*
X114491380Y-81425000D01*
X114491380Y-81186904D01*
X113824714Y-82615476D02*
X114491380Y-82615476D01*
X113443761Y-82377380D02*
X114158047Y-82139285D01*
X114158047Y-82758333D01*
X114171380Y-85473095D02*
X113171380Y-85473095D01*
X114171380Y-86044523D02*
X113599952Y-85615952D01*
X113171380Y-86044523D02*
X113742809Y-85473095D01*
X95762380Y-81186904D02*
X94762380Y-81186904D01*
X94762380Y-81425000D01*
X94810000Y-81567857D01*
X94905238Y-81663095D01*
X95000476Y-81710714D01*
X95190952Y-81758333D01*
X95333809Y-81758333D01*
X95524285Y-81710714D01*
X95619523Y-81663095D01*
X95714761Y-81567857D01*
X95762380Y-81425000D01*
X95762380Y-81186904D01*
X94762380Y-82091666D02*
X94762380Y-82710714D01*
X95143333Y-82377380D01*
X95143333Y-82520238D01*
X95190952Y-82615476D01*
X95238571Y-82663095D01*
X95333809Y-82710714D01*
X95571904Y-82710714D01*
X95667142Y-82663095D01*
X95714761Y-82615476D01*
X95762380Y-82520238D01*
X95762380Y-82234523D01*
X95714761Y-82139285D01*
X95667142Y-82091666D01*
X95442380Y-85473095D02*
X94442380Y-85473095D01*
X95442380Y-86044523D02*
X94870952Y-85615952D01*
X94442380Y-86044523D02*
X95013809Y-85473095D01*
X76712380Y-81186904D02*
X75712380Y-81186904D01*
X75712380Y-81425000D01*
X75760000Y-81567857D01*
X75855238Y-81663095D01*
X75950476Y-81710714D01*
X76140952Y-81758333D01*
X76283809Y-81758333D01*
X76474285Y-81710714D01*
X76569523Y-81663095D01*
X76664761Y-81567857D01*
X76712380Y-81425000D01*
X76712380Y-81186904D01*
X75807619Y-82139285D02*
X75760000Y-82186904D01*
X75712380Y-82282142D01*
X75712380Y-82520238D01*
X75760000Y-82615476D01*
X75807619Y-82663095D01*
X75902857Y-82710714D01*
X75998095Y-82710714D01*
X76140952Y-82663095D01*
X76712380Y-82091666D01*
X76712380Y-82710714D01*
X76392380Y-85473095D02*
X75392380Y-85473095D01*
X76392380Y-86044523D02*
X75820952Y-85615952D01*
X75392380Y-86044523D02*
X75963809Y-85473095D01*
X57662380Y-81186904D02*
X56662380Y-81186904D01*
X56662380Y-81425000D01*
X56710000Y-81567857D01*
X56805238Y-81663095D01*
X56900476Y-81710714D01*
X57090952Y-81758333D01*
X57233809Y-81758333D01*
X57424285Y-81710714D01*
X57519523Y-81663095D01*
X57614761Y-81567857D01*
X57662380Y-81425000D01*
X57662380Y-81186904D01*
X57662380Y-82710714D02*
X57662380Y-82139285D01*
X57662380Y-82425000D02*
X56662380Y-82425000D01*
X56805238Y-82329761D01*
X56900476Y-82234523D01*
X56948095Y-82139285D01*
X57342380Y-85473095D02*
X56342380Y-85473095D01*
X57342380Y-86044523D02*
X56770952Y-85615952D01*
X56342380Y-86044523D02*
X56913809Y-85473095D01*
M02*
